<svg width="410" height="47" viewBox="0 0 410 47" fill="none" xmlns="http://www.w3.org/2000/svg">
<g clip-path="url(#clip0_14029_44)">
<path d="M0 45.9404L0.117819 45.3485L0.765827 45.1117C2.45065 44.5197 3.44622 43.3773 3.76433 41.6844L6.82175 25.2699C7.25179 23.1034 7.66416 20.8895 8.05296 18.6283C8.44177 16.3671 8.8777 13.8573 9.34309 11.0988C9.61407 9.48284 8.98963 8.38184 7.46386 7.7899L6.87477 7.55312L6.99259 6.96118H19.8055C24.8599 6.96118 28.53 7.93788 30.8216 9.88536C33.1132 11.8328 34.256 14.4019 34.256 17.5924C34.256 19.8773 33.6021 22.0142 32.2884 23.9972C30.9747 25.9861 28.9954 27.5784 26.3562 28.7801C23.7112 29.9817 20.3946 30.5796 16.3946 30.5796H13.8084C13.4962 32.1541 13.1722 33.8944 12.8364 35.8064C12.5006 37.7184 12.159 39.6362 11.8055 41.566C11.5286 43.3773 12.2356 44.5789 13.9204 45.165L14.6273 45.3425L14.5095 45.9345H0V45.9404ZM14.0441 29.4075H16.2179C19.1928 29.4075 21.6022 28.3361 23.4461 26.1874C25.2841 24.0446 26.2089 21.0789 26.2089 17.3024C26.2089 14.3486 25.6198 12.0874 24.4475 10.5128C23.2693 8.93826 21.5845 8.15098 19.3931 8.15098H17.9851C17.3548 11.6908 16.7127 15.2365 16.047 18.7822C15.3813 22.3279 14.7157 25.8677 14.05 29.4134L14.0441 29.4075Z" fill="#9260CE"/>
<path d="M43.7817 46.8225C40.8421 46.8225 38.4562 45.8576 36.6124 43.9279C34.7685 41.9982 33.8495 39.2634 33.8495 35.7177C33.8495 33.2019 34.2795 30.7987 35.1396 28.5138C35.9997 26.2289 37.2073 24.1926 38.7508 22.405C40.3001 20.6114 42.091 19.2085 44.1292 18.1844C46.1675 17.1604 48.3766 16.6513 50.7684 16.6513C53.1601 16.6513 55.1277 17.2137 56.4414 18.3324C57.7551 19.4571 58.409 20.9429 58.409 22.7897C58.409 24.3229 57.6962 25.8382 56.2646 27.3358C54.8331 28.8334 52.8243 30.1771 50.2441 31.3788C47.6579 32.5804 44.6241 33.4979 41.1366 34.1254C41.1779 36.8424 41.7611 38.8313 42.898 40.0921C44.035 41.353 45.602 41.9804 47.599 41.9804C49.2838 41.9804 50.8332 41.5187 52.2411 40.5953C53.6491 39.6719 54.8449 38.5768 55.8228 37.3159L56.4119 37.7303C55.6284 39.2634 54.6211 40.7255 53.384 42.0988C52.1469 43.478 50.7271 44.6086 49.1248 45.4965C47.5165 46.3844 45.7375 46.8225 43.7758 46.8225H43.7817ZM50.3619 18.2436C49.4606 18.2436 48.4886 18.6402 47.4517 19.4275C46.4149 20.2148 45.4311 21.2862 44.5122 22.6477C43.5932 24.0032 42.8273 25.56 42.2206 27.3122C41.6138 29.0643 41.2486 30.923 41.1307 32.8941C45.437 31.7103 48.5062 30.1594 50.3265 28.2297C52.1469 26.2999 53.06 24.1157 53.06 21.6769C53.06 20.493 52.8066 19.6288 52.2941 19.0783C51.7816 18.5278 51.1395 18.2496 50.356 18.2496L50.3619 18.2436ZM51.3575 13.4608C51.8641 11.8448 52.3766 10.2406 52.8832 8.6483C53.3898 7.05598 53.9024 5.48734 54.409 3.95422C54.839 2.53948 55.381 1.52134 56.0231 0.911647C56.6711 0.301949 57.4016 -0.00585938 58.2263 -0.00585938C59.0511 -0.00585938 59.8523 0.278272 60.5179 0.852453C61.1836 1.42072 61.5194 2.16064 61.5194 3.06631C61.5194 3.81215 61.2838 4.51064 60.8125 5.16177C60.3412 5.81291 59.6932 6.52915 58.8743 7.31643C57.6962 8.45888 56.571 9.57764 55.4929 10.6846C54.4149 11.7856 53.2897 12.8925 52.1115 13.9935L51.3457 13.4608H51.3575Z" fill="#9260CE"/>
<path d="M62.8213 46.8225C61.5312 46.8225 60.5003 46.4851 59.7344 45.8162C58.9686 45.1473 58.5857 44.1825 58.5857 42.9216C58.5857 42.2113 58.6623 41.3589 58.8213 40.3526C58.9804 39.3463 59.2101 38.0618 59.5283 36.4873L62.8802 20.1912C63.1924 18.6936 63.4575 17.338 63.6755 16.1186C63.8876 14.8992 64.135 13.52 64.4119 11.9869C64.6829 10.4123 64.0584 9.35275 62.5326 8.79633L61.5312 8.44117L61.649 7.84923L73.1659 4.54028L73.5193 4.95464L66.2911 39.2043C66.1733 39.7962 66.0731 40.3171 65.9965 40.767C65.92 41.2228 65.8787 41.6016 65.8787 41.9213C65.8787 42.7855 66.2499 43.2176 66.998 43.2176C67.9759 43.2176 69.4074 42.3297 71.2866 40.5598L71.8757 41.0334C70.8978 42.4895 69.6607 43.8214 68.1762 45.0171C66.6858 46.2188 64.9067 46.8166 62.8272 46.8166L62.8213 46.8225Z" fill="#9260CE"/>
<path d="M80.8006 46.4731L80.2115 45.9995C79.8581 41.6724 79.4869 37.6413 79.0922 33.924C78.6976 30.2066 78.3087 26.5543 77.9141 22.9731C77.8375 22.0674 77.6607 21.4873 77.3839 21.2328C77.107 20.9782 76.7948 20.848 76.4413 20.848C75.7344 20.848 74.7565 21.5938 73.5017 23.0915L72.7948 22.3811C74.1674 20.4928 75.487 19.0663 76.7594 18.1014C78.0319 17.1365 79.3338 16.6571 80.6651 16.6571C83.4044 16.6571 84.9538 18.4862 85.3072 22.1503C85.5429 24.9442 85.7844 27.9572 86.0436 31.1833C86.2969 34.4093 86.5443 37.8544 86.78 41.5185C88.2704 39.7072 89.6666 37.9669 90.9802 36.2917C92.2939 34.6165 93.5369 32.8762 94.7092 31.0649C95.3749 30.0408 95.746 29.0464 95.8226 28.0815C95.8992 27.1166 95.7225 26.0867 95.2924 24.9797L94.291 22.2035C93.7784 20.6704 93.8668 19.3326 94.5561 18.1902C95.2394 17.0478 96.2527 16.4795 97.584 16.4795C98.9154 16.4795 99.9227 16.8938 100.494 17.7166C101.06 18.5454 101.348 19.528 101.348 20.6704C101.348 21.4577 101.142 22.4226 100.73 23.565C100.317 24.7075 99.5457 26.2406 98.4088 28.1703C96.883 30.7275 94.9213 33.5806 92.5296 36.7297C90.1378 39.8789 87.4339 42.9865 84.4177 46.0587L80.7771 46.4731H80.8006Z" fill="#9260CE"/>
<path d="M106.014 46.8224C104.8 46.8224 103.799 46.5087 103.015 45.8753C102.232 45.2479 101.837 44.3185 101.837 43.0991C101.837 42.3888 101.914 41.5423 102.073 40.5597C102.232 39.5771 102.403 38.5885 102.603 37.6059L105.366 24.3228C105.719 22.7068 105.148 21.5703 103.663 20.8955L102.721 20.4219L102.78 19.7708L113.825 16.5802L114.415 17.113L109.831 38.4879C109.672 39.1982 109.554 39.7961 109.478 40.2874C109.401 40.7787 109.36 41.2641 109.36 41.7317C109.36 42.596 109.749 43.0281 110.538 43.0281C111.127 43.0281 111.716 42.8387 112.3 42.4657C112.889 42.0928 113.631 41.4713 114.532 40.607L115.063 41.1398C114.085 42.596 112.836 43.9042 111.334 45.0644C109.825 46.2246 108.052 46.8047 106.014 46.8047V46.8224ZM111.475 13.3423C110.379 13.3423 109.425 12.9812 108.624 12.2472C107.823 11.5191 107.422 10.5424 107.422 9.32304C107.422 7.94382 107.899 6.81322 108.859 5.92531C109.82 5.0374 110.903 4.59937 112.123 4.59937C113.342 4.59937 114.255 4.97229 115.004 5.72405C115.746 6.46989 116.123 7.43476 116.123 8.61864C116.123 9.95642 115.652 11.0811 114.715 11.9868C113.772 12.8924 112.694 13.3423 111.481 13.3423H111.475Z" fill="#9260CE"/>
<path d="M124.347 46.8223C121.878 46.8223 119.881 46.331 118.356 45.3484C116.83 44.3658 116.064 42.9688 116.064 41.1575C116.064 40.2104 116.394 39.3876 117.065 38.6772C117.731 37.9669 118.591 37.6118 119.652 37.6118C121.613 37.6118 122.827 38.8134 123.298 41.2108L123.652 42.8623C123.846 43.691 124.093 44.3599 124.388 44.8689C124.682 45.3839 125.26 45.6385 126.12 45.6385C127.098 45.6385 127.958 45.2241 128.706 44.4013C129.448 43.5726 129.825 42.4361 129.825 40.974C129.825 39.873 129.484 38.8075 128.794 37.7834C128.111 36.7594 126.962 35.6406 125.36 34.4153C123.752 33.1545 122.462 31.8463 121.484 30.4907C120.506 29.1352 120.017 27.5074 120.017 25.6191C120.017 23.9676 120.435 22.4581 121.277 21.1026C122.12 19.747 123.345 18.6638 124.953 17.8528C126.562 17.0478 128.459 16.6453 130.656 16.6453C133.201 16.6453 135.21 17.1602 136.676 18.1784C138.143 19.2024 138.88 20.5225 138.88 22.1325C138.88 22.9968 138.626 23.7189 138.114 24.2872C137.601 24.8555 136.841 25.1455 135.822 25.1455C133.943 25.1455 132.671 24.0031 132.005 21.7182L131.416 20.0667C131.221 19.2794 130.986 18.7289 130.709 18.4152C130.432 18.1014 130.002 17.9416 129.419 17.9416C128.794 17.9416 128.146 18.2849 127.481 18.9775C126.815 19.6642 126.479 20.7592 126.479 22.2568C126.479 23.6716 126.897 24.962 127.74 26.1222C128.582 27.2824 129.843 28.4959 131.528 29.7508C133.254 31.0472 134.514 32.308 135.316 33.5274C136.117 34.7468 136.517 36.2266 136.517 37.9551C136.517 39.5711 136.046 41.045 135.109 42.3828C134.167 43.7206 132.8 44.792 130.998 45.6029C129.195 46.408 126.98 46.8105 124.358 46.8105L124.347 46.8223Z" fill="#9260CE"/>
<path d="M147.145 45.9403L147.322 45.3484L149.436 44.7565C151.003 44.3243 152.14 43.3595 152.847 41.8619L170.715 6.96704H175.474L181 41.8027C181.153 43.1819 181.902 44.1645 183.233 44.7565L184.759 45.3484L184.641 45.9403H169.89L170.067 45.3484L171.363 44.8748C172.735 44.3658 173.301 43.4187 173.065 42.0395L171.716 32.5329H159.198L154.261 42.0987C153.949 42.732 153.89 43.2825 154.084 43.7502C154.279 44.2237 154.691 44.5552 155.316 44.7565L157.136 45.3484L157.018 45.9403H147.145ZM169.006 13.4014L159.781 31.355H171.533L169.006 13.4014Z" fill="#9260CE"/>
<path d="M205.442 47C201.76 47 198.567 46.3192 195.863 44.9637C193.159 43.6082 191.074 41.637 189.607 39.0561C188.14 36.4753 187.404 33.3558 187.404 29.6976C187.404 26.4301 187.963 23.3579 189.077 20.487C190.196 17.6161 191.781 15.0826 193.837 12.8983C195.893 10.7141 198.32 9.00337 201.124 7.7603C203.922 6.52315 207.009 5.90161 210.378 5.90161C212.376 5.90161 214.267 6.12063 216.051 6.55274C217.836 6.98486 219.645 7.71295 221.489 8.737L220.081 17.8292H219.492L217.495 11.5724C216.982 9.87944 216.193 8.7074 215.115 8.05627C214.037 7.40514 212.617 7.07957 210.856 7.07957C207.839 7.07957 205.206 8.03259 202.95 9.94456C200.694 11.8565 198.944 14.5143 197.689 17.918C196.435 21.3216 195.81 25.2699 195.81 29.7568C195.81 34.6758 196.759 38.5826 198.661 41.4772C200.564 44.3718 203.274 45.8161 206.803 45.8161C208.328 45.8161 209.571 45.5201 210.532 44.9282C211.492 44.3362 212.346 43.4306 213.088 42.2112L217.436 35.1257H218.025L216.617 44.0995C215.091 44.9637 213.454 45.6622 211.71 46.1949C209.966 46.7277 207.881 46.9941 205.454 46.9941L205.442 47Z" fill="#9260CE"/>
<path d="M217.018 45.9403L217.194 45.3484L219.309 44.7565C220.876 44.3243 222.013 43.3595 222.72 41.8619L240.587 6.96704H245.347L250.873 41.8027C251.026 43.1819 251.774 44.1645 253.106 44.7565L254.631 45.3484L254.514 45.9403H239.763L239.939 45.3484L241.235 44.8748C242.608 44.3658 243.174 43.4187 242.938 42.0395L241.589 32.5329H229.071L224.134 42.0987C223.822 42.732 223.763 43.2825 223.957 43.7502C224.152 44.2237 224.564 44.5552 225.188 44.7565L227.009 45.3484L226.891 45.9403H217.018ZM238.879 13.4014L229.654 31.355H241.406L238.879 13.4014Z" fill="#9260CE"/>
<path d="M255.745 45.9403L255.922 45.3484L256.864 44.934C257.648 44.5789 258.254 44.1468 258.685 43.6377C259.115 43.1286 259.409 42.4361 259.568 41.5718L262.626 25.2757C263.014 23.1921 263.427 20.9072 263.857 18.427C264.287 15.9468 264.699 13.5672 265.088 11.2823C265.324 9.74916 264.776 8.64815 263.444 7.97334L262.679 7.55898L262.796 6.96704H276.016C280.092 6.96704 283.497 7.67737 286.242 9.0921C288.982 10.5068 291.044 12.4602 292.41 14.9405C293.783 17.4207 294.466 20.2324 294.466 23.3815C294.466 26.9213 293.836 30.0941 292.587 32.8881C291.332 35.682 289.618 38.0439 287.444 39.9736C285.27 41.9033 282.761 43.3772 279.921 44.4013C277.082 45.4254 274.054 45.9344 270.843 45.9344H255.739L255.745 45.9403ZM267.085 44.7565H270.084C273.453 44.7565 276.31 43.8094 278.661 41.9211C281.011 40.0328 282.826 37.4342 284.098 34.1252C285.371 30.8163 286.007 27.0575 286.007 22.8488C286.007 17.9653 285.106 14.3367 283.303 11.9571C281.5 9.57749 278.855 8.30482 275.368 8.15092H273.783L270.078 27.5784C269.565 30.4552 269.047 33.3261 268.522 36.197C267.992 39.0679 267.515 41.927 267.085 44.7565Z" fill="#9260CE"/>
<path d="M292.351 45.9404L292.469 45.3485L293.583 44.9933C294.991 44.4428 295.815 43.4602 296.051 42.0395L299.226 25.2699C299.615 23.1862 300.027 20.8718 300.457 18.3323C300.887 15.7929 301.3 13.3837 301.689 11.0988C301.96 9.52428 301.353 8.44103 299.868 7.84909L299.279 7.55312L299.397 6.96118H325.9L324.434 17.2373H323.845L322.666 11.8032C322.389 10.5424 321.901 9.61899 321.199 9.02705C320.493 8.43511 319.456 8.13914 318.083 8.13914H310.384L307.15 25.264H312.557C314.319 25.264 315.65 24.5536 316.551 23.1389L318.49 20.1851H319.079L316.964 31.4616H316.375L315.668 29.0997C315.155 27.3298 313.983 26.4419 312.139 26.4419H306.908C306.395 29.3187 305.848 32.3495 305.264 35.5341C304.675 38.7247 304.145 41.7909 303.68 44.7447H313.141C314.354 44.7447 315.391 44.4961 316.257 44.0048C317.117 43.5134 317.959 42.6788 318.784 41.4949L322.719 35.6466H323.308L320.958 45.9226H292.34L292.351 45.9404Z" fill="#9260CE"/>
<path d="M322.914 45.9405L323.032 45.3485L324.381 44.9934C326.183 44.4843 327.238 43.3418 327.556 41.566L333.082 11.8625L332.905 11.2114C332.864 9.79663 332.239 8.67195 331.026 7.84323L330.613 7.54726L330.731 6.95532H340.722L348.245 36.1261L365.582 6.95532H375.927L375.809 7.54726L374.631 8.08001C373.223 8.67195 372.374 9.77295 372.103 11.3889L369.223 27.5667C368.793 29.9285 368.363 32.3081 367.933 34.7114C367.503 37.1146 367.09 39.512 366.701 41.9153C366.425 43.5668 367.114 44.65 368.757 45.165L369.229 45.3426L369.111 45.9345H355.067L355.185 45.3426L355.774 45.165C357.417 44.656 358.377 43.549 358.654 41.8561L363.827 13.5732L344.61 45.9345H342.436L334.207 13.6916L329.152 41.4417C328.799 43.2531 329.506 44.4547 331.267 45.0407L332.328 45.3367L332.21 45.9286H322.926L322.914 45.9405Z" fill="#9260CE"/>
<path d="M379.738 45.9404L379.856 45.3485L381.323 44.8157C382.848 44.3066 383.75 43.2589 384.027 41.6844L386.2 30.1711L379.738 10.6253C379.343 9.2875 378.483 8.36408 377.152 7.84909L376.504 7.55312L376.622 6.96118H391.373L391.255 7.55312L389.965 7.96748C388.71 8.36408 388.262 9.20463 388.616 10.5069L393.611 27.5133L404.015 10.3885C404.722 9.16912 404.404 8.3404 403.072 7.90828L401.894 7.55312L402.012 6.96118H410.006L409.888 7.55312L408.769 7.96748C408.027 8.20425 407.396 8.51798 406.89 8.91458C406.383 9.31118 405.912 9.86169 405.482 10.5661L394.377 28.9873C394.065 30.7986 393.694 32.8822 393.258 35.2441C392.828 37.6059 392.433 39.8138 392.08 41.856C391.844 43.3122 392.41 44.3185 393.782 44.869L395.131 45.3425L395.013 45.9345H379.732L379.738 45.9404Z" fill="#9260CE"/>
</g>
<defs>
<clipPath id="clip0_14029_44">
<rect width="410" height="47" fill="white"/>
</clipPath>
</defs>
</svg>
