<svg width="388" height="132" viewBox="0 0 388 132" fill="none" xmlns="http://www.w3.org/2000/svg">
<g clip-path="url(#clip0_14029_30)">
<path d="M0 59.6305L0.154014 58.8622L1.00109 58.5549C3.20349 57.7865 4.50491 56.3036 4.92075 54.1062L8.91742 32.8003C9.47957 29.9881 10.0186 27.1146 10.5269 24.1795C11.0351 21.2445 11.605 17.9868 12.2133 14.4063C12.5675 12.3088 11.7513 10.8796 9.75679 10.1113L8.98672 9.80398L9.14074 9.03564H25.8898C32.497 9.03564 37.2945 10.3034 40.2901 12.8312C43.2857 15.359 44.7796 18.6936 44.7796 22.8349C44.7796 25.8007 43.9248 28.5744 42.2076 31.1483C40.4903 33.7299 37.9029 35.7968 34.453 37.3565C30.9953 38.9162 26.6598 39.6922 21.4311 39.6922H18.0505C17.6423 41.736 17.2188 43.9949 16.7798 46.4766C16.3409 48.9583 15.8943 51.4478 15.4322 53.9525C15.0703 56.3036 15.9944 57.8634 18.1968 58.624L19.1208 58.8545L18.9668 59.6228H0V59.6305ZM18.3585 38.1709H21.2C25.0889 38.1709 28.2385 36.7802 30.6488 33.9912C33.0514 31.2098 34.2604 27.3604 34.2604 22.4585C34.2604 18.6245 33.4904 15.6894 31.9579 13.6457C30.4178 11.6019 28.2154 10.58 25.3507 10.58H23.5103C22.6863 15.1746 21.8469 19.777 20.9767 24.3793C20.1065 28.9816 19.2364 33.5763 18.3662 38.1786L18.3585 38.1709Z" fill="#9260CE"/>
<path d="M57.2317 60.7754C53.389 60.7754 50.2702 59.5231 47.8599 57.0183C45.4496 54.5135 44.2483 50.9638 44.2483 46.3615C44.2483 43.096 44.8104 39.9766 45.9347 37.0108C47.0591 34.045 48.6377 31.402 50.6553 29.0816C52.6806 26.7535 55.0216 24.9326 57.686 23.6034C60.3505 22.2742 63.2382 21.6134 66.3647 21.6134C69.4912 21.6134 72.0632 22.3433 73.7805 23.7955C75.4978 25.2553 76.3525 27.1838 76.3525 29.581C76.3525 31.571 75.4207 33.5379 73.5495 35.4818C71.6782 37.4257 69.0523 39.1698 65.6794 40.7296C62.2987 42.2893 58.3329 43.4802 53.7741 44.2946C53.828 47.8213 54.5903 50.4029 56.0766 52.0395C57.5628 53.676 59.6112 54.4905 62.2217 54.4905C64.4241 54.4905 66.4494 53.8912 68.2899 52.6926C70.1304 51.4939 71.6936 50.0725 72.9719 48.436L73.742 48.9738C72.7178 50.9638 71.401 52.8616 69.7838 54.6441C68.1667 56.4343 66.3108 57.9019 64.2162 59.0544C62.1139 60.2069 59.7883 60.7754 57.224 60.7754H57.2317ZM65.8334 23.6802C64.6552 23.6802 63.3845 24.195 62.0292 25.2169C60.6739 26.2388 59.3879 27.6294 58.1866 29.3966C56.9853 31.1561 55.9842 33.1768 55.191 35.4511C54.3978 37.7254 53.9204 40.1379 53.7664 42.6965C59.3956 41.1598 63.4076 39.1468 65.7872 36.642C68.1667 34.1372 69.3603 31.3021 69.3603 28.1366C69.3603 26.5999 69.0292 25.4781 68.3592 24.7636C67.6892 24.049 66.8499 23.6879 65.8257 23.6879L65.8334 23.6802ZM67.1348 17.4721C67.797 15.3745 68.467 13.2923 69.1293 11.2255C69.7915 9.15867 70.4615 7.12258 71.1238 5.13259C71.6859 3.29627 72.3944 1.97474 73.2337 1.18335C74.0808 0.391966 75.0357 -0.00756836 76.1138 -0.00756836C77.1919 -0.00756836 78.2392 0.361233 79.1094 1.10652C79.9796 1.84412 80.4185 2.80454 80.4185 3.98009C80.4185 4.94819 80.1105 5.85483 79.4944 6.7C78.8784 7.54517 78.0313 8.47485 76.9609 9.49674C75.4207 10.9796 73.9499 12.4318 72.5407 13.8686C71.1315 15.2977 69.6606 16.7345 68.1205 18.1636L67.1194 17.4721H67.1348Z" fill="#9260CE"/>
<path d="M82.1203 60.7753C80.4339 60.7753 79.0862 60.3373 78.0851 59.4691C77.084 58.6009 76.5835 57.3485 76.5835 55.7119C76.5835 54.7899 76.6836 53.6835 76.8915 52.3773C77.0994 51.0712 77.3998 49.4039 77.8156 47.3601L82.1973 26.2079C82.6054 24.264 82.952 22.5045 83.2369 20.9217C83.5141 19.3389 83.8376 17.5487 84.1995 15.5587C84.5537 13.515 83.7375 12.1396 81.743 11.4174L80.4338 10.9564L80.5879 10.1881L95.6427 5.89307L96.1048 6.4309L86.656 50.8868C86.502 51.6551 86.3711 52.3313 86.271 52.9152C86.1709 53.5068 86.117 53.9985 86.117 54.4134C86.117 55.5352 86.6021 56.0961 87.5801 56.0961C88.8584 56.0961 90.7297 54.9436 93.1862 52.6463L93.9563 53.2609C92.678 55.151 91.0608 56.8798 89.1202 58.4318C87.172 59.9916 84.8464 60.7676 82.128 60.7676L82.1203 60.7753Z" fill="#9260CE"/>
<path d="M105.623 60.3219L104.853 59.7073C104.391 54.0907 103.906 48.8584 103.39 44.0332C102.874 39.2081 102.366 34.4674 101.85 29.819C101.75 28.6435 101.518 27.8905 101.157 27.5601C100.795 27.2297 100.386 27.0607 99.9244 27.0607C99.0004 27.0607 97.722 28.0288 96.0818 29.9727L95.1577 29.0507C96.952 26.5997 98.6769 24.748 100.34 23.4956C102.004 22.2432 103.705 21.6209 105.446 21.6209C109.027 21.6209 111.052 23.995 111.514 28.751C111.822 32.3776 112.138 36.2884 112.477 40.4758C112.808 44.6633 113.131 49.135 113.439 53.891C115.387 51.5399 117.213 49.281 118.93 47.1066C120.647 44.9322 122.272 42.6733 123.804 40.3222C124.675 38.9929 125.16 37.7021 125.26 36.4498C125.36 35.1974 125.129 33.8605 124.567 32.4237L123.258 28.8202C122.588 26.8302 122.703 25.0938 123.604 23.6109C124.497 22.128 125.822 21.3904 127.562 21.3904C129.303 21.3904 130.619 21.9282 131.366 22.9962C132.106 24.0719 132.483 25.3473 132.483 26.8302C132.483 27.8521 132.214 29.1045 131.674 30.5874C131.135 32.0702 130.127 34.0602 128.64 36.565C126.646 39.8842 124.082 43.5876 120.955 47.6751C117.829 51.7627 114.294 55.7964 110.351 59.7841L105.592 60.3219H105.623Z" fill="#9260CE"/>
<path d="M138.582 60.7753C136.996 60.7753 135.686 60.3681 134.662 59.546C133.638 58.7316 133.122 57.5253 133.122 55.9425C133.122 55.0205 133.222 53.9218 133.43 52.6463C133.638 51.3709 133.861 50.0878 134.123 48.8123L137.735 31.5709C138.197 29.4733 137.45 27.9981 135.509 27.1222L134.277 26.5076L134.354 25.6624L148.793 21.5211L149.563 22.2126L143.572 49.9572C143.364 50.8792 143.21 51.6552 143.11 52.2929C143.01 52.9306 142.956 53.5607 142.956 54.1676C142.956 55.2894 143.464 55.8503 144.496 55.8503C145.266 55.8503 146.036 55.6044 146.799 55.1204C147.569 54.6363 148.539 53.8296 149.717 52.7078L150.41 53.3993C149.132 55.2894 147.499 56.9874 145.536 58.4934C143.564 59.9993 141.246 60.7523 138.582 60.7523V60.7753ZM145.72 17.3183C144.288 17.3183 143.041 16.8496 141.993 15.8969C140.946 14.9518 140.422 13.6841 140.422 12.1013C140.422 10.3111 141.046 8.84354 142.301 7.69104C143.557 6.53854 144.973 5.96997 146.568 5.96997C148.162 5.96997 149.355 6.45402 150.333 7.42981C151.303 8.39791 151.796 9.6503 151.796 11.187C151.796 12.9234 151.18 14.3832 149.956 15.5588C148.724 16.7343 147.314 17.3183 145.728 17.3183H145.72Z" fill="#9260CE"/>
<path d="M162.546 60.7752C159.32 60.7752 156.709 60.1375 154.715 58.862C152.72 57.5866 151.719 55.7733 151.719 53.4222C151.719 52.1929 152.15 51.1249 153.028 50.2029C153.899 49.2809 155.023 48.8199 156.409 48.8199C158.973 48.8199 160.56 50.3796 161.176 53.4914L161.638 55.635C161.892 56.7107 162.215 57.5789 162.6 58.2397C162.985 58.9081 163.74 59.2385 164.864 59.2385C166.143 59.2385 167.267 58.7007 168.245 57.6327C169.215 56.557 169.708 55.0818 169.708 53.184C169.708 51.7549 169.261 50.3719 168.36 49.0427C167.467 47.7135 165.966 46.2613 163.871 44.6709C161.769 43.0343 160.082 41.3363 158.804 39.5768C157.526 37.8173 156.886 35.7044 156.886 33.2534C156.886 31.1098 157.433 29.1505 158.534 27.391C159.636 25.6315 161.237 24.2255 163.34 23.1729C165.442 22.1279 167.922 21.6055 170.794 21.6055C174.121 21.6055 176.747 22.2739 178.664 23.5955C180.581 24.9247 181.544 26.6381 181.544 28.7279C181.544 29.8497 181.213 30.7871 180.543 31.5247C179.873 32.2623 178.88 32.6388 177.547 32.6388C175.091 32.6388 173.428 31.1559 172.557 28.1901L171.787 26.0464C171.533 25.0246 171.225 24.31 170.863 23.9028C170.501 23.4956 169.939 23.2881 169.177 23.2881C168.36 23.2881 167.513 23.7338 166.643 24.6327C165.773 25.524 165.334 26.9454 165.334 28.8893C165.334 30.7256 165.881 32.4006 166.982 33.9065C168.083 35.4125 169.731 36.9875 171.934 38.6164C174.19 40.2991 175.838 41.9356 176.885 43.5184C177.932 45.1012 178.456 47.022 178.456 49.2655C178.456 51.3631 177.84 53.2762 176.616 55.0127C175.384 56.7491 173.597 58.1398 171.241 59.1924C168.884 60.2374 165.989 60.7598 162.562 60.7598L162.546 60.7752Z" fill="#9260CE"/>
<path d="M44.4023 130.617L44.6334 129.849L47.3979 129.08C49.4463 128.519 50.9325 127.267 51.8566 125.323L75.2129 80.0298H81.435L88.6583 125.246C88.8585 127.037 89.8365 128.312 91.5769 129.08L93.5713 129.849L93.4173 130.617H74.1348L74.3658 129.849L76.0599 129.234C77.8542 128.573 78.5935 127.344 78.2854 125.554L76.522 113.214H60.158L53.7048 125.63C53.2967 126.453 53.2197 127.167 53.4738 127.774C53.7279 128.389 54.2669 128.819 55.0832 129.08L57.4627 129.849L57.3087 130.617H44.4023ZM72.972 88.3893L60.9127 111.693H76.2756L72.972 88.3893Z" fill="#9260CE"/>
<path d="M120.601 132C115.788 132 111.614 131.116 108.079 129.357C104.545 127.597 101.819 125.039 99.9013 121.689C97.9838 118.339 97.0212 114.29 97.0212 109.542C97.0212 105.3 97.7528 101.313 99.2082 97.5863C100.671 93.8599 102.743 90.5714 105.43 87.7363C108.118 84.9011 111.291 82.6806 114.956 81.0671C118.614 79.4613 122.649 78.6545 127.054 78.6545C129.665 78.6545 132.136 78.9388 134.47 79.4997C136.803 80.0606 139.167 81.0056 141.578 82.3349L139.737 94.1365H138.967L136.356 86.0152C135.686 83.8177 134.655 82.2964 133.245 81.4513C131.836 80.6061 129.98 80.1835 127.678 80.1835C123.735 80.1835 120.293 81.4205 117.343 83.9023C114.394 86.384 112.107 89.8338 110.467 94.2517C108.826 98.6697 108.01 103.794 108.01 109.618C108.01 116.003 109.25 121.074 111.737 124.831C114.225 128.589 117.767 130.463 122.38 130.463C124.374 130.463 125.999 130.079 127.254 129.311C128.509 128.543 129.626 127.367 130.596 125.784L136.279 116.587H137.05L135.209 128.235C133.215 129.357 131.074 130.264 128.794 130.955C126.515 131.647 123.789 131.992 120.616 131.992L120.601 132Z" fill="#9260CE"/>
<path d="M135.733 130.617L135.964 129.849L138.728 129.08C140.777 128.519 142.263 127.267 143.187 125.323L166.543 80.0298H172.765L179.989 125.246C180.189 127.037 181.167 128.312 182.907 129.08L184.902 129.849L184.748 130.617H165.465L165.696 129.849L167.39 129.234C169.185 128.573 169.924 127.344 169.616 125.554L167.852 113.214H151.488L145.035 125.63C144.627 126.453 144.55 127.167 144.804 127.774C145.058 128.389 145.597 128.819 146.414 129.08L148.793 129.849L148.639 130.617H135.733ZM164.31 88.3893L152.251 111.693H167.614L164.31 88.3893Z" fill="#9260CE"/>
<path d="M186.357 130.617L186.588 129.849L187.82 129.311C188.844 128.85 189.638 128.289 190.2 127.628C190.762 126.967 191.147 126.068 191.355 124.947L195.351 103.794C195.86 101.09 196.399 98.1241 196.961 94.9048C197.523 91.6854 198.062 88.5967 198.57 85.6309C198.878 83.641 198.162 82.2119 196.422 81.336L195.421 80.7981L195.575 80.0298H212.855C218.184 80.0298 222.635 80.9518 226.224 82.7881C229.804 84.6244 232.5 87.1599 234.286 90.3793C236.081 93.5986 236.974 97.2482 236.974 101.336C236.974 105.93 236.15 110.049 234.517 113.675C232.877 117.302 230.636 120.367 227.795 122.872C224.953 125.377 221.672 127.29 217.961 128.619C214.249 129.949 210.291 130.609 206.094 130.609H186.349L186.357 130.617ZM201.181 129.08H205.101C209.505 129.08 213.24 127.851 216.313 125.4C219.385 122.949 221.757 119.576 223.421 115.281C225.084 110.986 225.916 106.107 225.916 100.644C225.916 94.3055 224.737 89.5956 222.381 86.5068C220.025 83.4181 216.567 81.7662 212.008 81.5665H209.937L205.093 106.783C204.423 110.517 203.745 114.244 203.06 117.97C202.367 121.697 201.743 125.408 201.181 129.08Z" fill="#9260CE"/>
<path d="M234.217 130.617L234.371 129.849L235.826 129.388C237.667 128.673 238.745 127.398 239.053 125.554L243.204 103.787C243.712 101.082 244.251 98.0781 244.813 94.7819C245.375 91.4858 245.914 88.3587 246.423 85.3929C246.777 83.3491 245.984 81.9431 244.043 81.1747L243.273 80.7906L243.427 80.0222H278.072L276.155 93.3605H275.385L273.845 86.3072C273.483 84.6706 272.844 83.472 271.927 82.7037C271.003 81.9354 269.648 81.5512 267.854 81.5512H257.789L253.561 103.779H260.63C262.933 103.779 264.673 102.857 265.851 101.021L268.385 97.1868H269.155L266.39 111.824H265.62L264.696 108.758C264.026 106.461 262.494 105.308 260.084 105.308H253.245C252.575 109.042 251.859 112.976 251.097 117.11C250.327 121.251 249.634 125.231 249.025 129.065H261.393C262.979 129.065 264.334 128.742 265.466 128.105C266.591 127.467 267.692 126.384 268.77 124.847L273.914 117.256H274.684L271.612 130.594H234.202L234.217 130.617Z" fill="#9260CE"/>
<path d="M274.16 130.617L274.314 129.849L276.078 129.388C278.434 128.727 279.813 127.244 280.229 124.939L287.452 86.3839L287.221 85.5387C287.167 83.7024 286.351 82.2426 284.764 81.1669L284.225 80.7827L284.379 80.0144H297.44L307.273 117.878L329.937 80.0144H343.459L343.305 80.7827L341.765 81.4742C339.924 82.2426 338.816 83.6717 338.461 85.7692L334.696 106.768C334.133 109.834 333.571 112.922 333.009 116.042C332.447 119.161 331.908 122.273 331.4 125.392C331.038 127.536 331.939 128.942 334.087 129.61L334.703 129.841L334.549 130.609H316.191L316.345 129.841L317.115 129.61C319.263 128.95 320.519 127.513 320.881 125.315L327.642 88.6044L302.522 130.609H299.681L288.923 88.7581L282.315 124.778C281.853 127.129 282.778 128.688 285.08 129.449L286.466 129.833L286.312 130.602H274.176L274.16 130.617Z" fill="#9260CE"/>
<path d="M348.441 130.617L348.595 129.849L350.513 129.157C352.507 128.496 353.686 127.137 354.048 125.093L356.889 110.149L348.441 84.7782C347.926 83.0418 346.801 81.8432 345.061 81.1747L344.214 80.7906L344.368 80.0222H363.65L363.496 80.7906L361.81 81.3284C360.17 81.8432 359.584 82.9342 360.046 84.6245L366.577 106.699L380.176 84.4709C381.1 82.8881 380.684 81.8124 378.944 81.2516L377.404 80.7906L377.558 80.0222H388.008L387.854 80.7906L386.391 81.3284C385.42 81.6357 384.596 82.0429 383.934 82.5577C383.272 83.0725 382.656 83.7871 382.094 84.7014L367.578 108.612C367.17 110.963 366.684 113.668 366.115 116.733C365.552 119.799 365.036 122.665 364.574 125.316C364.266 127.206 365.006 128.512 366.8 129.226L368.563 129.841L368.409 130.609H348.434L348.441 130.617Z" fill="#9260CE"/>
</g>
<defs>
<clipPath id="clip0_14029_30">
<rect width="388" height="132" fill="white"/>
</clipPath>
</defs>
</svg>
