<svg width="148" height="144" viewBox="0 0 148 144" fill="none" xmlns="http://www.w3.org/2000/svg">
<g clip-path="url(#clip0_14029_187)">
<path d="M140.049 71.9857C140.049 33.8028 109.334 2.88184 71.4689 2.88184C33.6038 2.88184 2.85986 33.8316 2.85986 71.9857C2.85986 110.14 33.5752 141.09 71.4403 141.09C91.4311 141.09 109.448 132.473 121.975 118.699C124.577 115.846 145.111 119.736 145.111 119.736C145.111 119.736 133.071 102.59 134.644 98.8722C138.105 90.6017 140.049 81.5242 140.049 71.9569V71.9857Z" fill="#FFFAC3"/>
<path d="M71.4404 144C32.0595 144 0 111.696 0 71.9856C0 32.2754 32.0595 0 71.4404 0C110.821 0 142.881 32.3042 142.881 71.9856C142.881 81.6394 141.022 90.9762 137.361 99.8231C137.418 102.244 142.566 111.148 147.457 118.093C148.143 119.044 148.172 120.341 147.542 121.321C146.913 122.301 145.769 122.819 144.597 122.589C136.303 121.004 126.15 119.966 123.92 120.86C110.421 135.557 91.3167 144 71.4404 144ZM71.4404 5.76346C35.2054 5.76346 5.71981 35.4741 5.71981 71.9856C5.71981 108.497 35.2054 138.208 71.4404 138.208C89.801 138.208 107.447 130.398 119.887 116.739C121.918 114.491 128.324 114.174 138.991 115.759C133.157 106.682 130.812 100.63 132.013 97.7482C135.445 89.5929 137.19 80.9189 137.19 71.9568C137.19 35.4453 107.704 5.73464 71.469 5.73464L71.4404 5.76346Z" fill="#B1D686"/>
<path d="M31.802 131.551C31.7448 126.825 34.3187 123.597 36.8068 120.456C39.009 117.69 41.0967 115.067 41.2397 111.523C41.4685 106.566 36.4636 102.618 32.2024 100.197C31.7734 99.9381 31.2872 99.7076 30.7724 99.477C28.7991 98.5261 26.3396 97.3157 25.5388 94.5493C24.8238 92.071 25.024 88.1518 30.0289 83.5987L30.515 83.1376L31.1728 83.2241C32.66 83.397 34.1471 83.5123 35.6057 83.5123C37.865 83.5123 40.0957 83.2817 42.2406 82.8495C45.6725 82.1579 48.99 80.717 52.2217 79.3626C53.3943 78.8727 54.5954 78.354 55.768 77.8929L58.3705 76.8555L57.7127 79.5931C56.9119 82.9647 57.7413 86.1635 60.0292 88.3824L60.5726 88.9011L60.4582 89.6503C60.2008 91.4658 60.3724 93.3966 60.9444 95.5291C61.0016 95.702 61.116 96.019 61.2304 96.3071C61.545 97.114 61.7452 97.6327 61.7738 98.1226C61.8024 99.1024 60.258 102.849 60.2294 102.877C58.5135 106.854 55.7394 109.563 53.0511 112.157C51.3923 113.77 49.6478 115.442 48.2464 117.401C47.5029 118.439 46.8165 119.505 46.1587 120.542C44.643 122.906 43.0986 125.355 40.5819 127.545C39.7239 128.294 38.723 128.928 37.7506 129.562C36.6638 130.254 35.6343 130.917 34.9193 131.637C34.9193 131.637 34.8335 131.752 34.8049 131.81C34.6619 132.069 34.4331 132.444 34.0327 132.732L31.7448 134.432V131.58L31.802 131.551Z" fill="#B1D686"/>
<path d="M56.3401 79.2187C55.4535 82.9362 56.3115 86.74 59.0856 89.4201C58.771 91.6102 59.0284 93.7715 59.6289 95.9039C59.8005 96.5091 60.4011 97.7194 60.4297 98.1805C60.4297 98.6128 59.2572 101.667 58.9998 102.273C56.3401 108.439 50.9348 111.321 47.1884 116.537C44.6431 120.053 43.1273 123.482 39.7526 126.421C38.0367 127.92 35.52 129.044 34.0042 130.571C33.7182 130.888 33.6038 131.292 33.2892 131.522C33.1748 123.309 42.3551 119.765 42.7269 111.581C42.9843 105.759 37.4361 101.466 32.946 98.9009C30.7725 97.6618 27.7696 96.8549 26.9689 94.0885C25.8821 90.3422 28.456 86.9994 31.0299 84.6364C32.5457 84.8381 34.09 84.9245 35.6344 84.9245C37.9509 84.9245 40.2674 84.694 42.5553 84.2329C47.36 83.2531 51.7928 80.9766 56.3401 79.1899M60.4869 74.4351L55.2819 76.5099C54.0807 76.9998 52.851 77.5185 51.6784 78.0084C48.3609 79.4204 45.2436 80.746 41.9833 81.4088C39.9242 81.8123 37.8079 82.0428 35.6344 82.0428C34.233 82.0428 32.8031 81.9564 31.3731 81.7835L30.0575 81.6106L29.0566 82.5039C23.4798 87.5757 23.3082 92.0712 24.1375 94.953C25.1385 98.3534 28.027 99.7655 30.1433 100.803C30.6295 101.033 31.0871 101.264 31.4875 101.494C35.377 103.713 39.9814 107.258 39.7812 111.494C39.6382 114.549 37.8079 116.883 35.663 119.592C33.1462 122.762 30.2863 126.393 30.3435 131.609L30.4007 137.314L34.948 133.943C35.5772 133.482 35.9203 132.905 36.0919 132.588C36.6925 132.012 37.6077 131.407 38.5515 130.802C39.5524 130.168 40.6106 129.476 41.5544 128.669C44.2141 126.335 45.8442 123.799 47.4172 121.35C48.0463 120.341 48.7327 119.304 49.4477 118.295C50.7918 116.451 52.3934 114.866 54.0807 113.223C56.8548 110.514 59.7433 107.719 61.5737 103.483C61.7453 103.108 62.1171 102.128 62.4603 101.206C63.1752 99.2756 63.261 98.6992 63.2324 98.0941C63.2038 97.316 62.9178 96.5956 62.5746 95.7887C62.4888 95.587 62.3745 95.27 62.3173 95.1547C61.7739 93.2239 61.6309 91.4949 61.8597 89.8811L62.0599 88.3826L60.9731 87.3452C59.057 85.5009 58.3706 82.8209 59.057 79.968L60.3725 74.4927L60.4869 74.4351Z" fill="#0A3536"/>
<path d="M56.3972 79.2476C55.6822 80.4867 54.9958 81.7835 53.9948 82.8209C51.9643 84.9246 49.2474 86.1637 46.5019 87.0282C43.785 87.8928 40.9537 88.4115 38.2654 89.276C36.9212 89.7083 35.6057 90.1981 34.2901 90.7169C31.8306 91.7255 28.9993 93.1951 27.8553 95.7311L27.7695 95.7022C28.0555 94.2614 29.0851 93.0222 30.1719 92.0713C32.4026 90.1405 35.2053 89.1031 37.9794 88.2962C43.3846 86.8265 49.4762 86.5384 53.7661 82.5904C54.8242 81.6394 55.5392 80.3715 56.3114 79.1899L56.3972 79.2476Z" fill="#7CB770"/>
<path d="M56.3114 79.7085C55.7394 82.3309 54.195 84.5786 52.6507 86.7111C51.4781 88.3249 50.134 89.881 48.4466 90.9761C46.7593 92.0711 44.7573 92.6186 42.927 93.2526C41.7258 93.6849 40.4961 94.146 39.3235 94.6647C38.151 95.1834 37.0356 95.7885 35.9488 96.509C34.8907 97.2294 33.8897 98.0651 32.9173 98.9584L32.8315 98.9008C35.0909 95.5292 38.7801 93.3967 42.5838 92.3016C45.0719 91.61 47.6172 91.0049 49.562 89.247C51.4781 87.5468 53.0797 85.3855 54.5096 83.253C55.196 82.158 55.7966 80.9765 56.1398 79.7085H56.2256H56.3114Z" fill="#7CB770"/>
<path d="M56.5689 80.3716C54.8815 83.9161 55.2247 87.9794 53.8806 91.6392C52.994 94.1174 51.5641 96.5093 49.4477 98.123C48.647 98.6994 47.7318 99.1317 46.8738 99.5639C45.4725 100.284 44.0139 101.005 42.6412 101.754C41.5544 102.359 40.4104 102.964 39.6669 104.002L39.5811 103.944C40.0958 102.705 41.2112 101.869 42.2694 101.12C43.3275 100.371 44.4429 99.708 45.5583 99.074C46.6164 98.44 47.8748 97.9213 48.8757 97.2585C52.0216 95.1261 53.5946 91.351 54.3096 87.72C54.8529 85.2129 55.2247 82.5905 56.4831 80.314L56.5689 80.3716Z" fill="#7CB770"/>
<path d="M56.5401 81.2071C55.3961 84.838 56.2255 88.6419 56.0253 92.3594C55.7393 96.9125 53.8518 101.35 51.0777 104.924C49.6477 106.739 47.3312 107.604 45.5581 108.872C44.3569 109.707 43.4131 110.86 42.641 112.099L42.5552 112.042C43.0986 110.63 43.9565 109.304 45.1291 108.295C45.7011 107.777 46.3302 107.344 46.9594 106.912C48.1892 106.134 49.3617 105.327 50.2769 104.203C50.7345 103.656 51.1635 103.051 51.5925 102.445C53.2512 100.025 54.5096 97.3159 55.1388 94.4342C55.9395 90.8032 55.2531 86.9705 55.8823 83.2819C56.0253 82.5327 56.1969 81.8122 56.4543 81.0918H56.5401V81.2071Z" fill="#7CB770"/>
<path d="M42.3267 89.9387C46.1876 85.2991 53.1944 92.3882 48.1323 96.2785C44.2429 99.2467 39.0665 93.829 42.3267 89.9387Z" fill="#0A3536"/>
<path d="M47.7031 90.6305C47.5887 90.4288 47.1311 90.3135 46.9309 90.2559C46.1588 90.0254 45.3866 90.0254 44.7002 90.4864C44.0138 90.9475 43.5849 91.7832 43.5849 92.6189C43.5849 93.8004 44.5 94.8667 45.6726 94.9531C47.1597 95.0684 48.4753 93.714 48.6469 92.2731C49.4763 95.8465 44.9862 97.4602 42.9843 94.4632C42.4695 93.6852 42.2693 92.4748 42.6125 91.5815C43.6707 88.815 46.5878 88.815 47.7317 90.6305H47.7031Z" fill="#F5DF8F"/>
<g style="mix-blend-mode:multiply" opacity="0.5">
<path d="M59.6006 95.8752C59.0286 93.7427 58.7712 91.6102 59.0572 89.3913C58.1992 88.5556 57.5128 87.6046 56.998 86.596C56.9408 86.4807 56.8836 86.3366 56.8264 86.2214C56.8264 86.1926 56.7978 86.1637 56.7692 86.1061C56.7121 85.9908 56.6835 85.9044 56.6549 85.7891C56.6549 85.7603 56.6549 85.7315 56.6263 85.7027C56.5691 85.5586 56.5405 85.4433 56.4833 85.2992V85.2416C56.4547 85.1263 56.4261 85.011 56.3689 84.8958C56.3689 84.867 56.3689 84.8093 56.3403 84.7805C56.3117 84.6652 56.2831 84.55 56.2545 84.4347C56.2545 84.4347 56.2545 84.4059 56.2545 84.3771C56.2259 84.233 56.1973 84.1177 56.1687 83.9736C56.1687 83.9448 56.1687 83.916 56.1687 83.8872C56.1687 83.7719 56.1401 83.6566 56.1115 83.5702C56.1115 83.5414 56.1115 83.4837 56.1115 83.4549C56.1115 83.3108 56.0829 83.1667 56.0543 83.0227C56.0543 82.8786 56.0543 82.7345 56.0257 82.5904C56.0257 82.5616 56.0257 82.5039 56.0257 82.4751C56.0257 82.3599 56.0257 82.2446 56.0257 82.1293C56.0257 82.1005 56.0257 82.0717 56.0257 82.014C56.0257 81.87 56.0257 81.7259 56.0257 81.5818C56.0257 81.5818 56.0257 81.5242 56.0257 81.4953C56.0257 81.3801 56.0257 81.2648 56.0257 81.1495C56.0257 81.1207 56.0257 81.0631 56.0257 81.0343C56.0257 80.919 56.0257 80.8037 56.0543 80.6885C56.0543 80.6885 56.0543 80.6308 56.0543 80.602C56.0543 80.4579 56.0829 80.3138 56.1115 80.1697C56.1115 80.1409 56.1115 80.0833 56.1115 80.0545C56.1115 79.9392 56.1401 79.8239 56.1687 79.7087C56.1687 79.6798 56.1687 79.6222 56.1687 79.5934C56.1973 79.4493 56.2259 79.3052 56.2545 79.1611C55.9113 79.3052 55.5967 79.4205 55.2535 79.5646C55.1105 79.6222 54.9675 79.6798 54.8531 79.7375C54.6815 79.8239 54.5099 79.8816 54.3383 79.968C53.8807 80.1697 53.3946 80.3715 52.937 80.5732C52.5652 80.7173 52.222 80.8902 51.8502 81.0343C48.8187 82.331 45.7586 83.5702 42.5269 84.233C38.7519 85.011 34.8338 85.0975 31.0015 84.6364C30.5153 85.0975 30.0006 85.5874 29.543 86.1061C30.5153 86.3366 31.5163 86.5384 32.4887 86.7113C35.892 87.0283 39.3524 86.9706 42.7557 86.8553C45.4154 86.7689 48.1037 86.6248 50.7635 86.3943C52.0504 86.0773 53.3088 85.7027 54.5385 85.2704C54.7959 86.1637 55.0533 87.0571 55.2821 87.9792C56.2831 91.6967 57.2554 95.4429 58.571 99.0451C58.7998 99.5061 59.0572 99.9672 59.3146 100.428C59.4004 100.515 59.4576 100.601 59.5434 100.659C59.9437 99.6214 60.3441 98.4111 60.3441 98.1517C60.3441 97.6907 59.7149 96.4803 59.5434 95.8752H59.6006Z" fill="#B1D686"/>
</g>
<path d="M35.0052 85.3278C26.8545 85.3278 20.5055 82.4173 16.6733 76.9132C14.4425 73.7145 13.7276 70.2852 13.0698 67C12.6408 64.9252 12.2404 62.9656 11.4968 61.006C10.8677 59.3634 9.78089 57.6344 8.66553 55.8189C6.5206 52.3032 4.28988 48.701 4.51867 44.8684C4.74746 41.3526 9.98108 40.0847 11.5826 39.7965C12.984 39.5372 14.4997 39.3931 16.0441 39.3931C27.8841 39.3931 40.3533 47.1449 45.1579 50.4877C48.4468 52.7643 52.5079 55.9918 57.5413 60.3432C58.5136 61.0349 69.3813 68.9308 73.3279 72.9364L75.5587 75.213L72.4128 75.4435C72.4128 75.4435 66.836 75.8469 60.6872 77.7777L60.1152 78.0082C59.2572 78.3829 58.1705 78.8439 57.0265 79.3338C53.566 80.8323 49.2476 82.7343 46.5307 83.5412C42.6698 84.6938 38.6945 85.3278 35.0052 85.3278Z" fill="#B1D686"/>
<path d="M16.0727 40.8627C25.8535 40.8627 36.8928 46.5109 44.3857 51.698C48.3896 54.4645 53.0226 58.326 56.6833 61.5247C56.6833 61.5247 68.3231 69.9394 72.327 74.0026C72.327 74.0026 66.2354 74.4349 59.5432 76.625C59.5432 76.625 59.5718 76.6538 59.6004 76.6826C56.1971 78.1235 49.7051 81.1205 46.1589 82.1867C42.6984 83.2241 38.8375 83.9157 35.0338 83.9157C28.3703 83.9157 21.8783 81.8409 17.8744 76.1351C14.4711 71.265 14.9287 65.8185 12.841 60.5449C10.9248 55.6172 5.63402 50.2283 5.97721 45.0412C6.12021 42.7935 10.0097 41.6696 11.8686 41.295C13.2414 41.0356 14.6427 40.9203 16.0727 40.9203M16.0727 37.9522C14.4425 37.9522 12.841 38.0963 11.3252 38.3844C8.95151 38.8455 3.3747 40.3728 3.08871 44.8107C2.80272 49.0756 5.26224 53.0812 7.43576 56.6258C8.52252 58.4124 9.55209 60.0838 10.1527 61.5823C10.8676 63.3978 11.2394 65.2998 11.6684 67.317C12.3548 70.7751 13.0984 74.3196 15.5007 77.7777C19.619 83.6852 26.3683 86.7975 35.0338 86.7975C38.8661 86.7975 42.9844 86.1635 46.9882 84.9532C49.8195 84.0886 54.1666 82.1867 57.6557 80.6594C58.7996 80.1695 59.8578 79.6796 60.7158 79.3338L61.2305 79.1033C67.1791 77.259 72.47 76.8555 72.5272 76.8555L78.8189 76.3944L74.3861 71.8701C70.4394 67.8357 59.7434 60.055 58.485 59.1617C53.4516 54.7815 49.3619 51.5539 46.0159 49.2485C41.0968 45.8481 28.3131 37.8945 16.0727 37.8945V37.9522Z" fill="#0A3536"/>
<path d="M71.4404 73.8587C65.4632 72.5619 59.6862 70.343 54.3382 67.3172C42.4982 60.5739 32.9747 49.3928 19.4188 46.1653C18.7896 45.9924 17.8459 45.8195 17.2167 45.7042L16.1013 45.5313C15.8153 45.4737 15.2719 45.416 14.986 45.416C13.8992 45.3008 12.698 45.2719 11.6113 45.3296C11.3253 45.3296 10.7819 45.3296 10.4673 45.3872C8.95156 45.5025 7.46441 45.8195 6.00586 46.2229V46.1365C7.37861 45.5889 8.92296 45.1567 10.4101 44.9261C18.0747 43.8311 25.968 46.5399 32.3742 50.6896C34.9481 52.361 37.4076 54.2053 39.8385 56.0784C50.4488 64.6372 58.2277 70.3142 71.469 73.8299L71.4404 73.8587Z" fill="#7CB770"/>
<path d="M70.9256 73.9736C58.9426 74.3194 48.3609 67.7202 37.8651 62.7924C30.8583 59.5649 23.394 56.7696 15.5865 56.9425C14.2995 56.9425 13.0125 57.0866 11.7256 57.2883V57.2019C14.2423 56.5103 16.8734 56.2797 19.5045 56.395C32.8603 56.9713 43.7565 65.8471 55.7967 70.6019C59.4002 72.0428 63.1752 73.1955 67.0361 73.6566C68.3231 73.8006 69.61 73.8871 70.9256 73.8871V74.0024V73.9736Z" fill="#7CB770"/>
<path d="M68.8953 72.6194C64.4624 73.9162 59.8008 73.4551 55.2822 72.8788C50.7635 72.3024 46.2163 71.6396 41.8406 70.3428C35.32 68.4121 28.5421 67.6052 21.7641 67.7205C19.5048 67.7493 17.2454 67.8646 14.9575 68.0663V67.951C17.1882 67.4899 19.4476 67.1729 21.7355 67C26.3113 66.6542 30.9444 66.856 35.4344 67.7781C37.6652 68.2392 39.8959 68.902 42.0694 69.5648C46.4165 70.948 50.8779 71.6973 55.368 72.3889C57.5987 72.7347 59.858 73.0805 62.1173 73.1669C64.3766 73.2534 66.6646 73.1093 68.8667 72.5618V72.6482L68.8953 72.6194Z" fill="#7CB770"/>
<path d="M69.6102 73.4839C67.4938 74.0314 65.2631 73.8297 63.0896 73.8874C60.9161 73.9738 58.8283 74.6654 56.7692 75.2706C53.6233 76.1927 50.4488 77.3166 47.1313 77.3742C39.4668 77.3742 32.0882 74.7519 24.4523 74.9824C22.3074 75.0689 20.1624 75.3859 18.0747 76.0775V75.991C20.0194 75.0401 22.193 74.5213 24.3951 74.2908C31.0015 73.5704 37.4077 75.674 43.8996 76.4233C46.0446 76.6826 48.1609 76.7979 50.3058 76.3656C54.0523 75.7028 57.6558 74.262 61.4308 73.7145C63.061 73.4839 64.7197 73.6568 66.3499 73.6856C67.4366 73.6856 68.5234 73.628 69.5816 73.3975V73.4839H69.6102Z" fill="#7CB770"/>
<path d="M36.1204 55.329C36.6924 53.5135 38.4942 52.8507 40.1815 52.5913C42.2692 52.2455 44.4142 52.3608 46.4733 52.4184C46.5877 52.4184 46.7307 52.4184 46.8165 52.3608C47.5029 51.9285 45.0719 50.7182 44.7287 50.603C43.8136 50.3436 42.8698 50.3148 41.926 50.4012C38.5228 50.6318 35.8916 50.603 33.0317 52.4761L36.0632 55.329H36.1204Z" fill="#0A3536"/>
<path d="M39.3809 61.1212C33.4895 65.0115 27.4551 55.8476 33.7183 52.0437C39.0092 48.8162 45.0436 57.3749 39.3809 61.1212Z" fill="#0A3536"/>
<path d="M39.3807 54.3491C39.2377 54.0898 38.7229 53.9169 38.4656 53.8016C37.5504 53.427 36.578 53.3405 35.6914 53.8016C34.7763 54.2915 34.1757 55.3001 34.0899 56.3087C33.9469 57.7496 34.9479 59.1616 36.4064 59.3921C38.2368 59.6803 40.0099 58.153 40.3531 56.424C41.0109 60.8906 35.2911 62.3891 33.1461 58.4988C32.5742 57.4902 32.4884 55.9629 33.0031 54.8966C34.5761 51.6115 38.1796 51.9285 39.3807 54.2915V54.3491Z" fill="#F5DF8F"/>
<g style="mix-blend-mode:multiply" opacity="0.5">
<path d="M56.6545 61.4957C56.6545 61.4957 56.4543 61.3228 56.34 61.2363C56.197 61.4669 56.0254 61.6974 55.8252 61.8991C55.7108 62.072 55.625 62.2449 55.5392 62.4178C55.4248 62.7636 55.339 63.1383 55.2532 63.4841C55.196 64.3486 55.2532 65.2131 55.3104 66.1065C55.8538 69.2475 56.8833 72.3022 58.0845 75.2415C58.3419 75.8179 58.5707 76.3942 58.8281 76.9706C59.0855 76.8553 59.3428 76.74 59.5716 76.6536C59.5716 76.6536 59.543 76.6248 59.5144 76.5959C66.2066 74.4058 72.2982 73.9736 72.2982 73.9736C68.3229 69.9103 56.6545 61.4957 56.6545 61.4957Z" fill="#B1D686"/>
</g>
<path d="M108.791 132.703C108.39 132.415 108.162 132.041 108.019 131.781C107.99 131.724 107.933 131.608 107.904 131.58C107.189 130.859 106.16 130.196 105.073 129.505C104.101 128.871 103.1 128.237 102.242 127.487C99.7249 125.297 98.1805 122.848 96.6648 120.485C96.007 119.447 95.3206 118.41 94.577 117.344C93.1471 115.384 91.4311 113.713 89.7724 112.099C87.0841 109.505 84.3386 106.797 82.594 102.82C82.594 102.791 81.0211 99.0448 81.0497 98.065C81.0497 97.5751 81.2785 97.0564 81.5931 96.2495C81.7075 95.9614 81.8505 95.6155 81.8791 95.4715C82.4797 93.339 82.6226 91.4082 82.3653 89.5927L82.2509 88.8435L82.7942 88.3248C85.0822 86.1058 85.9401 82.9071 85.1108 79.5355L84.453 76.7979L87.0555 77.8353C88.2567 78.2964 89.4578 78.8151 90.6018 79.305C93.8335 80.6882 97.151 82.1002 100.583 82.7918C102.728 83.2241 104.958 83.4546 107.218 83.4546C108.676 83.4546 110.192 83.3682 111.651 83.1665L112.308 83.08L112.795 83.5411C117.828 88.0942 118 92.0134 117.285 94.4917C116.484 97.2581 114.024 98.4685 112.051 99.4194C111.536 99.6788 111.05 99.9093 110.621 100.14C106.36 102.561 101.355 106.508 101.584 111.465C101.755 115.01 103.815 117.632 106.017 120.398C108.505 123.539 111.079 126.767 111.021 131.493V134.346L108.705 132.646L108.791 132.703Z" fill="#B1D686"/>
<path d="M86.5695 79.2183C91.1167 81.0049 95.5496 83.2815 100.354 84.2613C102.614 84.7224 104.959 84.9529 107.275 84.9529C108.82 84.9529 110.364 84.8665 111.88 84.6647C114.454 87.0278 117.027 90.3994 115.941 94.1168C115.14 96.8833 112.137 97.6902 109.963 98.9293C105.473 101.494 99.9252 105.788 100.183 111.609C100.554 119.793 109.706 123.338 109.62 131.55C109.306 131.32 109.191 130.888 108.905 130.599C107.39 129.072 104.873 127.919 103.157 126.45C99.7536 123.482 98.2379 120.081 95.7212 116.565C91.9747 111.35 86.5695 108.468 83.9098 102.301C83.6524 101.696 82.4798 98.6411 82.4798 98.2089C82.4798 97.7478 83.109 96.5086 83.2806 95.9323C83.8526 93.7998 84.11 91.6673 83.824 89.4484C86.5981 86.7684 87.456 82.9933 86.5695 79.2471M82.4226 74.4346L83.7382 79.9099C84.4245 82.7628 83.7382 85.4428 81.822 87.2871L80.7353 88.3245L80.9355 89.823C81.1643 91.4368 81.0213 93.1658 80.4779 95.0966C80.4493 95.183 80.3063 95.5 80.2491 95.7306C79.9059 96.5663 79.6199 97.2579 79.5913 98.036C79.5913 98.6411 79.6771 99.2175 80.3635 101.148C80.7067 102.07 81.0785 103.05 81.2501 103.425C83.0804 107.69 85.9689 110.485 88.743 113.165C90.4303 114.808 92.0319 116.364 93.376 118.237C94.1196 119.245 94.7774 120.283 95.4066 121.292C96.9795 123.741 98.5811 126.277 101.269 128.611C102.213 129.418 103.243 130.11 104.272 130.744C105.245 131.349 106.131 131.954 106.732 132.501C106.903 132.818 107.247 133.395 107.876 133.856L112.423 137.227L112.48 131.522C112.537 126.277 109.677 122.675 107.161 119.505C105.016 116.796 103.186 114.462 103.043 111.407C102.842 107.171 107.447 103.655 111.336 101.408C111.737 101.177 112.194 100.975 112.68 100.716C114.797 99.6785 117.685 98.2665 118.686 94.8661C119.516 91.9843 119.344 87.4888 113.767 82.417L112.766 81.5237L111.451 81.6966C110.049 81.8695 108.619 81.9559 107.189 81.9559C105.044 81.9559 102.9 81.7542 100.84 81.3219C97.5515 80.6591 94.4342 79.3335 91.1453 77.9215C89.9728 77.4316 88.7716 76.9129 87.5418 76.423L82.3368 74.3481L82.4226 74.4346Z" fill="#0A3536"/>
<path d="M86.5982 79.1895C87.3704 80.371 88.0854 81.6389 89.1435 82.5899C92.318 85.5293 96.6079 86.4802 100.755 87.3447C104.959 88.2093 109.392 89.2467 112.766 92.0708C113.853 93.0218 114.883 94.2321 115.169 95.7018L115.083 95.7306C113.939 93.1947 111.136 91.725 108.648 90.7164C106.017 89.6501 103.357 88.8144 100.583 88.1516C95.8357 86.9989 90.4019 85.5293 87.6278 81.0914C87.256 80.4862 86.9128 79.8523 86.541 79.2471L86.6268 79.1895H86.5982Z" fill="#7CB770"/>
<path d="M86.6838 79.6792C87.3988 82.2151 89.0289 84.3476 90.6305 86.3936C91.4312 87.4022 92.2892 88.4108 93.2616 89.2177C95.2349 90.9756 97.7516 91.5807 100.24 92.2724C104.043 93.3674 107.761 95.4999 109.992 98.8715L109.906 98.9292C108.934 98.0358 107.961 97.2001 106.875 96.4797C105.817 95.7592 104.673 95.1541 103.5 94.6354C102.327 94.1167 101.126 93.6556 99.8966 93.2233C97.437 92.3876 94.7201 91.6096 92.7754 89.7076C91.7744 88.7855 90.9451 87.748 90.1729 86.6818C88.6571 84.5493 87.0842 82.3016 86.5122 79.6792H86.598H86.6838Z" fill="#7CB770"/>
<path d="M86.4264 80.3423C88.3139 83.7427 88.1995 87.8636 89.6295 91.4369C90.5447 93.7423 91.946 95.9324 94.0338 97.3157C95.0633 97.9785 96.3217 98.4972 97.3512 99.1312C98.4666 99.7651 99.582 100.428 100.64 101.177C101.698 101.926 102.814 102.762 103.328 104.001L103.243 104.059C102.499 102.993 101.355 102.416 100.268 101.811C98.6096 100.918 96.8651 100.053 95.1777 99.1888C93.376 98.3531 91.8316 96.9122 90.7449 95.2408C89.2863 93.0507 88.4855 90.486 88.0851 87.8924C87.885 86.6245 87.7134 85.3277 87.456 84.0885C87.1986 82.8206 86.8554 81.5814 86.312 80.4287L86.3978 80.3711L86.4264 80.3423Z" fill="#7CB770"/>
<path d="M86.4837 81.1777C88.0567 85.4427 86.8555 90.1399 87.8279 94.4913C88.4285 97.3731 89.7154 100.082 91.3742 102.503C91.7746 103.108 92.2036 103.684 92.6897 104.26C93.6049 105.384 94.8061 106.162 96.0072 106.969C96.6364 107.401 97.2656 107.834 97.8376 108.352C99.0101 109.361 99.8681 110.687 100.411 112.099L100.326 112.156C99.5535 110.917 98.6097 109.764 97.4086 108.929C95.664 107.661 93.3189 106.796 91.889 104.981C89.5724 101.984 87.9137 98.4105 87.1987 94.6642C86.6267 91.696 87.0557 88.6414 87.0271 85.6444C87.0271 84.1459 86.8555 82.6762 86.3979 81.2354L86.4837 81.2066V81.1777Z" fill="#7CB770"/>
<path d="M94.7773 96.278C89.7152 92.3877 96.722 85.2986 100.583 89.9382C103.843 93.8574 98.6667 99.275 94.7773 96.278Z" fill="#0A3536"/>
<path d="M95.2064 90.63C95.3208 90.4283 95.7784 90.313 95.9786 90.2554C96.7508 90.0249 97.523 90.0249 98.2093 90.4859C98.8957 90.947 99.3247 91.7827 99.3247 92.6184C99.3247 93.7999 98.4095 94.8662 97.237 94.9526C95.7498 95.0679 94.4343 93.7135 94.2627 92.2726C93.4333 95.846 97.9233 97.4597 99.9253 94.4627C100.44 93.6847 100.64 92.4743 100.297 91.581C99.2389 88.8145 96.3218 88.8145 95.1778 90.63H95.2064Z" fill="#F5DF8F"/>
<g style="mix-blend-mode:multiply" opacity="0.5">
<path d="M83.309 95.8747C83.881 93.7422 84.1384 91.6097 83.8524 89.3908C84.7104 88.5551 85.3967 87.6041 85.9115 86.5955C85.9687 86.4802 86.0259 86.3362 86.0831 86.2209C86.0831 86.1921 86.1117 86.1632 86.1403 86.1056C86.1975 85.9903 86.2261 85.9039 86.2547 85.7886C86.2547 85.7598 86.2547 85.731 86.2833 85.7022C86.3405 85.5581 86.3691 85.4428 86.4263 85.2987V85.2411C86.4549 85.1258 86.4835 85.0106 86.5407 84.8953C86.5407 84.8665 86.5407 84.8088 86.5693 84.78C86.5979 84.6647 86.6265 84.5495 86.6551 84.4342C86.6551 84.4342 86.6551 84.4054 86.6551 84.3766C86.6837 84.2325 86.7123 84.1172 86.7409 83.9731C86.7409 83.9443 86.7409 83.9155 86.7409 83.8867C86.7409 83.7714 86.7695 83.6561 86.7981 83.5697C86.7981 83.5409 86.7981 83.4832 86.7981 83.4544C86.7981 83.3103 86.8267 83.1662 86.8553 83.0222C86.8553 82.8781 86.8553 82.734 86.8839 82.5899C86.8839 82.5611 86.8839 82.5035 86.8839 82.4746C86.8839 82.3594 86.8839 82.2441 86.8839 82.1288C86.8839 82.1 86.8839 82.0712 86.8839 82.0136C86.8839 81.8695 86.8839 81.7254 86.8839 81.5813C86.8839 81.5813 86.8839 81.5237 86.8839 81.4948C86.8839 81.3796 86.8839 81.2643 86.8839 81.149C86.8839 81.1202 86.8839 81.0626 86.8839 81.0338C86.8839 80.9185 86.8839 80.8032 86.8553 80.688C86.8553 80.688 86.8553 80.6303 86.8553 80.6015C86.8553 80.4574 86.8267 80.3133 86.7981 80.1693C86.7981 80.1404 86.7981 80.0828 86.7981 80.054C86.7981 79.9387 86.7695 79.8234 86.7409 79.7082C86.7409 79.6794 86.7409 79.6217 86.7409 79.5929C86.7123 79.4488 86.6837 79.3047 86.6551 79.1606C86.9983 79.3047 87.3129 79.42 87.6561 79.5641C87.799 79.6217 87.942 79.6794 88.0564 79.737C88.228 79.8234 88.3996 79.8811 88.5712 79.9675C89.0288 80.1693 89.515 80.371 89.9726 80.5727C90.3444 80.7168 90.6876 80.8897 91.0593 81.0338C94.0908 82.3306 97.1509 83.5697 100.383 84.2325C104.158 85.0106 108.076 85.097 111.908 84.6359C112.394 85.097 112.909 85.5869 113.367 86.1056C112.394 86.3361 111.393 86.5379 110.421 86.7108C107.018 87.0278 103.557 86.9701 100.154 86.8549C97.4941 86.7684 94.8058 86.6243 92.1461 86.3938C90.8592 86.0768 89.6008 85.7022 88.371 85.2699C88.1136 86.1632 87.8562 87.0566 87.6275 87.9787C86.6265 91.6962 85.6541 95.4424 84.3386 99.0446C84.1098 99.5057 83.8524 99.9667 83.595 100.428C83.5092 100.514 83.452 100.601 83.3662 100.658C82.9658 99.6209 82.5654 98.4106 82.5654 98.1512C82.5654 97.6902 83.1946 96.4798 83.3662 95.8747H83.309Z" fill="#B1D686"/>
</g>
<path d="M107.876 85.3278C104.187 85.3278 100.211 84.7227 96.3505 83.5412C93.605 82.7055 89.3151 80.8323 85.8547 79.3338C84.7107 78.8439 83.6239 78.354 82.766 78.0082L82.194 77.7777C76.0452 75.8758 70.5542 75.4723 70.497 75.4435L67.3511 75.213L69.5818 72.9364C73.5285 68.9308 84.3961 61.0349 85.3685 60.3432C90.4019 55.9918 94.4344 52.7643 97.7518 50.4877C102.556 47.1449 115.026 39.3931 126.866 39.3931C128.41 39.3931 129.926 39.5372 131.327 39.7965C132.929 40.1135 138.162 41.3815 138.391 44.8684C138.648 48.6722 136.418 52.3032 134.244 55.8189C133.129 57.6632 132.071 59.3923 131.413 61.006C130.641 62.9656 130.24 64.9252 129.84 67C129.182 70.2852 128.467 73.7145 126.236 76.9132C122.404 82.4173 116.055 85.3278 107.905 85.3278H107.876Z" fill="#B1D686"/>
<path d="M126.837 40.8627C128.267 40.8627 129.668 40.978 131.041 41.2373C132.9 41.5831 136.789 42.7358 136.932 44.9836C137.276 50.1995 131.985 55.5883 130.069 60.4873C128.009 65.7608 128.438 71.2073 125.035 76.0774C121.031 81.8121 114.539 83.8581 107.876 83.8581C104.072 83.8581 100.24 83.1953 96.7507 82.1291C93.1758 81.0628 86.7124 78.0658 83.3092 76.625C83.3092 76.625 83.3378 76.5961 83.3664 76.5673C76.6742 74.3772 70.5826 73.9449 70.5826 73.9449C74.5579 69.8817 86.2263 61.4671 86.2263 61.4671C89.8869 58.2972 94.52 54.4068 98.5239 51.6404C106.017 46.4532 117.027 40.8051 126.837 40.8051M126.837 37.9521C114.596 37.9521 101.813 45.8769 96.8937 49.3062C93.5476 51.6115 89.4866 54.8679 84.4245 59.2193C83.1662 60.1415 72.4701 67.9221 68.5235 71.9277L64.062 76.452L70.3824 76.8843C70.3824 76.8843 75.759 77.2877 81.679 79.1321L82.1938 79.3626C83.0518 79.7084 84.1099 80.1983 85.2539 80.6882C88.743 82.2155 93.09 84.1174 95.9213 84.982C99.9252 86.1923 104.043 86.8263 107.876 86.8263C116.513 86.8263 123.262 83.714 127.409 77.8065C129.84 74.3484 130.555 70.775 131.241 67.3458C131.642 65.3286 132.042 63.4266 132.757 61.6111C133.357 60.0838 134.387 58.4124 135.474 56.6546C137.647 53.1389 140.107 49.1333 139.821 44.8395C139.535 40.4016 133.958 38.8743 131.584 38.4132C130.097 38.1251 128.496 37.981 126.865 37.981L126.837 37.9521Z" fill="#0A3536"/>
<path d="M71.4407 73.7434C83.5953 71.0634 93.5764 63.8303 103.071 56.0784C105.502 54.2053 107.962 52.3322 110.536 50.6896C116.942 46.5399 124.835 43.8311 132.471 44.9261C133.958 45.1567 135.503 45.5889 136.904 46.1365L136.875 46.2229C135.417 45.8195 133.93 45.5025 132.414 45.3872C132.099 45.3584 131.584 45.3296 131.27 45.3296C120.86 45.0126 111.622 50.632 103.529 56.77C98.6384 60.4298 93.8624 64.2914 88.5143 67.346C83.2235 70.2565 77.1891 72.8501 71.4121 73.7722L71.4407 73.7434Z" fill="#7CB770"/>
<path d="M71.9839 73.8872C82.5655 73.8872 92.0032 68.4984 101.155 63.7724C108.076 60.1126 115.454 56.7121 123.405 56.3951C126.036 56.2799 128.667 56.5392 131.212 57.202V57.2885C129.926 57.1156 128.639 56.9715 127.352 56.9427C118.229 56.7698 109.62 60.5448 101.555 64.4928C94.5771 67.9509 87.5132 71.6971 79.82 73.2821C77.2461 73.8008 74.6436 74.0601 72.0411 74.0025V73.8872H71.9839Z" fill="#7CB770"/>
<path d="M74.0432 72.533C78.4761 73.6856 83.0805 73.0805 87.542 72.3889C90.9167 71.8413 94.2628 71.3514 97.5803 70.4869C100.898 69.6224 104.129 68.4697 107.476 67.7781C111.966 66.856 116.599 66.6542 121.174 67C123.462 67.1729 125.722 67.4899 127.952 67.951V68.0663C125.665 67.8934 123.405 67.7781 121.146 67.7205C116.341 67.6628 111.537 68.0375 106.846 68.9308C103.786 69.5071 100.812 70.4869 97.7518 71.2074C94.4058 71.9854 91.0025 72.4177 87.6278 72.8788C83.1377 73.4551 78.4475 73.9162 74.0146 72.6194V72.533H74.0432Z" fill="#7CB770"/>
<path d="M73.2996 73.3975C75.9879 74.0314 78.7334 73.3686 81.4503 73.7145C85.2254 74.2908 88.8289 75.7317 92.5753 76.3656C94.7203 76.7979 96.8366 76.6826 98.9815 76.4233C105.474 75.6452 111.88 73.5704 118.486 74.2908C120.66 74.5213 122.862 75.0401 124.835 75.991L124.806 76.0775C122.747 75.3859 120.602 75.0689 118.429 74.9824C110.793 74.7519 103.414 77.3454 95.7498 77.3742C92.4323 77.3166 89.2579 76.1927 86.112 75.2706C84.0528 74.6366 81.9651 73.9738 79.7916 73.8874C77.618 73.8009 75.4159 74.0314 73.271 73.4839V73.3975H73.2996Z" fill="#7CB770"/>
<path d="M106.789 55.329C106.217 53.5135 104.415 52.8507 102.728 52.5913C100.64 52.2455 98.4955 52.3608 96.4364 52.4184C96.322 52.4184 96.179 52.4184 96.0932 52.3608C95.4068 51.9285 97.8377 50.7182 98.1809 50.603C99.0961 50.3436 100.04 50.3148 100.984 50.4012C104.387 50.6318 107.018 50.603 109.878 52.4761L106.846 55.329H106.789Z" fill="#0A3536"/>
<path d="M109.191 52.0438C115.426 55.8477 109.42 65.0404 103.529 61.1213C97.6373 57.2021 103.901 48.7875 109.191 52.0438Z" fill="#0A3536"/>
<path d="M103.529 54.3491C103.672 54.0898 104.187 53.9169 104.444 53.8016C105.359 53.427 106.332 53.3405 107.218 53.8016C108.134 54.2915 108.734 55.3001 108.82 56.3087C108.963 57.7496 107.962 59.1616 106.503 59.3921C104.673 59.6803 102.9 58.153 102.557 56.424C101.899 60.8906 107.619 62.3891 109.764 58.4988C110.336 57.4902 110.421 55.9629 109.907 54.8966C108.334 51.6115 104.73 51.9285 103.529 54.2915V54.3491Z" fill="#F5DF8F"/>
<g style="mix-blend-mode:multiply" opacity="0.5">
<path d="M86.2262 61.4957C86.2262 61.4957 86.4264 61.3228 86.5408 61.2363C86.6838 61.4669 86.8554 61.6974 87.0556 61.8991C87.17 62.072 87.2558 62.2449 87.3416 62.4178C87.456 62.7636 87.5417 63.1383 87.6275 63.4841C87.6847 64.3486 87.6275 65.2131 87.5703 66.1065C87.027 69.2475 85.9974 72.3022 84.7962 75.2415C84.5388 75.8179 84.3101 76.3942 84.0527 76.9706C83.7953 76.8553 83.5379 76.74 83.3091 76.6536C83.3091 76.6536 83.3377 76.6248 83.3663 76.5959C76.6741 74.4058 70.5825 73.9736 70.5825 73.9736C74.5578 69.9103 86.2262 61.4957 86.2262 61.4957Z" fill="#B1D686"/>
</g>
<g style="mix-blend-mode:multiply" opacity="0.5">
<path d="M42.5553 84.2618C39.867 84.8093 37.1215 85.011 34.376 84.9246C34.4046 85.5009 34.4618 86.0484 34.519 86.6248C35.0338 89.6794 35.8345 92.6764 36.8927 95.587C37.8937 97.7483 39.0948 99.7943 40.439 101.754C42.8699 104.636 45.6726 107.258 48.5897 109.621C49.5621 110.341 50.5344 111.004 51.5354 111.667C54.3667 108.901 57.2552 106.278 58.9711 102.273C59.2285 101.667 60.4011 98.6128 60.4011 98.1805C60.4011 97.7194 59.7719 96.5091 59.6003 95.904C59.0283 93.7715 58.7709 91.639 59.0569 89.4201C56.2828 86.7401 55.4249 82.965 56.3114 79.2188C51.7642 81.0054 47.3313 83.282 42.5267 84.2618H42.5553Z" fill="#B1D686"/>
</g>
<g style="mix-blend-mode:multiply" opacity="0.5">
<path d="M72.2984 73.9738C68.3231 69.9106 56.6547 61.4959 56.6547 61.4959C53.9378 59.1329 50.6489 56.3953 47.5316 54.0034C47.1599 54.4069 46.7881 54.8103 46.3877 55.1849C44.8719 56.7122 43.3848 58.2972 41.9834 59.9398C40.2961 62.3892 38.9233 65.0404 37.665 67.7493C36.6068 70.0258 35.5772 72.36 34.5763 74.6654C34.2903 77.72 34.1759 80.8035 34.3189 83.8581C38.3228 83.9446 42.441 83.253 46.1303 82.1579C49.7052 81.0917 56.1685 78.0947 59.5718 76.6538C59.5718 76.6538 59.5432 76.625 59.5146 76.5962C66.2068 74.4061 72.2984 73.9738 72.2984 73.9738Z" fill="#B1D686"/>
</g>
<g style="mix-blend-mode:multiply" opacity="0.5">
<path d="M90.3445 110.658C92.3464 109.477 94.2626 108.18 96.1501 106.826C98.867 104.578 101.412 102.1 103.672 99.3908C105.588 96.682 107.304 93.7427 108.705 90.7168C109.363 88.9302 109.906 87.1147 110.278 85.2416C110.278 85.0975 110.278 84.9534 110.278 84.8381C106.961 85.1263 103.586 84.9534 100.326 84.2906C95.5209 83.3108 91.0881 81.0342 86.5408 79.2476C87.4274 82.965 86.5694 86.7689 83.7953 89.4489C84.1099 91.639 83.8525 93.8003 83.2519 95.9328C83.0804 96.5379 82.4798 97.7483 82.4512 98.2093C82.4512 98.6416 83.6237 101.696 83.8811 102.301C85.3969 105.817 87.7992 108.267 90.2873 110.687L90.3445 110.658Z" fill="#B1D686"/>
</g>
<g style="mix-blend-mode:multiply" opacity="0.5">
<path d="M108.59 76.1637C106.646 71.7258 104.529 67.3456 102.384 63.023C101.269 60.7464 100.039 58.5851 98.6379 56.4815C97.8943 55.3864 97.1507 54.2913 96.4644 53.1963C93.0039 55.761 89.286 58.8733 86.2545 61.5245C86.2545 61.5245 74.6147 69.9391 70.6108 74.0024C70.6108 74.0024 76.7024 74.4346 83.3946 76.6247C83.3946 76.6247 83.366 76.6536 83.3374 76.6824C86.7407 78.1232 93.2327 81.1202 96.779 82.1865C101.012 83.4544 105.788 84.1749 110.335 83.8003C110.335 82.734 110.335 81.6678 110.249 80.5727C109.734 79.103 109.191 77.6334 108.59 76.1637Z" fill="#B1D686"/>
</g>
<path d="M71.4402 114.174C67.6937 114.174 63.0321 111.58 59.9434 109.851H59.9148C58.1131 108.843 56.3113 107.69 54.5668 106.48C52.4504 105.01 50.5057 103.483 48.7898 101.898C46.7306 100.025 45.0719 98.2091 43.7563 96.3936C42.212 94.2611 41.1824 92.2439 40.639 90.1979C40.0385 87.9501 40.0957 85.6447 40.7534 83.5699C41.1538 82.3884 41.64 81.3798 42.2692 80.6017C42.4122 80.4 43.2702 79.5355 44.0423 78.7862C44.7001 78.1522 45.1577 77.7488 45.4437 77.5183C44.9861 76.7402 44.6715 75.6739 44.4999 74.3772C44.3283 72.8787 44.5857 71.4378 44.8717 70.0258V69.9681C45.2149 68.1526 45.7583 66.4524 46.4446 64.9251C46.4446 64.8963 46.4732 64.8675 46.5018 64.8098C48.3322 60.8042 51.6497 57.2885 55.8251 54.8967C56.1111 54.7238 56.3971 54.5509 56.7117 54.378C57.2265 54.0898 57.7699 53.7728 58.3132 53.4846C58.7994 53.2253 59.2284 53.0236 59.6002 52.8507C59.7718 52.7642 59.9434 52.7066 60.115 52.6778C60.3438 52.5913 60.6298 52.5048 60.7442 52.4184L60.83 52.3608H60.9444C61.9739 52.015 63.4611 51.6691 64.5478 51.4962C66.4068 51.1504 68.4373 51.0063 70.525 51.0063C71.1542 51.0063 71.7834 51.0063 72.4126 51.0352H72.813C74.3859 51.1216 76.016 51.1793 77.589 51.4386C79.3335 51.7268 80.9351 52.4184 82.4794 53.11C85.1105 54.2627 88.1134 55.7612 90.6874 58.0378C93.1183 60.1991 95.0344 63.1384 96.2642 66.51C96.5788 67.4034 96.8647 68.3544 97.0649 69.2765C97.1507 69.7088 97.2079 70.1698 97.2651 70.6021C97.3223 71.1208 97.3795 71.5819 97.4939 72.043C97.8371 73.2245 98.1803 74.6077 98.0659 76.0197C98.0087 76.5385 97.9229 77.0284 97.7513 77.5471C97.7513 78.4404 98.1517 78.7574 98.8381 79.3337C99.1813 79.6219 99.5817 79.9677 99.982 80.4C105.187 86.394 101.326 94.5205 96.4644 99.6499C91.6597 104.693 78.9903 113.194 72.4126 114.087C72.098 114.116 71.7834 114.145 71.4402 114.145V114.174Z" fill="#FFFAC3"/>
<path d="M70.5252 51.5541C71.1543 51.5541 71.7835 51.5541 72.4127 51.5829C74.1286 51.6693 75.8446 51.727 77.5319 51.9863C79.2193 52.2745 80.7636 52.9373 82.308 53.6289C85.1679 54.8969 87.9992 56.3377 90.3729 58.4414C92.861 60.6603 94.6628 63.542 95.7781 66.6831C96.0927 67.5765 96.3501 68.4698 96.5503 69.392C96.7505 70.2853 96.7505 71.2939 96.9793 72.1872C97.3225 73.4264 97.637 74.6655 97.5226 75.9623C97.4654 76.481 97.3511 76.9997 97.2081 77.4608C97.1509 79.2475 98.3806 79.4492 99.5818 80.8036C104.644 86.6247 100.554 94.5783 96.0641 99.3043C91.4311 104.174 78.9333 112.676 72.3555 113.569C72.0695 113.598 71.7549 113.627 71.4689 113.627C67.8654 113.627 63.2038 111.004 60.2009 109.362C58.3706 108.353 56.626 107.229 54.9101 106.048C52.9082 104.664 50.992 103.166 49.1617 101.523C47.3313 99.8807 45.644 98.094 44.1854 96.1056C42.8699 94.2901 41.7545 92.2729 41.154 90.0828C40.6106 88.0079 40.6106 85.8178 41.2683 83.7718C41.5829 82.792 42.0405 81.7834 42.6983 80.9765C42.9271 80.6883 45.8728 77.7202 46.216 77.7202C45.4724 76.8268 45.1578 75.4724 45.0148 74.3485C44.8432 72.9365 45.1292 71.4956 45.3866 70.1124C45.7012 68.441 46.1874 66.7696 46.9024 65.2135C46.9024 65.1846 46.9024 65.1558 46.931 65.127C48.8185 61.0061 52.136 57.6921 56.0255 55.4732C56.8548 55.0121 57.6556 54.5222 58.485 54.0612C58.8854 53.8306 59.3143 53.6289 59.7433 53.456C60.1151 53.2831 60.7157 53.1966 61.0303 52.9373C62.0884 52.6203 63.5756 52.3033 64.5766 52.1016C66.5213 51.7558 68.4946 51.6117 70.468 51.6117M70.5252 50.4014C68.3802 50.4014 66.3211 50.5743 64.4336 50.9201C63.3182 51.1218 61.8311 51.4676 60.7729 51.7846L60.5727 51.8422L60.4011 51.9575C60.4011 51.9575 60.0865 52.0728 59.9435 52.1304C59.7433 52.188 59.5431 52.2457 59.3715 52.3321C58.9712 52.505 58.5422 52.7356 58.0274 52.9949C57.484 53.2831 56.9406 53.6001 56.4258 53.9171C56.1398 54.09 55.8539 54.2629 55.5393 54.4358C51.278 56.8564 47.8747 60.4586 45.9872 64.5795C45.9872 64.6371 45.93 64.6947 45.93 64.7236C45.215 66.2797 44.7002 68.0087 44.3284 69.8819V69.9395C44.0425 71.3804 43.7565 72.8789 43.9567 74.4638C44.0997 75.6165 44.357 76.5963 44.7288 77.4032C44.4428 77.6625 44.0997 77.9795 43.6421 78.4118C43.0129 79.0169 42.0119 79.9967 41.8117 80.2849C41.154 81.1206 40.6106 82.1868 40.2102 83.426C39.4952 85.6161 39.438 88.0079 40.0672 90.3709C40.6392 92.4746 41.6687 94.5783 43.2703 96.7684C44.6144 98.6415 46.3018 100.486 48.3895 102.359C50.134 103.944 52.1074 105.5 54.2523 106.97C56.0254 108.209 57.8272 109.333 59.6289 110.341H59.6575C62.8034 112.099 67.5509 114.75 71.4403 114.75C71.8121 114.75 72.1553 114.75 72.4985 114.693C79.3909 113.742 92.0316 105.154 96.8649 100.082C98.4378 98.4398 101.241 95.0393 102.47 90.7744C103.643 86.6535 102.956 82.9649 100.411 80.0544C99.9822 79.5645 99.5532 79.2187 99.21 78.9305C98.5522 78.383 98.352 78.1812 98.3234 77.6625C98.495 77.1438 98.5808 76.6251 98.638 76.0776C98.781 74.5791 98.4092 73.1382 98.066 71.8991C97.9516 71.4956 97.8944 71.0345 97.8658 70.5735C97.8086 70.1124 97.7514 69.6513 97.6656 69.1902C97.4655 68.2393 97.1795 67.2883 96.8363 66.3373C95.6065 62.8504 93.6046 59.8534 91.1165 57.6345C88.4854 55.3003 85.4253 53.8018 82.7655 52.6491C81.1926 51.9575 79.5625 51.2371 77.7321 50.9201C76.102 50.6607 74.4718 50.5743 72.8703 50.5166H72.4699C71.8121 50.459 71.1829 50.459 70.5538 50.459L70.5252 50.4014Z" fill="#0A3536"/>
<path d="M60.7729 98.4399C60.7729 98.4399 63.4899 104.088 69.4099 104.578C75.3299 105.068 80.1345 98.4399 80.1345 98.4399H60.7729Z" fill="#67A465"/>
<path d="M114.138 13.3999C113.366 9.42312 112.136 9.71129 108.476 10.4029C95.1487 12.8812 82.6223 23.169 79.5622 36.4249C78.9616 38.9897 78.647 41.6408 78.6756 44.2632C78.6756 44.3497 78.6756 44.4073 78.7042 44.4938C78.8758 46.0211 79.076 47.5484 79.219 49.0469C79.7624 50.0843 79.5336 53.3118 81.0779 53.9458C81.9359 54.0899 84.9674 50.92 85.854 50.4301C85.854 50.4301 85.9112 50.4301 85.9398 50.4301C87.2267 49.3351 88.5709 48.6146 90.1724 47.9518C90.5156 47.8077 90.8302 47.6925 91.1448 47.5484C97.8084 43.8021 104.1 40.0559 108.676 33.7737C112.68 28.2984 115.454 20.1431 114.11 13.3711L114.138 13.3999Z" fill="#EBC142"/>
<path d="M116.283 10.6337C115.425 6.08052 114.053 6.39751 109.934 7.17558C95.0056 10.0285 80.9349 21.8436 77.503 37.0591C76.8453 40.0273 76.4735 43.0531 76.5307 46.0789C76.5307 46.1654 76.5593 46.2518 76.5593 46.3671C76.7595 48.1249 76.9882 49.854 77.1312 51.6118C77.7604 52.7933 77.4744 56.5108 79.219 57.2312C80.1913 57.4041 83.566 53.7731 84.567 53.1968C84.567 53.1968 84.6242 53.1968 84.6528 53.1968C86.1113 51.9576 87.5985 51.0931 89.4002 50.3439C89.772 50.1998 90.1438 50.0269 90.487 49.8828C97.9513 45.589 105.015 41.2664 110.135 34.0621C114.625 27.7799 117.713 18.3855 116.226 10.6337H116.283ZM111.622 10.9795L89.772 33.4281L89.2858 34.1197C89.2572 34.1774 89.2 34.235 89.1714 34.2926C89.1714 34.3215 89.1142 34.3791 89.0856 34.4079C86.9121 37.0879 85.1676 40.0561 83.4802 43.0531L80.4773 49.9693C78.3038 30.7193 93.2039 13.8324 111.65 10.9795H111.622ZM95.7206 41.958C90.4584 44.7821 85.6252 47.7503 81.5641 52.217L86.5689 41.4105L98.2659 40.1426L95.7492 41.9292L95.7206 41.958ZM105.073 33.7163C101.927 37.8372 97.5224 38.961 92.5461 39.3357C91.0304 39.4509 89.3716 39.0187 87.9417 39.595L91.202 34.869C96.0352 34.6096 100.783 33.9468 105.473 32.8518C105.587 33.3417 105.273 33.3993 105.073 33.6875V33.7163ZM108.018 29.6242C105.416 32.189 96.3212 32.7077 92.7177 33.14C92.6033 32.6501 92.9179 32.5924 93.1467 32.3043C93.6329 31.6703 96.407 28.3851 96.836 28.1546C98.3803 27.3477 103.528 26.9442 105.673 26.3967C107.446 25.9356 109.219 25.3017 110.849 24.466C111.078 24.7541 108.562 29.1632 108.075 29.6531L108.018 29.6242ZM110.935 21.93C108.476 24.4371 102.213 25.4457 98.8379 26.1374L112.766 13.2272C113.166 15.3885 112.537 20.3163 110.964 21.93H110.935Z" fill="#0A3536"/>
<path d="M34.2043 33.8025C38.7801 40.0559 45.0719 43.831 51.7355 47.5772C52.0501 47.7213 52.3932 47.8366 52.7078 47.9806C54.3094 48.6434 55.6535 49.3927 56.9405 50.4589C56.9405 50.4589 56.9977 50.4589 57.0263 50.4589C57.9129 50.9488 60.9444 54.1187 61.8023 53.9746C63.3467 53.3407 63.0893 50.1131 63.6613 49.0757C63.8043 47.5484 64.0044 46.0211 64.176 44.5226C64.176 44.4361 64.176 44.3497 64.2046 44.292C64.2618 41.6408 63.9186 39.0185 63.3181 36.4537C60.258 23.2266 47.7316 12.9388 34.4044 10.4317C30.7438 9.7401 29.514 9.45192 28.7418 13.4287C27.4263 20.2008 30.1718 28.3561 34.1757 33.8314L34.2043 33.8025Z" fill="#EBC142"/>
<path d="M32.7171 34.0621C37.865 41.2664 44.9003 45.5602 52.3647 49.8827C52.7364 50.0268 53.0796 50.1997 53.4514 50.3438C55.2532 51.1219 56.7403 51.9576 58.1989 53.1967C58.1989 53.1967 58.2561 53.1967 58.2847 53.1967C59.2856 53.7731 62.6889 57.4041 63.6327 57.2312C65.3486 56.5107 65.0912 52.7933 65.7204 51.6118C65.8634 49.8539 66.0922 48.1249 66.2924 46.367C66.2924 46.2806 66.2924 46.1941 66.321 46.0789C66.3782 43.0531 66.0064 40.0272 65.3486 37.0591C61.9167 21.8435 47.8746 10.0284 32.9173 7.17552C28.7991 6.39746 27.4549 6.05165 26.5683 10.6336C25.0812 18.4143 28.1699 27.7799 32.6599 34.0621H32.7171ZM62.4601 49.9692L59.4572 43.0531C57.7413 40.0561 56.0253 37.0879 53.8518 34.4079C53.8518 34.4079 53.7946 34.3214 53.766 34.2926C53.7088 34.235 53.6802 34.1773 53.6516 34.1197L53.1654 33.4281L31.3158 10.9794C49.7621 13.8323 64.6622 30.7193 62.4887 49.9692H62.4601ZM44.6429 40.1713L56.3399 41.4393L61.3448 52.2458C57.2837 47.7503 52.4505 44.8109 47.1882 41.9868L44.6715 40.2001L44.6429 40.1713ZM37.4074 32.8517C42.0976 33.918 46.8736 34.6096 51.6783 34.8689L54.9386 39.595C53.5086 39.0186 51.8499 39.4509 50.3341 39.3356C45.3579 38.961 40.9536 37.8371 37.8078 33.7162C37.6076 33.4281 37.2644 33.3704 37.4074 32.8805V32.8517ZM32.1165 24.4371C33.7467 25.2728 35.5198 25.9068 37.293 26.3678C39.4379 26.9154 44.5857 27.3188 46.1301 28.1257C46.5591 28.3562 49.3332 31.6414 49.8193 32.2754C50.0195 32.5636 50.3627 32.6212 50.2483 33.1111C46.6163 32.6788 37.5504 32.1889 34.9479 29.5954C34.4331 29.1055 31.9164 24.6964 32.1737 24.4083L32.1165 24.4371ZM30.1718 13.2272L44.0995 26.1373C40.7249 25.4745 34.4617 24.4659 32.0021 21.93C30.4292 20.3162 29.8 15.4173 30.2004 13.2272H30.1718Z" fill="#0A3536"/>
<path d="M58.4274 96.7393C58.1414 96.3935 59.6572 96.6528 60.6295 96.5664C63.9756 96.2782 64.7764 96.0765 65.949 96.3935C66.5781 96.5664 67.5219 96.9122 68.5801 97.7767C69.3808 97.2292 70.4962 96.5952 71.8976 96.1918C74.9005 95.3272 76.6736 96.9698 79.8481 96.8257C81.135 96.7681 83.0226 96.4223 85.2533 95.0103C85.2533 95.0103 83.5088 98.3819 77.1884 98.9582C70.868 99.5346 69.1806 101.581 69.1806 101.581C69.1806 101.581 67.7221 100.341 66.1206 99.9092C64.519 99.4769 60.2863 99.0735 58.456 96.7105L58.4274 96.7393Z" fill="#50803E"/>
<path d="M56.4829 95.4139C62.0597 100.226 66.2066 98.3533 69.3525 101.293C69.3525 101.293 69.3811 101.293 69.3811 101.321C69.3239 101.264 69.1809 101.206 69.0665 101.235C68.9807 101.235 68.8949 101.321 68.8663 101.408C69.0665 100.976 69.4669 100.659 69.8387 100.457C70.1818 100.255 70.525 100.14 70.8682 100.054C72.2124 99.6501 73.5565 99.3043 74.9007 99.0449C78.733 98.3245 83.7092 98.3821 85.5967 94.2612C84.7388 97.0853 81.7645 98.4397 79.1047 98.9585C76.3878 99.4772 73.6995 99.8806 71.097 100.745C70.4106 100.947 69.7815 101.206 69.5241 101.754C69.4097 101.984 69.0665 102.042 68.8949 101.869C68.8949 101.869 68.8663 101.84 68.8377 101.84C67.4363 100.457 65.463 100.198 63.6041 99.6501C60.8872 98.9585 58.3704 97.4888 56.4829 95.4427V95.4139Z" fill="#083729"/>
<path d="M79.2765 99.4484C78.3327 103.108 72.9275 105.558 69.467 105.356C66.0065 105.154 62.4316 101.869 61.0303 98.8721L65.2343 102.561C70.0962 105.558 75.7302 103.368 79.2765 99.4196V99.4484Z" fill="#083729"/>
<path d="M49.1904 75.6745C49.1904 75.6745 51.8501 69.4211 55.9683 69.3347C60.0866 69.2482 65.4346 74.0031 64.548 79.1037C64.548 79.1037 64.1477 79.9682 63.8903 79.9682C63.6329 79.9682 59.2572 76.1932 56.1971 76.3373C53.137 76.4813 48.7042 76.6543 48.8186 76.6254C48.933 76.5966 49.1904 75.6745 49.1904 75.6745Z" fill="#67A465"/>
<path d="M49.2188 76.9422C49.3903 77.0863 60.8872 73.34 63.4611 80.8037C63.6041 81.236 63.8615 82.2734 63.5183 82.8785C63.5183 82.8785 58.542 84.8093 54.0806 83.3684C49.6191 81.9276 49.2188 76.9134 49.2188 76.9134V76.9422Z" fill="white"/>
<path d="M56.7403 84.2329C59.2042 84.2329 61.2017 82.4653 61.2017 80.2849C61.2017 78.1045 59.2042 76.3369 56.7403 76.3369C54.2763 76.3369 52.2788 78.1045 52.2788 80.2849C52.2788 82.4653 54.2763 84.2329 56.7403 84.2329Z" fill="#6927AF"/>
<path d="M56.7405 81.9273C57.6408 81.9273 58.3706 81.1918 58.3706 80.2847C58.3706 79.3775 57.6408 78.6421 56.7405 78.6421C55.8402 78.6421 55.1104 79.3775 55.1104 80.2847C55.1104 81.1918 55.8402 81.9273 56.7405 81.9273Z" fill="black"/>
<path d="M55.2243 79.9967C55.7613 79.9967 56.1967 79.558 56.1967 79.0169C56.1967 78.4758 55.7613 78.0371 55.2243 78.0371C54.6873 78.0371 54.252 78.4758 54.252 79.0169C54.252 79.558 54.6873 79.9967 55.2243 79.9967Z" fill="white"/>
<path d="M64.1762 79.3631C61.3735 74.4641 55.6251 74.0031 50.563 74.5794C50.6488 74.5794 50.8776 74.0319 50.9348 73.9454C51.0778 73.7149 51.2494 73.4843 51.3924 73.2538C51.707 72.8216 52.0788 72.4181 52.422 71.9858C54.1951 69.8534 55.9683 69.3635 55.9683 69.3635C55.9683 69.3635 54.5097 69.1906 53.0226 70.2856C51.421 71.4671 50.3057 72.908 49.1903 74.5218C48.8471 75.0117 48.5039 75.5304 47.9891 75.8474C47.074 76.4237 45.8442 76.5966 44.8718 76.3949C44.1283 76.222 43.2131 75.9626 42.6411 75.6168C42.0691 75.271 40.868 74.4065 40.8966 74.4065C40.8108 74.637 40.9252 74.9252 40.9824 75.1558C41.2398 76.2508 41.8117 76.9424 42.7841 77.49C43.9567 78.1239 45.2436 78.6138 46.5306 78.902C46.9882 79.0173 47.4458 79.0749 47.8747 79.3054C48.3609 79.5936 49.0187 80.7175 49.5621 81.2362C50.5058 82.1295 51.993 83.5704 53.1656 83.9738C56.5402 85.1265 60.1437 84.3773 60.8015 84.2332C63.0036 83.8009 63.118 83.0517 63.118 83.0517C62.832 83.2246 61.4307 83.4551 61.0875 83.4839C59.4573 83.5704 58.914 83.5704 57.2838 83.4839C57.0264 83.4839 56.769 83.4839 56.483 83.4551C55.1961 83.3687 53.8805 83.1093 52.7366 82.4177C52.0216 81.9855 51.421 81.4091 50.9634 80.6887C50.6774 80.2564 49.6193 77.9798 50.1055 77.6917C52.6508 77.1441 55.2819 76.8848 57.8844 77.4035C59.4001 77.6917 60.6871 78.3833 61.8883 79.3343C62.26 79.6801 63.3754 80.5158 64.405 82.0431C64.4622 82.1295 64.5766 82.1872 64.6624 82.1584C64.7196 82.1584 64.7482 82.1295 64.7768 82.1007C64.9484 81.9566 65.0056 81.6973 65.0056 81.4667C65.0056 80.7175 64.548 80.0259 64.2048 79.3919L64.1762 79.3631Z" fill="black"/>
<path d="M66.3498 71.8416C62.6606 68.7869 58.8855 64.666 53.6233 65.2712L49.1904 66.7121C53.3087 62.0725 58.2277 61.7843 62.9466 65.7899C64.4909 67.1155 66.8646 69.6226 66.3213 71.8127L66.3498 71.8416Z" fill="#083729"/>
<path d="M64.5479 79.1322C64.5479 79.1322 64.6051 78.6423 64.6337 78.5847C64.6337 78.383 64.6337 78.1813 64.6337 77.9795C64.5765 76.9709 64.2619 76.02 63.9759 75.069C63.9759 75.0114 63.8901 74.6079 63.8901 74.5791C64.1475 74.6944 64.3191 75.1554 64.4335 75.4148C64.7195 76.1064 64.8625 76.8845 64.9483 77.6337C65.0055 78.066 65.0627 78.9305 64.5479 79.1322Z" fill="black"/>
<path d="M93.7188 75.6745C93.7188 75.6745 91.0591 69.4211 86.9408 69.3347C82.8225 69.2482 77.4745 74.0031 78.3611 79.1037C78.3611 79.1037 78.7615 79.9682 79.0189 79.9682C79.2763 79.9682 83.6519 76.1932 86.712 76.3373C89.7721 76.4813 94.205 76.6543 94.0906 76.6254C93.9762 76.5966 93.7188 75.6745 93.7188 75.6745Z" fill="#67A465"/>
<path d="M93.6902 76.9422C93.5187 77.0863 82.0218 73.34 79.4479 80.8037C79.3049 81.236 79.0475 82.2734 79.3907 82.8785C79.3907 82.8785 84.367 84.8093 88.8284 83.3684C93.2899 81.9276 93.6902 76.9134 93.6902 76.9134V76.9422Z" fill="white"/>
<path d="M86.1685 84.2329C88.6325 84.2329 90.6299 82.4653 90.6299 80.2849C90.6299 78.1045 88.6325 76.3369 86.1685 76.3369C83.7045 76.3369 81.707 78.1045 81.707 80.2849C81.707 82.4653 83.7045 84.2329 86.1685 84.2329Z" fill="#6927AF"/>
<path d="M86.1687 81.9273C87.069 81.9273 87.7989 81.1918 87.7989 80.2847C87.7989 79.3775 87.069 78.6421 86.1687 78.6421C85.2684 78.6421 84.5386 79.3775 84.5386 80.2847C84.5386 81.1918 85.2684 81.9273 86.1687 81.9273Z" fill="black"/>
<path d="M85.0817 79.9967C85.6188 79.9967 86.0541 79.558 86.0541 79.0169C86.0541 78.4758 85.6188 78.0371 85.0817 78.0371C84.5447 78.0371 84.1094 78.4758 84.1094 79.0169C84.1094 79.558 84.5447 79.9967 85.0817 79.9967Z" fill="white"/>
<path d="M78.7332 79.3631C81.5359 74.4641 87.2843 74.0031 92.3463 74.5794C92.2605 74.5794 92.0317 74.0319 91.9745 73.9454C91.8315 73.7149 91.6599 73.4843 91.5169 73.2538C91.2024 72.8216 90.8306 72.4181 90.4874 71.9858C88.7142 69.8534 86.9411 69.3635 86.9411 69.3635C86.9411 69.3635 88.3997 69.1906 89.8868 70.2856C91.4884 71.4671 92.6037 72.908 93.7191 74.5218C94.0623 75.0117 94.4054 75.5304 94.9202 75.8474C95.8354 76.4237 97.0652 76.5966 98.0375 76.3949C98.7811 76.222 99.6963 75.9626 100.268 75.6168C100.84 75.271 102.041 74.4065 102.013 74.4065C102.099 74.637 101.984 74.9252 101.927 75.1558C101.67 76.2508 101.098 76.9424 100.125 77.49C98.9527 78.1239 97.6657 78.6138 96.3788 78.902C95.9212 79.0173 95.4636 79.0749 95.0346 79.3054C94.5484 79.5936 93.8907 80.7175 93.3473 81.2362C92.4035 82.1295 90.9164 83.5704 89.7438 83.9738C86.3691 85.1265 82.7656 84.3773 82.1079 84.2332C79.9057 83.8009 79.7913 83.0517 79.7913 83.0517C80.0773 83.2246 81.4787 83.4551 81.8219 83.4839C83.452 83.5704 83.9954 83.5704 85.6255 83.4839C85.8829 83.4839 86.1403 83.4839 86.4263 83.4551C87.7133 83.3687 89.0288 83.1093 90.1728 82.4177C90.8878 81.9855 91.4884 81.4091 91.9459 80.6887C92.2319 80.2564 93.2901 77.9798 92.8039 77.6917C90.2586 77.1441 87.6275 76.8848 85.025 77.4035C83.5092 77.6917 82.2223 78.3833 81.0211 79.3343C80.6493 79.6801 79.534 80.5158 78.5044 82.0431C78.4472 82.1295 78.3328 82.1872 78.247 82.1584C78.1898 82.1584 78.1612 82.1295 78.1326 82.1007C77.961 81.9566 77.9038 81.6973 77.9038 81.4667C77.9038 80.7175 78.3614 80.0259 78.7046 79.3919L78.7332 79.3631Z" fill="black"/>
<path d="M76.5594 71.8416C80.2487 68.7869 84.0238 64.666 89.286 65.2712L93.7189 66.7121C89.6006 62.0725 84.6816 61.7843 79.9627 65.7899C78.4184 67.1155 76.0447 69.6226 76.588 71.8127L76.5594 71.8416Z" fill="#083729"/>
<path d="M78.3614 79.1322C78.3614 79.1322 78.3042 78.6423 78.2756 78.5847C78.2756 78.383 78.2756 78.1813 78.2756 77.9795C78.3328 76.9709 78.6474 76.02 78.9333 75.069C78.9333 75.0114 79.0191 74.6079 79.0191 74.5791C78.7618 74.6944 78.5902 75.1554 78.4758 75.4148C78.1898 76.1064 78.0468 76.8845 77.961 77.6337C77.9038 78.066 77.8466 78.9305 78.3614 79.1322Z" fill="black"/>
<path d="M69.9533 95.0396C68.4661 95.1261 66.0066 94.1751 65.263 92.8207C64.0333 90.6594 67.408 84.6078 67.0934 81.8989C67.2364 81.8989 67.3508 82.5041 67.3508 82.8211C67.3794 83.628 67.4366 84.6654 67.3508 85.4723C67.1506 88.0082 65.4632 90.9476 67.7798 93.3106C68.3517 93.8869 68.8951 94.2327 69.9247 95.0396H69.9533Z" fill="#083729"/>
</g>
<defs>
<clipPath id="clip0_14029_187">
<rect width="148" height="144" fill="white"/>
</clipPath>
</defs>
</svg>
