<svg width="382" height="362" viewBox="0 0 382 362" fill="none" xmlns="http://www.w3.org/2000/svg">
<g clip-path="url(#clip0_14029_297)">
<path d="M80.2941 346.15C80.1313 333.076 87.3043 324.076 94.2393 315.377C100.379 307.674 106.186 300.397 106.637 290.601C107.276 276.838 93.2683 265.927 81.403 259.195C80.2002 258.512 78.8595 257.867 77.4437 257.177C71.9371 254.514 65.0898 251.198 62.8345 243.489C60.8236 236.62 61.3686 225.777 75.3889 213.117L76.7671 211.87L78.609 212.102C82.7248 212.622 86.8908 212.879 90.9942 212.879C97.2902 212.879 103.517 212.265 109.5 211.055C119.054 209.125 128.369 205.183 137.371 201.372C140.617 200 143.968 198.577 147.313 197.261L154.587 194.396L152.739 201.993C150.465 211.344 152.833 220.225 159.241 226.354L160.745 227.796L160.45 229.858C159.736 234.884 160.187 240.211 161.829 246.147C161.948 246.585 162.324 247.507 162.656 248.321C163.57 250.565 164.122 252.025 164.178 253.373C164.291 256.099 159.924 266.44 159.88 266.541C155.075 277.596 147.345 285.061 139.871 292.275C135.216 296.769 130.399 301.419 126.446 306.859C124.335 309.755 122.449 312.7 120.62 315.546C116.404 322.114 112.037 328.908 105.021 334.968C102.621 337.037 99.8273 338.817 97.1273 340.534C94.0889 342.464 91.226 344.288 89.2338 346.294C89.1774 346.356 89.0271 346.613 88.9143 346.801C88.5008 347.485 87.8744 348.525 86.753 349.352L80.3944 354.04L80.2941 346.137V346.15Z" fill="#B1D686"/>
<path d="M148.798 201.04C146.292 211.356 148.71 221.898 156.441 229.293C155.577 235.392 156.297 241.346 157.926 247.231C158.377 248.873 160.081 252.301 160.131 253.548C160.181 254.758 156.898 263.257 156.165 264.93C148.735 282.028 133.669 290.05 123.169 304.477C116.084 314.217 111.862 323.706 102.371 331.904C97.5783 336.04 90.5807 339.18 86.352 343.448C85.5126 344.294 85.2056 345.46 84.3411 346.093C84.0529 323.299 109.632 313.459 110.684 290.783C111.429 274.657 95.9182 262.762 83.4014 255.661C77.3372 252.22 68.9614 249.982 66.7249 242.349C63.6928 231.995 70.8783 222.65 78.1015 216.126C82.3677 216.665 86.6778 216.934 90.9879 216.934C97.4718 216.934 103.949 216.314 110.296 215.029C123.752 212.309 136.125 206.029 148.792 201.034M160.369 187.759L145.822 193.494C142.433 194.829 139.057 196.258 135.793 197.643C126.565 201.548 117.851 205.233 108.692 207.088C102.972 208.247 97.0145 208.83 90.9879 208.83C87.0537 208.83 83.0568 208.58 79.1101 208.085L75.4202 207.621L72.6638 210.109C57.0836 224.186 56.6012 236.651 58.9379 244.636C61.7006 254.069 69.7758 257.979 75.6708 260.831C77.024 261.489 78.3082 262.11 79.392 262.724C90.2675 268.891 103.116 278.706 102.571 290.413C102.177 298.893 97.027 305.361 91.0568 312.844C84.0216 321.669 76.0404 331.672 76.2221 346.2L76.4226 362L89.1398 352.624C90.9127 351.32 91.8587 349.747 92.3661 348.907L92.3849 348.876C94.0638 347.284 96.601 345.667 99.2823 343.962C102.108 342.163 105.027 340.308 107.652 338.046C115.113 331.603 119.642 324.558 124.015 317.746C125.813 314.95 127.667 312.055 129.71 309.253C133.456 304.101 137.935 299.777 142.678 295.202C150.439 287.706 158.465 279.959 163.589 268.164C164.04 267.13 165.105 264.422 166.045 261.846C168.006 256.475 168.287 254.902 168.219 253.21C168.131 251.06 167.329 249.086 166.402 246.805C166.164 246.228 165.813 245.351 165.719 245.05C164.241 239.691 163.821 234.903 164.454 230.44L165.036 226.316L162.029 223.44C156.698 218.338 154.737 210.874 156.66 202.97L160.356 187.772L160.369 187.759Z" fill="#0A3536"/>
<path d="M148.917 201.115C146.906 204.562 145.033 208.172 142.17 211.024C136.513 216.84 128.908 220.325 121.265 222.7C113.666 225.076 105.791 226.511 98.255 228.955C94.515 230.133 90.8313 231.487 87.1853 232.941C80.2817 235.73 72.4258 239.798 69.2496 246.861L68.9802 246.773C69.7821 242.743 72.6263 239.347 75.6583 236.72C81.9105 231.381 89.6975 228.523 97.4594 226.254C112.538 222.211 129.566 221.397 141.563 210.404C144.507 207.746 146.524 204.274 148.679 200.965L148.924 201.115H148.917Z" fill="#7CB770"/>
<path d="M148.742 202.4C147.151 209.639 142.803 215.875 138.555 221.804C135.279 226.248 131.545 230.622 126.803 233.637C122.098 236.651 116.516 238.156 111.386 239.954C107.996 241.12 104.632 242.411 101.356 243.853C98.0795 245.282 94.9346 246.974 91.9527 248.961C88.9707 250.947 86.1955 253.273 83.5079 255.761L83.2949 255.573C89.5721 246.241 99.89 240.312 110.54 237.272C117.506 235.354 124.56 233.687 130.054 228.798C135.436 224.066 139.877 218.1 143.887 212.158C145.822 209.1 147.476 205.835 148.466 202.331L148.742 202.4Z" fill="#7CB770"/>
<path d="M149.431 204.236C144.745 214.07 145.641 225.307 141.951 235.479C139.476 242.355 135.479 249.023 129.534 253.461C127.31 255.059 124.754 256.256 122.355 257.447C118.408 259.44 114.386 261.408 110.515 263.501C107.445 265.174 104.288 266.829 102.208 269.762L101.957 269.624C103.361 266.183 106.499 263.858 109.462 261.802C112.426 259.728 115.545 257.91 118.653 256.143C121.597 254.419 125.105 252.959 127.949 251.142C136.701 245.194 141.143 234.802 143.116 224.681C144.595 217.73 145.672 210.422 149.174 204.111L149.425 204.242L149.431 204.236Z" fill="#7CB770"/>
<path d="M149.318 206.561C146.111 216.596 148.447 227.15 147.858 237.466C147.094 250.095 141.757 262.373 134.057 272.319C130.042 277.352 123.558 279.759 118.653 283.287C115.301 285.637 112.67 288.771 110.49 292.243L110.233 292.118C111.73 288.232 114.117 284.522 117.4 281.733C118.997 280.304 120.764 279.094 122.493 277.929C125.895 275.735 129.209 273.535 131.765 270.445C133.055 268.897 134.27 267.28 135.404 265.594C140.003 258.894 143.586 251.373 145.302 243.401C147.558 233.292 145.634 222.719 147.407 212.515C147.783 210.46 148.316 208.435 149.03 206.474L149.299 206.568L149.318 206.561Z" fill="#7CB770"/>
<path d="M109.65 230.741C120.45 217.874 140.028 237.56 125.863 248.346C115.032 256.6 100.56 241.565 109.65 230.741Z" fill="#0A3536"/>
<path d="M124.642 232.69C124.297 232.139 123.05 231.838 122.48 231.656C120.344 230.992 118.164 230.985 116.234 232.258C114.292 233.536 113.121 235.893 113.115 238.205C113.102 241.49 115.633 244.429 118.941 244.686C123.113 245.006 126.803 241.22 127.241 237.24C129.566 247.13 116.98 251.611 111.411 243.313C109.951 241.145 109.45 237.773 110.396 235.297C113.34 227.607 121.49 227.664 124.654 232.696L124.642 232.69Z" fill="#F5DF8F"/>
<g style="mix-blend-mode:multiply" opacity="0.5">
<path d="M157.926 247.231C156.297 241.346 155.576 235.392 156.441 229.293C154.023 226.975 152.118 224.355 150.728 221.522C150.559 221.177 150.396 220.82 150.239 220.469C150.195 220.375 150.158 220.281 150.114 220.181C149.995 219.892 149.876 219.61 149.763 219.316C149.732 219.234 149.7 219.153 149.669 219.071C149.531 218.708 149.406 218.344 149.281 217.975C149.262 217.912 149.243 217.849 149.224 217.786C149.124 217.479 149.03 217.166 148.942 216.853C148.911 216.752 148.886 216.646 148.855 216.546C148.767 216.226 148.685 215.9 148.61 215.58C148.598 215.524 148.585 215.468 148.573 215.411C148.485 215.035 148.41 214.653 148.341 214.27C148.322 214.176 148.31 214.082 148.291 213.995C148.241 213.694 148.19 213.393 148.147 213.092C148.134 212.986 148.115 212.885 148.103 212.779C148.053 212.39 148.009 212.002 147.971 211.613C147.934 211.225 147.909 210.836 147.89 210.447C147.89 210.341 147.877 210.228 147.877 210.121C147.865 209.814 147.858 209.507 147.852 209.2C147.852 209.106 147.852 209.006 147.852 208.912C147.852 208.523 147.852 208.128 147.871 207.734C147.871 207.658 147.877 207.589 147.883 207.514C147.896 207.188 147.915 206.862 147.94 206.536C147.946 206.417 147.959 206.305 147.965 206.186C147.99 205.853 148.028 205.527 148.065 205.195C148.071 205.126 148.078 205.051 148.09 204.982C148.14 204.587 148.197 204.192 148.253 203.798C148.272 203.697 148.284 203.597 148.303 203.491C148.353 203.183 148.41 202.876 148.472 202.569C148.497 202.456 148.516 202.344 148.541 202.224C148.623 201.83 148.71 201.429 148.804 201.034C147.871 201.403 146.938 201.78 146.004 202.162C145.622 202.319 145.24 202.475 144.858 202.632C144.363 202.832 143.874 203.039 143.385 203.246C142.07 203.798 140.748 204.349 139.432 204.907L139.407 204.919C138.399 205.346 137.384 205.772 136.375 206.198C127.899 209.77 119.354 213.205 110.314 215.029C99.7521 217.166 88.8015 217.467 78.114 216.119C76.7295 217.367 75.3513 218.727 74.042 220.168C76.7796 220.789 79.5298 221.365 82.2925 221.854C91.8086 222.719 101.45 222.606 110.978 222.28C118.44 222.023 125.895 221.647 133.331 220.983C136.889 220.068 140.404 219.034 143.874 217.855C144.607 220.337 145.302 222.838 145.992 225.326C148.823 235.624 151.473 245.996 155.182 256.018C155.84 257.321 156.535 258.594 157.293 259.835C157.5 260.06 157.713 260.273 157.926 260.493C159.016 257.578 160.175 254.269 160.143 253.542C160.093 252.295 158.389 248.867 157.938 247.225L157.926 247.231Z" fill="#B1D686"/>
</g>
<path d="M89.24 217.993C66.4805 217.993 48.7828 209.927 38.039 194.672C31.768 185.766 29.8385 176.315 27.9654 167.171C26.7876 161.417 25.6788 155.984 23.5551 150.587C21.7634 146.037 18.8002 141.243 15.6553 136.166C9.64126 126.445 3.42046 116.392 4.10331 105.825C4.72977 96.1109 19.3703 92.5949 23.8432 91.7488C27.7837 91.003 31.9748 90.627 36.3099 90.627C69.3748 90.627 104.206 112.118 117.65 121.356C126.872 127.692 138.18 136.649 152.225 148.72C154.912 150.65 185.296 172.536 196.278 183.635L202.492 189.922L193.678 190.536C193.521 190.548 178.123 191.683 160.958 196.998L159.398 197.656C156.999 198.658 153.979 199.968 150.784 201.353C141.118 205.546 129.096 210.767 121.453 213.055C110.671 216.282 99.5328 217.993 89.2463 217.993H89.24Z" fill="#B1D686"/>
<path d="M36.3099 94.6754C63.6426 94.6754 94.4585 110.331 115.357 124.69C126.521 132.361 139.47 143.085 149.719 151.903C149.719 151.903 182.258 175.218 193.396 186.481C193.396 186.481 176.381 187.665 157.694 193.77C157.744 193.813 157.788 193.857 157.832 193.901C148.322 197.875 130.23 206.185 120.281 209.162C110.584 212.064 99.8336 213.926 89.24 213.926C70.6528 213.926 52.5291 208.197 41.3593 192.322C31.8683 178.834 33.0962 163.73 27.3327 149.089C21.9639 135.445 7.22314 120.522 8.15031 106.076C8.55125 99.8585 19.4392 96.6998 24.6013 95.722C28.4039 95.0013 32.3194 94.6691 36.3099 94.6691M36.3099 86.5591C31.7242 86.5591 27.2763 86.9602 23.0853 87.7562C16.4259 89.0159 0.84572 93.2778 0.0563734 105.556C-0.707915 117.414 6.15188 128.507 12.2098 138.29C15.2544 143.21 18.1299 147.854 19.7838 152.066C21.7822 157.137 22.8535 162.401 23.9936 167.979C25.9482 177.531 27.9654 187.402 34.725 197.004C46.252 213.387 65.1023 222.048 89.24 222.048C99.915 222.048 111.455 220.281 122.606 216.94C130.48 214.577 142.634 209.307 152.394 205.07C155.576 203.691 158.584 202.387 160.952 201.397L162.392 200.795C178.969 195.694 193.803 194.591 193.96 194.578L211.551 193.325L199.153 180.784C188.109 169.621 158.239 148.049 154.724 145.523C140.635 133.408 129.252 124.408 119.937 118.003C106.186 108.551 70.5024 86.5591 36.3037 86.5591H36.3099Z" fill="#0A3536"/>
<path d="M190.953 186.142C174.283 182.557 158.139 176.409 143.229 168.017C110.177 149.359 83.5769 118.323 45.6819 109.398C43.9341 108.909 41.3092 108.458 39.5175 108.088L36.3977 107.643C35.6334 107.511 34.0422 107.33 33.2654 107.286C30.2458 106.991 26.8378 106.853 23.812 107.01C23.0039 107.054 21.4753 107.066 20.6546 107.185C16.4385 107.48 12.2976 108.389 8.18796 109.498L8.09399 109.229C12.0094 107.699 16.3195 106.534 20.5043 105.894C41.8918 102.867 63.9497 110.401 81.804 121.908C89.002 126.533 95.8681 131.672 102.64 136.887C132.247 160.615 154.035 176.334 190.947 186.136L190.953 186.142Z" fill="#7CB770"/>
<path d="M189.55 186.506C156.071 187.427 126.559 169.132 97.24 155.501C77.6629 146.588 56.8079 138.836 35.0069 139.268C31.3984 139.343 27.7963 139.707 24.1941 140.221L24.1377 139.945C31.2168 138.058 38.6153 137.394 45.9387 137.695C83.2698 139.268 113.666 163.924 147.295 177.092C157.387 181.116 167.88 184.262 178.687 185.584C182.289 185.998 185.916 186.211 189.543 186.224V186.506H189.55Z" fill="#7CB770"/>
<path d="M183.868 182.726C171.526 186.286 158.433 185.045 145.879 183.435C133.262 181.805 120.563 179.975 108.316 176.396C90.1296 171.057 71.1665 168.819 52.2347 169.126C45.9136 169.233 39.5801 169.559 33.2402 170.073L33.2026 169.791C39.4422 168.512 45.7758 167.616 52.147 167.133C64.9018 166.143 77.8509 166.707 90.4115 169.283C96.6636 170.549 102.847 172.379 108.942 174.209C121.058 178.045 133.544 180.119 146.085 182.025C152.35 183.021 158.634 183.905 164.955 184.162C171.269 184.419 177.647 184.03 183.792 182.444L183.868 182.72V182.726Z" fill="#7CB770"/>
<path d="M185.872 185.146C179.94 186.7 173.713 186.067 167.68 186.286C161.616 186.569 155.815 188.436 150.026 190.153C141.255 192.692 132.391 195.838 123.101 196.007C101.682 195.963 81.0897 188.756 59.7836 189.376C53.7884 189.608 47.7931 190.479 42.0108 192.378L41.9043 192.115C47.4485 189.47 53.5378 188.004 59.6458 187.383C78.0702 185.409 96.0184 191.188 114.117 193.312C120.1 193.995 126.039 194.321 132.003 193.143C142.433 191.332 152.526 187.339 163.05 185.766C167.605 185.14 172.24 185.572 176.782 185.666C179.808 185.729 182.834 185.472 185.81 184.864L185.872 185.14V185.146Z" fill="#7CB770"/>
<path d="M92.3537 134.756C93.9449 129.717 98.988 127.924 103.724 127.141C109.531 126.176 115.539 126.464 121.328 126.671C121.666 126.683 122.023 126.683 122.311 126.508C124.191 125.342 117.469 121.939 116.504 121.651C113.986 120.905 111.304 120.886 108.679 121.068C99.1884 121.707 91.7961 121.607 83.8525 126.834L92.3537 134.762V134.756Z" fill="#0A3536"/>
<path d="M101.437 150.819C84.9864 161.637 68.1721 136.204 85.5941 125.637C100.41 116.656 117.199 140.459 101.437 150.819Z" fill="#0A3536"/>
<path d="M101.425 132.042C101.055 131.327 99.5642 130.826 98.8751 130.544C96.3191 129.497 93.6441 129.259 91.132 130.619C88.6136 131.985 86.9222 134.756 86.6653 137.588C86.302 141.618 89.096 145.504 93.1304 146.169C98.2236 147.008 103.16 142.753 104.119 137.902C105.923 150.299 89.9793 154.467 84.0216 143.68C82.4617 140.86 82.1986 136.661 83.627 133.721C88.0561 124.584 98.067 125.53 101.419 132.042H101.425Z" fill="#F5DF8F"/>
<g style="mix-blend-mode:multiply" opacity="0.5">
<path d="M149.713 151.903C149.425 151.653 149.124 151.402 148.83 151.145C148.397 151.791 147.921 152.411 147.395 153C147.113 153.464 146.837 153.94 146.574 154.417C146.267 155.401 146.004 156.397 145.779 157.406C145.647 159.819 145.71 162.232 145.91 164.645C147.458 173.332 150.321 181.837 153.641 190.003C154.33 191.601 155.032 193.193 155.721 194.791C156.46 194.478 157.162 194.177 157.826 193.901C157.782 193.857 157.738 193.814 157.688 193.77C176.375 187.665 193.39 186.481 193.39 186.481C182.252 175.218 149.713 151.903 149.713 151.903Z" fill="#B1D686"/>
</g>
<path d="M295.247 349.358C294.126 348.531 293.499 347.497 293.086 346.808C292.973 346.62 292.816 346.363 292.748 346.287C290.774 344.294 287.905 342.471 284.873 340.54C282.173 338.823 279.372 337.043 276.979 334.975C269.963 328.914 265.596 322.12 261.38 315.552C259.551 312.707 257.665 309.761 255.554 306.865C251.595 301.425 246.784 296.781 242.129 292.281C234.655 285.061 226.925 277.596 222.12 266.541C222.076 266.44 217.709 256.099 217.822 253.373C217.879 252.025 218.436 250.565 219.345 248.321C219.677 247.507 220.046 246.585 220.171 246.147C221.813 240.218 222.264 234.89 221.55 229.858L221.255 227.796L222.759 226.354C229.167 220.225 231.536 211.344 229.261 201.993L227.413 194.396L234.687 197.261C238.026 198.577 241.384 200 244.629 201.372C253.631 205.183 262.947 209.119 272.5 211.055C278.483 212.265 284.71 212.879 291.006 212.879C295.109 212.879 299.275 212.616 303.391 212.102L305.233 211.87L306.611 213.117C320.631 225.784 321.177 236.626 319.166 243.489C316.91 251.192 310.057 254.514 304.556 257.177C303.141 257.86 301.8 258.512 300.597 259.195C288.738 265.927 274.73 276.832 275.363 290.601C275.814 300.397 281.615 307.674 287.761 315.377C294.696 324.076 301.875 333.076 301.706 346.15L301.606 354.053L295.247 349.365V349.358Z" fill="#B1D686"/>
<path d="M233.202 201.04C245.869 206.035 258.242 212.309 271.698 215.035C278.044 216.32 284.528 216.94 291.006 216.94C295.316 216.94 299.626 216.665 303.892 216.132C311.115 222.656 318.301 232.001 315.269 242.355C313.032 249.988 304.657 252.226 298.592 255.667C286.076 262.768 270.564 274.663 271.31 290.789C272.356 313.465 297.935 323.305 297.653 346.099C296.788 345.46 296.481 344.301 295.642 343.454C291.413 339.186 284.415 336.046 279.623 331.91C270.126 323.712 265.91 314.217 258.824 304.484C248.325 290.056 233.258 282.027 225.828 264.936C225.102 263.263 221.813 254.77 221.863 253.555C221.913 252.307 223.617 248.879 224.068 247.237C225.697 241.352 226.417 235.398 225.553 229.3C233.283 221.904 235.701 211.369 233.196 201.046M221.631 187.759L225.327 202.958C227.25 210.867 225.296 218.325 219.958 223.427L216.951 226.304L217.534 230.428C218.167 234.896 217.753 239.685 216.262 245.068C216.181 245.344 215.824 246.222 215.586 246.798C214.658 249.086 213.857 251.06 213.769 253.204C213.7 254.896 213.982 256.475 215.943 261.84C216.882 264.41 217.947 267.124 218.398 268.158C223.523 279.953 231.548 287.699 239.31 295.195C244.052 299.771 248.525 304.095 252.278 309.247C254.32 312.048 256.174 314.944 257.972 317.739C262.345 324.552 266.868 331.597 274.336 338.039C276.961 340.302 279.88 342.163 282.705 343.956C285.386 345.661 287.924 347.278 289.603 348.87L289.621 348.901C290.129 349.747 291.081 351.314 292.848 352.617L305.565 361.994L305.765 346.193C305.947 331.672 297.972 321.663 290.931 312.838C284.96 305.355 279.805 298.887 279.416 290.407C278.877 278.699 291.726 268.885 302.595 262.718C303.686 262.103 304.964 261.483 306.317 260.825C312.212 257.967 320.293 254.062 323.05 244.63C325.386 236.645 324.904 224.179 309.324 210.103L306.567 207.614L302.877 208.078C298.931 208.573 294.934 208.824 291 208.824C284.973 208.824 279.015 208.235 273.296 207.082C264.137 205.226 255.423 201.541 246.195 197.637C242.931 196.252 239.548 194.823 236.165 193.488L221.619 187.753L221.631 187.759Z" fill="#0A3536"/>
<path d="M233.321 200.965C235.47 204.268 237.493 207.74 240.437 210.404C249.289 218.564 261.305 221.19 272.826 223.584C284.553 225.991 296.913 228.836 306.342 236.72C309.374 239.347 312.218 242.743 313.02 246.773L312.75 246.861C309.574 239.792 301.718 235.73 294.815 232.941C287.491 229.97 280.024 227.652 272.318 225.815C259.025 222.587 243.889 218.576 236.115 206.28C235.044 204.587 234.085 202.839 233.083 201.128L233.327 200.977L233.321 200.965Z" fill="#7CB770"/>
<path d="M233.534 202.331C235.545 209.388 240.068 215.28 244.566 220.939C246.834 223.772 249.227 226.492 251.946 228.798C257.434 233.687 264.488 235.348 271.46 237.272C282.11 240.312 292.428 246.241 298.705 255.573L298.492 255.761C295.798 253.273 293.023 250.947 290.047 248.961C287.065 246.974 283.921 245.282 280.644 243.853C277.368 242.411 274.004 241.12 270.614 239.954C263.717 237.648 256.137 235.442 250.73 230.19C247.968 227.658 245.625 224.762 243.445 221.81C239.197 215.887 234.85 209.645 233.258 202.406L233.534 202.337V202.331Z" fill="#7CB770"/>
<path d="M232.82 204.104C238.076 213.568 237.781 224.937 241.772 234.827C244.366 241.195 248.256 247.287 254.044 251.135C256.895 252.953 260.397 254.413 263.341 256.137C266.449 257.91 269.568 259.722 272.531 261.796C275.495 263.858 278.64 266.183 280.037 269.618L279.786 269.756C277.706 266.823 274.549 265.168 271.479 263.495C266.831 261.006 261.976 258.619 257.239 256.256C252.19 253.949 247.899 249.951 244.898 245.288C240.814 239.215 238.565 232.082 237.481 224.931C236.911 221.39 236.46 217.849 235.758 214.371C235.069 210.886 234.085 207.458 232.563 204.236L232.814 204.104H232.82Z" fill="#7CB770"/>
<path d="M232.945 206.467C237.324 218.3 233.954 231.305 236.673 243.395C238.389 251.373 241.973 258.888 246.571 265.588C247.705 267.274 248.92 268.891 250.211 270.439C252.773 273.529 256.081 275.729 259.482 277.922C261.211 279.088 262.978 280.298 264.575 281.726C267.858 284.515 270.245 288.232 271.742 292.112L271.485 292.237C269.311 288.765 266.674 285.631 263.322 283.281C258.417 279.752 251.933 277.339 247.918 272.313C241.427 264.002 236.823 254.112 234.85 243.746C233.277 235.498 234.455 227.05 234.392 218.758C234.348 214.634 233.916 210.504 232.657 206.561L232.926 206.467H232.945Z" fill="#7CB770"/>
<path d="M256.137 248.347C241.972 237.554 261.556 217.874 272.35 230.741C281.44 241.571 266.968 256.601 256.137 248.347Z" fill="#0A3536"/>
<path d="M257.358 232.691C257.703 232.139 258.949 231.838 259.519 231.656C261.656 230.992 263.836 230.986 265.765 232.258C267.707 233.537 268.879 235.893 268.885 238.206C268.898 241.49 266.367 244.429 263.059 244.686C258.887 245.006 255.197 241.221 254.758 237.241C252.434 247.131 265.02 251.612 270.589 243.314C272.049 241.145 272.55 237.773 271.604 235.298C268.659 227.608 260.509 227.664 257.346 232.697L257.358 232.691Z" fill="#F5DF8F"/>
<g style="mix-blend-mode:multiply" opacity="0.5">
<path d="M224.074 247.231C225.703 241.346 226.423 235.392 225.559 229.293C227.977 226.975 229.882 224.355 231.272 221.522C231.442 221.177 231.604 220.82 231.761 220.469C231.805 220.375 231.842 220.281 231.886 220.181C232.005 219.892 232.124 219.61 232.237 219.316C232.268 219.234 232.3 219.153 232.331 219.071C232.469 218.708 232.594 218.344 232.719 217.975C232.738 217.912 232.757 217.849 232.776 217.786C232.876 217.479 232.97 217.166 233.058 216.853C233.089 216.752 233.114 216.646 233.145 216.546C233.233 216.226 233.315 215.9 233.39 215.58C233.402 215.524 233.415 215.468 233.427 215.411C233.515 215.035 233.59 214.653 233.659 214.27C233.678 214.176 233.691 214.082 233.709 213.995C233.759 213.694 233.81 213.393 233.853 213.092C233.866 212.986 233.885 212.885 233.897 212.779C233.947 212.39 233.991 212.002 234.029 211.613C234.066 211.225 234.091 210.836 234.11 210.447C234.11 210.341 234.123 210.228 234.123 210.121C234.135 209.814 234.142 209.507 234.148 209.2C234.148 209.106 234.148 209.006 234.148 208.912C234.148 208.523 234.148 208.128 234.129 207.734C234.129 207.658 234.123 207.589 234.116 207.514C234.104 207.188 234.085 206.862 234.06 206.536C234.054 206.417 234.041 206.305 234.035 206.186C234.01 205.853 233.972 205.527 233.935 205.195C233.929 205.126 233.922 205.051 233.91 204.982C233.86 204.587 233.803 204.192 233.747 203.798C233.728 203.697 233.716 203.597 233.697 203.491C233.647 203.183 233.59 202.876 233.528 202.569C233.503 202.456 233.484 202.344 233.459 202.224C233.377 201.83 233.29 201.429 233.196 201.034C234.129 201.403 235.062 201.78 235.996 202.162C236.378 202.319 236.76 202.475 237.142 202.632C237.637 202.832 238.126 203.039 238.615 203.246C239.93 203.798 241.252 204.349 242.568 204.907L242.593 204.919C243.601 205.346 244.616 205.772 245.625 206.198C254.101 209.77 262.646 213.205 271.686 215.029C282.248 217.166 293.198 217.467 303.886 216.119C305.27 217.367 306.649 218.727 307.958 220.168C305.22 220.789 302.47 221.365 299.707 221.854C290.191 222.719 280.55 222.606 271.022 222.28C263.56 222.023 256.105 221.647 248.669 220.983C245.111 220.068 241.596 219.034 238.126 217.855C237.393 220.337 236.698 222.838 236.008 225.326C233.177 235.624 230.527 245.996 226.818 256.018C226.16 257.321 225.465 258.594 224.707 259.835C224.5 260.06 224.287 260.273 224.074 260.493C222.984 257.578 221.825 254.269 221.857 253.542C221.907 252.295 223.611 248.867 224.062 247.225L224.074 247.231Z" fill="#B1D686"/>
</g>
<path d="M292.76 217.993C282.473 217.993 271.335 216.288 260.56 213.054C252.917 210.767 240.889 205.546 231.229 201.353C228.034 199.968 225.008 198.652 222.615 197.655L220.992 196.978C203.852 191.676 188.491 190.548 188.334 190.535L179.526 189.915L185.735 183.635C196.717 172.529 227.1 150.65 229.788 148.719C243.827 136.642 255.141 127.692 264.362 121.356C277.806 112.117 312.638 90.6265 345.703 90.6265C350.032 90.6265 354.229 91.0025 358.169 91.7483C362.642 92.5944 377.283 96.1167 377.909 105.825C378.592 116.392 372.371 126.445 366.357 136.166C363.212 141.242 360.249 146.043 358.457 150.587C356.334 155.983 355.219 161.417 354.047 167.17C352.18 176.308 350.245 185.766 343.974 194.672C333.236 209.927 315.532 217.993 292.779 217.993H292.76Z" fill="#B1D686"/>
<path d="M345.69 94.6753C349.681 94.6753 353.602 95.0075 357.399 95.7282C362.561 96.706 373.449 99.8647 373.85 106.082C374.783 120.528 360.042 135.457 354.667 149.095C348.904 163.742 350.132 178.847 340.641 192.328C329.471 208.203 311.347 213.932 292.76 213.932C282.167 213.932 271.416 212.07 261.719 209.169C251.77 206.185 233.678 197.875 224.168 193.907C224.212 193.864 224.256 193.82 224.306 193.776C205.619 187.671 188.604 186.487 188.604 186.487C199.742 175.224 232.281 151.909 232.281 151.909C242.53 143.091 255.479 132.368 266.643 124.696C287.535 110.331 318.351 94.6816 345.69 94.6816M345.69 86.559C311.491 86.559 275.808 108.545 262.057 118.003C252.741 124.408 241.365 133.408 227.269 145.523C223.755 148.049 193.885 169.615 182.84 180.783L170.405 193.356L188.04 194.584C188.19 194.597 203.025 195.7 219.601 200.795L221.042 201.397C223.41 202.387 226.417 203.691 229.6 205.07C239.366 209.306 251.52 214.584 259.388 216.94C270.546 220.281 282.079 222.048 292.754 222.048C316.885 222.048 335.736 213.387 347.269 197.003C354.028 187.402 356.046 177.531 358 167.979C359.14 162.401 360.218 157.136 362.21 152.066C363.864 147.854 366.739 143.21 369.784 138.29C375.842 128.507 382.702 117.414 381.937 105.549C381.148 93.2714 365.568 89.0096 358.909 87.7498C354.724 86.9538 350.276 86.5527 345.69 86.5527V86.559Z" fill="#0A3536"/>
<path d="M190.984 185.86C224.951 178.42 252.817 158.409 279.354 136.886C286.126 131.672 292.992 126.532 300.196 121.907C318.05 110.4 340.108 102.867 361.496 105.894C365.674 106.533 369.984 107.693 373.906 109.228L373.812 109.498C369.703 108.388 365.568 107.479 361.345 107.185C360.5 107.066 359.059 107.053 358.188 107.009C329.126 106.101 303.291 121.681 280.726 138.704C267.094 148.851 253.694 159.581 238.771 168.01C223.999 176.089 207.122 183.296 190.984 185.86Z" fill="#7CB770"/>
<path d="M192.457 186.224C221.976 186.224 248.344 171.313 273.916 158.158C293.28 148.042 313.872 138.572 336.061 137.701C343.391 137.4 350.783 138.065 357.862 139.951L357.806 140.227C354.204 139.713 350.602 139.35 346.993 139.274C321.483 138.829 297.477 149.271 274.931 160.189C255.416 169.759 235.733 180.188 214.195 184.538C207.041 185.973 199.742 186.712 192.444 186.512V186.23L192.457 186.224Z" fill="#7CB770"/>
<path d="M198.208 182.45C210.593 185.622 223.467 184.005 235.914 182.031C245.311 180.539 254.715 179.154 263.924 176.785C273.152 174.397 282.21 171.157 291.588 169.283C304.143 166.7 317.092 166.143 329.853 167.133C336.224 167.616 342.558 168.518 348.797 169.79L348.76 170.072C342.42 169.558 336.086 169.239 329.765 169.126C316.378 168.932 302.953 169.966 289.797 172.46C281.22 174.077 272.92 176.785 264.419 178.784C255.097 180.959 245.575 182.15 236.121 183.434C223.573 185.045 210.474 186.286 198.132 182.726L198.208 182.45Z" fill="#7CB770"/>
<path d="M196.19 184.87C203.695 186.606 211.363 184.763 218.95 185.772C229.481 187.345 239.567 191.338 249.997 193.149C255.961 194.327 261.9 194.001 267.883 193.318C285.982 191.187 303.93 185.415 322.354 187.389C328.462 188.003 334.552 189.47 340.096 192.121L339.989 192.384C334.207 190.485 328.212 189.614 322.216 189.382C300.91 188.768 280.318 195.969 258.9 196.013C249.609 195.838 240.745 192.698 231.974 190.159C226.186 188.436 220.384 186.568 214.32 186.292C208.287 186.073 202.06 186.7 196.128 185.152L196.19 184.876V184.87Z" fill="#7CB770"/>
<path d="M289.646 134.755C288.055 129.716 283.012 127.924 278.276 127.14C272.469 126.175 266.461 126.464 260.672 126.67C260.334 126.683 259.977 126.683 259.689 126.507C257.809 125.342 264.531 121.938 265.496 121.65C268.014 120.904 270.696 120.886 273.321 121.067C282.812 121.707 290.204 121.606 298.147 126.833L289.646 134.762V134.755Z" fill="#0A3536"/>
<path d="M296.406 125.636C313.834 136.203 297.02 161.636 280.562 150.819C264.801 140.453 281.59 116.655 296.406 125.636Z" fill="#0A3536"/>
<path d="M280.575 132.041C280.945 131.327 282.436 130.825 283.125 130.543C285.681 129.497 288.356 129.259 290.868 130.619C293.386 131.985 295.078 134.755 295.335 137.588C295.698 141.618 292.904 145.504 288.869 146.168C283.776 147.008 278.84 142.752 277.881 137.901C276.077 150.298 292.021 154.466 297.978 143.68C299.538 140.86 299.801 136.66 298.373 133.721C293.944 124.583 283.933 125.529 280.581 132.041H280.575Z" fill="#F5DF8F"/>
<g style="mix-blend-mode:multiply" opacity="0.5">
<path d="M232.287 151.903C232.575 151.652 232.876 151.401 233.171 151.145C233.603 151.79 234.079 152.411 234.605 153C234.887 153.463 235.163 153.94 235.426 154.416C235.733 155.4 235.996 156.397 236.221 157.406C236.353 159.819 236.29 162.232 236.09 164.645C234.543 173.331 231.68 181.836 228.359 190.003C227.67 191.601 226.969 193.193 226.279 194.791C225.54 194.477 224.839 194.177 224.175 193.901C224.218 193.857 224.262 193.813 224.312 193.769C205.625 187.665 188.61 186.48 188.61 186.48C199.749 175.218 232.287 151.903 232.287 151.903Z" fill="#B1D686"/>
</g>
<g style="mix-blend-mode:multiply" opacity="0.5">
<path d="M110.302 215.035C102.816 216.551 95.1414 217.141 87.4985 216.877C87.605 218.438 87.7303 220.005 87.8807 221.565C89.3341 230.033 91.5142 238.356 94.5212 246.403C97.3403 252.37 100.642 258.086 104.432 263.488C111.198 271.498 119.035 278.737 127.185 285.336C129.866 287.298 132.604 289.185 135.386 290.99C143.304 283.306 151.342 276.023 156.165 264.93C156.892 263.256 160.181 254.764 160.131 253.548C160.081 252.301 158.377 248.873 157.926 247.23C156.297 241.345 155.577 235.391 156.441 229.293C148.71 221.898 146.292 211.362 148.798 201.04C136.131 206.035 123.758 212.308 110.302 215.035Z" fill="#B1D686"/>
</g>
<g style="mix-blend-mode:multiply" opacity="0.5">
<path d="M193.39 186.487C182.251 175.224 149.713 151.91 149.713 151.91C142.089 145.348 132.974 137.739 124.203 131.114C123.151 132.217 122.098 133.314 121.027 134.398C116.817 138.66 112.626 142.997 108.742 147.573C104.031 154.385 100.184 161.749 96.6761 169.252C93.7067 175.6 90.8249 181.999 88.0246 188.43C87.2165 196.916 86.9346 205.408 87.3355 213.907C98.543 214.145 110.007 212.252 120.281 209.169C130.23 206.185 148.322 197.875 157.832 193.908C157.788 193.864 157.744 193.82 157.694 193.776C176.381 187.671 193.396 186.487 193.396 186.487H193.39Z" fill="#B1D686"/>
</g>
<g style="mix-blend-mode:multiply" opacity="0.5">
<path d="M243.752 288.219C249.327 284.935 254.734 281.382 259.952 277.558C267.564 271.329 274.68 264.491 280.989 256.939C286.383 249.405 291.106 241.301 295.022 232.903C296.87 227.958 298.379 222.9 299.426 217.73C299.451 217.347 299.463 216.965 299.482 216.583C290.21 217.347 280.807 216.877 271.692 215.035C258.235 212.315 245.863 206.035 233.196 201.04C235.701 211.356 233.283 221.898 225.553 229.293C226.417 235.391 225.697 241.345 224.068 247.23C223.617 248.873 221.913 252.301 221.863 253.548C221.813 254.758 225.095 263.256 225.828 264.93C230.07 274.688 236.798 281.494 243.752 288.219Z" fill="#B1D686"/>
</g>
<g style="mix-blend-mode:multiply" opacity="0.5">
<path d="M294.689 192.528C289.296 180.219 283.332 168.098 277.343 156.09C274.204 149.803 270.809 143.818 266.874 137.989C264.826 134.956 262.759 131.941 260.823 128.839C251.156 135.952 240.795 144.583 232.281 151.903C232.281 151.903 199.742 175.218 188.604 186.48C188.604 186.48 205.619 187.665 224.306 193.769C224.256 193.813 224.212 193.857 224.168 193.901C233.678 197.875 251.77 206.185 261.719 209.162C273.509 212.691 286.846 214.677 299.582 213.65C299.626 210.679 299.52 207.702 299.307 204.731C297.847 200.632 296.312 196.558 294.689 192.516V192.528Z" fill="#B1D686"/>
</g>
<path d="M190.99 297.935C180.541 297.935 167.504 290.708 158.878 285.926L158.784 285.876C153.772 283.1 148.754 279.972 143.874 276.594C137.998 272.545 132.554 268.277 127.699 263.915C121.941 258.726 117.331 253.724 113.603 248.616C109.281 242.712 106.436 237.078 104.92 231.4C103.248 225.145 103.373 218.796 105.271 213.024C106.349 209.752 107.771 206.975 109.494 204.788C109.913 204.249 112.319 201.817 114.436 199.793C116.291 198.019 117.525 196.922 118.377 196.246C117.086 194.077 116.209 191.163 115.764 187.553C115.27 183.429 116.04 179.393 116.786 175.488L116.811 175.344C117.775 170.286 119.241 165.585 121.158 161.367C121.196 161.28 121.24 161.173 121.296 161.067C126.427 149.942 135.661 140.196 147.307 133.609C148.128 133.145 148.936 132.675 149.75 132.205C151.191 131.372 152.682 130.507 154.192 129.704C155.533 129.002 156.71 128.426 157.813 127.943C158.27 127.743 158.784 127.58 159.285 127.423C159.924 127.223 160.726 126.972 161.052 126.715L161.29 126.527L161.584 126.445C164.497 125.612 168.651 124.647 171.683 124.108C176.895 123.18 182.521 122.71 188.409 122.71C190.132 122.71 191.918 122.748 193.709 122.829L194.806 122.879C199.191 123.067 203.733 123.268 208.181 123.989C213.042 124.778 217.509 126.727 221.825 128.608L221.894 128.639C229.211 131.829 237.65 135.94 244.804 142.239C251.601 148.225 256.982 156.36 260.365 165.755C261.267 168.255 262.019 170.844 262.596 173.445C262.871 174.667 263.009 175.927 263.147 177.143C263.303 178.553 263.454 179.888 263.792 181.104C264.738 184.356 265.728 188.179 265.371 192.109C265.245 193.538 264.951 194.936 264.475 196.377C264.456 198.834 265.559 199.737 267.501 201.347C268.472 202.156 269.581 203.065 270.683 204.324C285.223 220.92 274.461 243.452 260.829 257.704C247.423 271.724 212.008 295.246 193.697 297.765C192.832 297.884 191.924 297.941 190.984 297.941L190.99 297.935Z" fill="#FFFAC3"/>
<path d="M188.416 124.277C190.164 124.277 191.905 124.314 193.647 124.396C198.42 124.603 203.213 124.765 207.936 125.53C212.629 126.295 216.926 128.175 221.274 130.074C229.274 133.565 237.18 137.607 243.77 143.417C250.743 149.559 255.755 157.575 258.893 166.287C259.777 168.731 260.503 171.238 261.067 173.783C261.625 176.296 261.606 179.079 262.282 181.523C263.272 184.92 264.13 188.424 263.811 191.971C263.679 193.45 263.36 194.81 262.915 196.108C262.752 201.027 266.229 201.617 269.506 205.358C283.614 221.466 272.193 243.558 259.695 256.619C246.771 270.132 211.864 293.685 193.478 296.211C192.67 296.324 191.836 296.374 190.978 296.374C180.898 296.374 167.861 289.129 159.529 284.51C154.449 281.689 149.525 278.612 144.751 275.309C139.163 271.454 133.775 267.287 128.732 262.749C123.658 258.174 118.884 253.21 114.856 247.695C111.166 242.656 108.047 237.071 106.424 230.998C104.889 225.251 104.883 219.19 106.75 213.518C107.652 210.78 108.924 208.034 110.715 205.759C111.354 204.932 119.567 196.715 120.551 196.715C120.582 196.715 120.607 196.722 120.626 196.747C118.559 194.284 117.694 190.486 117.306 187.364C116.83 183.441 117.606 179.486 118.339 175.644C119.235 170.969 120.601 166.362 122.574 162.025C122.612 161.938 122.649 161.85 122.693 161.768C127.931 150.38 137.227 141.111 148.071 134.981C150.358 133.69 152.607 132.33 154.925 131.096C156.078 130.494 157.249 129.911 158.439 129.385C159.486 128.927 161.146 128.632 162.01 127.956C164.948 127.109 169.083 126.163 171.952 125.655C177.384 124.69 182.897 124.283 188.403 124.283M188.422 121.143C182.439 121.143 176.72 121.619 171.42 122.566C168.344 123.111 164.121 124.089 161.165 124.941L160.582 125.11L160.131 125.467C159.905 125.599 159.235 125.812 158.834 125.937C158.295 126.107 157.738 126.282 157.205 126.514C156.071 127.009 154.856 127.605 153.49 128.319C151.943 129.146 150.446 130.011 148.992 130.851C148.178 131.321 147.37 131.791 146.555 132.249C134.634 138.986 125.174 148.977 119.906 160.383C119.83 160.534 119.774 160.665 119.73 160.766C117.769 165.084 116.278 169.891 115.288 175.049L115.263 175.193C114.493 179.217 113.697 183.378 114.223 187.734C114.618 190.956 115.351 193.67 116.41 195.857C115.602 196.559 114.612 197.474 113.365 198.658C111.649 200.3 108.842 203.089 108.266 203.829C106.443 206.154 104.933 209.081 103.799 212.534C101.801 218.595 101.669 225.257 103.423 231.807C104.989 237.673 107.915 243.477 112.357 249.544C116.147 254.733 120.833 259.816 126.665 265.074C131.57 269.486 137.064 273.792 143.003 277.885C147.921 281.288 152.983 284.441 158.038 287.248L158.132 287.299C166.903 292.156 180.153 299.501 191.003 299.501C192.012 299.501 192.995 299.438 193.929 299.307C213.174 296.662 248.475 272.896 261.982 258.775C266.354 254.207 274.198 244.78 277.612 232.991C280.913 221.597 278.934 211.325 271.886 203.284C270.702 201.93 269.493 200.933 268.522 200.131C266.655 198.583 266.098 198.069 266.06 196.609C266.524 195.142 266.818 193.707 266.95 192.234C267.325 188.041 266.304 184.062 265.314 180.658C265.014 179.568 264.87 178.296 264.719 176.954C264.575 175.695 264.431 174.397 264.143 173.087C263.548 170.43 262.784 167.779 261.856 165.209C258.386 155.564 252.854 147.215 245.856 141.054C238.546 134.618 229.969 130.431 222.539 127.191L222.47 127.16C218.066 125.236 213.512 123.249 208.45 122.428C203.908 121.688 199.323 121.494 194.887 121.3L193.791 121.249C191.974 121.168 190.17 121.13 188.422 121.13V121.143Z" fill="#0A3536"/>
<path d="M161.171 254.313C161.171 254.313 168.782 269.963 185.252 271.323C201.722 272.689 215.21 254.313 215.21 254.313H161.171Z" fill="#67A465"/>
<path d="M310.239 18.5134C308.071 7.5078 304.688 8.29749 294.452 10.1903C257.258 17.0781 222.245 45.6074 213.725 82.3095C212.071 89.4418 211.144 96.7433 211.282 104.057C211.326 104.277 211.357 104.496 211.382 104.722C211.865 108.946 212.46 113.151 212.823 117.382C214.377 120.246 213.694 129.215 217.991 130.957C220.403 131.39 228.836 122.59 231.341 121.211C231.41 121.23 231.479 121.249 231.548 121.268C235.157 118.253 238.903 116.21 243.376 114.367C244.297 113.985 245.199 113.609 246.101 113.245C264.688 102.86 282.254 92.4627 295.04 75.0831C306.217 59.8909 313.935 37.2592 310.239 18.5134Z" fill="#EBC142"/>
<path d="M316.196 10.861C313.766 -1.78036 309.969 -0.877852 298.492 1.30321C256.776 9.2127 217.509 41.985 207.943 84.146C206.082 92.3375 205.049 100.73 205.205 109.128C205.249 109.379 205.287 109.629 205.318 109.886C205.863 114.737 206.527 119.576 206.934 124.433C208.676 127.717 207.912 138.027 212.735 140.026C215.442 140.528 224.895 130.412 227.708 128.826C227.783 128.845 227.858 128.87 227.94 128.895C231.987 125.436 236.19 123.085 241.208 120.967C242.242 120.535 243.251 120.096 244.265 119.676C265.114 107.749 284.81 95.7971 299.156 75.8354C311.692 58.3806 320.343 32.3896 316.202 10.8485L316.196 10.861ZM303.184 11.8325L242.154 74.0366C242.154 74.0366 240.801 75.9607 240.789 75.9795C240.676 76.1425 240.557 76.2929 240.431 76.4433C240.356 76.5436 240.275 76.6439 240.193 76.7504H240.206C234.135 84.2024 229.299 92.4315 224.532 100.742L216.125 119.927C210.06 66.5408 251.651 19.7608 303.184 11.8325ZM258.806 97.6962C244.09 105.568 230.577 113.722 219.232 126.15L233.215 96.2045L265.866 92.7198L258.806 97.7024V97.6962ZM284.917 74.8263C276.159 86.2393 263.83 89.3668 249.96 90.4071C245.738 90.7268 241.07 89.536 237.111 91.153L246.182 78.0729C259.67 77.3458 272.945 75.4844 286.069 72.4886C286.42 73.8361 285.512 74.0429 284.911 74.8201L284.917 74.8263ZM293.08 63.545C285.781 70.6898 260.434 72.0812 250.323 73.2595C249.966 71.8994 250.893 71.7052 251.482 70.928C252.804 69.1794 260.554 60.0352 261.75 59.4273C266.073 57.2086 280.4 56.0993 286.408 54.545C291.332 53.2727 296.312 51.4739 300.842 49.1612C301.512 49.976 294.483 62.1787 293.08 63.5512V63.545ZM301.242 42.1543C294.364 49.1424 276.848 51.944 267.426 53.8117L306.286 18.0435C307.401 24.0602 305.615 37.7107 301.242 42.1543Z" fill="#0A3536"/>
<path d="M86.9598 75.0895C99.746 92.469 117.306 102.873 135.899 113.252C136.801 113.615 137.704 113.998 138.624 114.374C143.104 116.216 146.844 118.266 150.452 121.274C150.521 121.255 150.59 121.237 150.659 121.218C153.165 122.597 161.597 131.402 164.009 130.964C168.306 129.221 167.624 120.246 169.177 117.388C169.547 113.158 170.136 108.946 170.618 104.728C170.643 104.502 170.674 104.283 170.718 104.064C170.856 96.7497 169.935 89.4481 168.275 82.3158C159.749 45.6138 124.742 17.0845 87.5487 10.1966C77.3185 8.30384 73.9294 7.51414 71.7618 18.5197C68.0656 37.2719 75.7774 59.8972 86.9598 75.0895Z" fill="#EBC142"/>
<path d="M82.8502 75.8418C97.19 95.8035 116.892 107.756 137.741 119.682C138.75 120.102 139.765 120.535 140.798 120.974C145.816 123.092 150.02 125.442 154.067 128.902C154.142 128.877 154.217 128.858 154.299 128.833C157.111 130.419 166.571 140.528 169.271 140.033C174.089 138.033 173.324 127.724 175.072 124.439C175.486 119.582 176.143 114.744 176.688 109.893C176.72 109.636 176.757 109.385 176.801 109.134C176.958 100.73 175.918 92.3439 174.064 84.1524C164.497 41.9852 125.224 9.20659 83.5079 1.2971C72.0311 -0.877695 68.2347 -1.7802 65.804 10.8549C61.6631 32.396 70.3146 58.387 82.8502 75.8418ZM165.876 119.921L157.468 100.736C152.707 92.4254 147.865 84.1963 141.794 76.7506H141.807C141.725 76.644 141.65 76.5438 141.569 76.4435C141.443 76.2931 141.324 76.1364 141.212 75.9797C141.199 75.9672 139.846 74.0368 139.846 74.0368L78.8157 11.8326C130.349 19.7547 171.94 66.541 165.876 119.927V119.921ZM116.134 92.7137L148.786 96.1984L162.768 126.144C151.423 113.716 137.91 105.562 123.195 97.69L116.134 92.7074V92.7137ZM95.9245 72.4887C109.055 75.4846 122.33 77.346 135.812 78.073L144.883 91.1531C140.917 89.5361 136.256 90.7269 132.034 90.4073C118.164 89.3669 105.835 86.2395 97.0772 74.8265C96.4758 74.0493 95.5674 73.8425 95.9182 72.495L95.9245 72.4887ZM81.1587 49.1551C85.688 51.4741 90.6684 53.2666 95.5925 54.5388C101.6 56.0932 115.928 57.2025 120.25 59.4212C121.447 60.0354 129.196 69.1733 130.518 70.9219C131.107 71.699 132.034 71.8996 131.677 73.2534C121.566 72.0751 96.2189 70.6837 88.9206 63.5389C87.5173 62.1663 80.4884 49.9636 81.1587 49.1489V49.1551ZM75.7147 18.0436L114.574 53.8118C105.146 51.9441 87.6364 49.1426 80.7578 42.1544C76.385 37.7108 74.5996 24.0604 75.7147 18.0436Z" fill="#0A3536"/>
<path d="M154.606 249.612C153.822 248.616 158.032 249.349 160.72 249.111C170.085 248.277 172.278 247.776 175.567 248.609C177.309 249.048 179.965 250.02 182.928 252.476C185.158 250.941 188.24 249.217 192.162 248.108C200.507 245.745 205.518 250.277 214.37 249.857C217.979 249.687 223.216 248.716 229.493 244.843C229.493 244.843 224.638 254.169 206.966 255.817C189.293 257.465 184.626 263.106 184.626 263.106C184.626 263.106 180.535 259.678 176.056 258.449C171.576 257.215 159.724 256.093 154.612 249.606L154.606 249.612Z" fill="#50803E"/>
<path d="M149.193 245.921C164.754 259.245 176.375 254.081 185.108 262.191C185.127 262.216 185.196 262.266 185.215 262.291C185.077 262.11 184.632 261.966 184.338 262.072C184.087 262.141 183.886 262.323 183.786 262.517C184.356 261.326 185.434 260.424 186.474 259.866C187.42 259.346 188.384 259.007 189.33 258.706C193.052 257.591 196.817 256.663 200.626 255.936C211.294 253.949 225.265 254.1 230.47 242.681C228.096 250.484 219.739 254.282 212.334 255.736C204.754 257.19 197.268 258.312 189.938 260.681C188.059 261.251 186.292 261.972 185.565 263.451C185.277 264.09 184.281 264.266 183.799 263.733C183.761 263.702 183.717 263.651 183.68 263.62C179.758 259.766 174.283 259.026 169.039 257.566C161.465 255.635 154.455 251.549 149.187 245.927L149.193 245.921Z" fill="#083729"/>
<path d="M212.848 257.102C210.248 267.236 195.138 274.043 185.44 273.504C175.956 272.977 165.776 263.871 161.841 255.535L173.619 265.801C187.226 274.099 202.956 268.051 212.842 257.108L212.848 257.102Z" fill="#083729"/>
<path d="M128.808 191.219C128.927 190.843 136.263 173.846 147.752 173.67C159.242 173.495 174.164 186.581 171.689 200.758C171.689 200.758 170.568 203.183 169.835 203.133C169.096 203.077 156.867 192.667 148.385 193.068C139.903 193.469 127.43 193.964 127.799 193.845C128.169 193.726 128.802 191.225 128.802 191.225L128.808 191.219Z" fill="#67A465"/>
<path d="M128.871 194.71C129.353 195.111 161.484 184.713 168.676 205.44C169.096 206.655 169.835 209.488 168.858 211.231C168.858 211.231 154.95 216.596 142.471 212.603C129.998 208.611 128.864 194.703 128.864 194.703L128.871 194.71Z" fill="white"/>
<path d="M149.92 214.891C156.791 214.891 162.361 210.006 162.361 203.979C162.361 197.953 156.791 193.068 149.92 193.068C143.048 193.068 137.478 197.953 137.478 203.979C137.478 210.006 143.048 214.891 149.92 214.891Z" fill="#6927AF"/>
<path d="M149.92 208.517C152.425 208.517 154.455 206.486 154.455 203.98C154.455 201.473 152.425 199.442 149.92 199.442C147.415 199.442 145.384 201.473 145.384 203.98C145.384 206.486 147.415 208.517 149.92 208.517Z" fill="black"/>
<path d="M145.703 203.127C147.184 203.127 148.385 201.926 148.385 200.445C148.385 198.963 147.184 197.762 145.703 197.762C144.223 197.762 143.022 198.963 143.022 200.445C143.022 201.926 144.223 203.127 145.703 203.127Z" fill="white"/>
<path d="M170.693 201.441C162.831 187.847 146.831 186.619 132.648 188.154C132.848 188.136 133.55 186.613 133.694 186.387C134.108 185.729 134.534 185.077 134.985 184.444C135.856 183.209 136.87 182.087 137.841 180.934C142.809 175.03 147.758 173.677 147.758 173.677C147.758 173.677 143.699 173.163 139.558 176.221C135.098 179.518 131.94 183.516 128.827 187.935C127.856 189.308 126.897 190.699 125.462 191.589C122.881 193.187 119.486 193.707 116.742 193.087C114.662 192.617 112.131 191.902 110.471 190.931C108.811 189.959 105.541 187.609 105.572 187.546C105.322 188.161 105.672 189.007 105.816 189.621C106.543 192.667 108.103 194.585 110.822 196.07C114.105 197.869 117.682 199.16 121.322 199.993C122.593 200.282 123.915 200.451 125.055 201.128C126.415 201.93 128.244 205.007 129.804 206.455C132.473 208.931 136.588 212.904 139.865 214.032C149.249 217.254 159.386 215.148 161.184 214.791C167.329 213.575 167.617 211.494 167.617 211.494C166.803 212.002 162.869 212.622 161.916 212.679C157.4 212.923 155.865 212.879 151.329 212.716C150.596 212.691 149.863 212.679 149.13 212.622C145.522 212.353 141.845 211.632 138.7 209.758C136.714 208.574 135.029 206.944 133.782 204.995C133.011 203.785 130.011 197.461 131.357 196.672C138.462 195.18 145.848 194.441 153.077 195.876C157.274 196.709 160.939 198.564 164.253 201.259C165.287 202.181 168.413 204.575 171.295 208.787C171.451 209.012 171.739 209.169 172.003 209.119C172.134 209.094 172.247 209.019 172.341 208.931C172.817 208.505 172.949 207.815 172.942 207.176C172.905 205.101 171.696 203.196 170.693 201.454V201.441Z" fill="black"/>
<path d="M176.72 180.596C166.421 172.166 155.915 160.672 141.218 162.395L128.877 166.425C140.354 153.539 154.123 152.75 167.292 163.893C171.614 167.553 178.261 174.523 176.72 180.596Z" fill="#083729"/>
<path d="M171.696 200.758C171.865 200.689 171.89 199.411 171.902 199.216C171.94 198.671 171.934 198.12 171.902 197.568C171.727 194.804 170.831 192.172 170.092 189.521C170.048 189.364 169.866 188.211 169.835 188.198C170.58 188.549 171.075 189.765 171.364 190.48C172.14 192.404 172.579 194.535 172.792 196.59C172.917 197.819 173.136 200.15 171.696 200.752V200.758Z" fill="black"/>
<path d="M253.193 191.219C253.074 190.843 245.738 173.846 234.248 173.67C222.759 173.495 207.837 186.581 210.311 200.758C210.311 200.758 211.432 203.183 212.165 203.133C212.905 203.077 225.133 192.667 233.616 193.068C242.098 193.469 254.571 193.964 254.201 193.845C253.832 193.726 253.199 191.225 253.199 191.225L253.193 191.219Z" fill="#67A465"/>
<path d="M253.13 194.71C252.647 195.111 220.516 184.713 213.324 205.44C212.904 206.655 212.165 209.488 213.143 211.231C213.143 211.231 227.05 216.596 239.529 212.603C252.002 208.611 253.136 194.703 253.136 194.703L253.13 194.71Z" fill="white"/>
<path d="M232.081 214.891C238.952 214.891 244.522 210.006 244.522 203.979C244.522 197.953 238.952 193.068 232.081 193.068C225.209 193.068 219.639 197.953 219.639 203.979C219.639 210.006 225.209 214.891 232.081 214.891Z" fill="#6927AF"/>
<path d="M232.081 208.517C234.586 208.517 236.616 206.486 236.616 203.98C236.616 201.473 234.586 199.442 232.081 199.442C229.576 199.442 227.545 201.473 227.545 203.98C227.545 206.486 229.576 208.517 232.081 208.517Z" fill="black"/>
<path d="M229.092 203.127C230.573 203.127 231.774 201.926 231.774 200.445C231.774 198.963 230.573 197.762 229.092 197.762C227.612 197.762 226.411 198.963 226.411 200.445C226.411 201.926 227.612 203.127 229.092 203.127Z" fill="white"/>
<path d="M211.307 201.441C219.169 187.847 235.169 186.619 249.352 188.154C249.152 188.136 248.45 186.613 248.306 186.387C247.893 185.729 247.467 185.077 247.016 184.444C246.145 183.209 245.13 182.087 244.159 180.934C239.191 175.03 234.242 173.677 234.242 173.677C234.242 173.677 238.301 173.163 242.442 176.221C246.903 179.518 250.06 183.516 253.174 187.935C254.145 189.308 255.103 190.699 256.538 191.589C259.119 193.187 262.514 193.707 265.258 193.087C267.338 192.617 269.869 191.902 271.529 190.931C273.189 189.959 276.46 187.609 276.428 187.546C276.679 188.161 276.328 189.007 276.184 189.621C275.457 192.667 273.897 194.585 271.178 196.07C267.896 197.869 264.319 199.16 260.679 199.993C259.407 200.282 258.085 200.451 256.945 201.128C255.586 201.93 253.756 205.007 252.197 206.455C249.528 208.931 245.412 212.904 242.135 214.032C232.751 217.254 222.615 215.148 220.817 214.791C214.671 213.575 214.383 211.494 214.383 211.494C215.197 212.002 219.132 212.622 220.084 212.679C224.601 212.923 226.136 212.879 230.671 212.716C231.404 212.691 232.137 212.679 232.87 212.622C236.478 212.353 240.156 211.632 243.301 209.758C245.287 208.574 246.972 206.944 248.218 204.995C248.989 203.785 251.99 197.461 250.643 196.672C243.539 195.18 236.153 194.441 228.923 195.876C224.726 196.709 221.061 198.564 217.747 201.259C216.713 202.181 213.587 204.575 210.706 208.787C210.549 209.012 210.261 209.169 209.998 209.119C209.866 209.094 209.753 209.019 209.659 208.931C209.183 208.505 209.052 207.815 209.058 207.176C209.096 205.101 210.305 203.196 211.307 201.454V201.441Z" fill="black"/>
<path d="M205.28 180.596C215.58 172.166 226.085 160.672 240.782 162.395L253.124 166.425C241.647 153.539 227.877 152.75 214.709 163.893C210.386 167.553 203.739 174.523 205.28 180.596Z" fill="#083729"/>
<path d="M210.305 200.758C210.136 200.689 210.111 199.411 210.098 199.216C210.06 198.671 210.067 198.12 210.098 197.568C210.273 194.804 211.169 192.172 211.908 189.521C211.952 189.364 212.134 188.211 212.165 188.198C211.42 188.549 210.925 189.765 210.637 190.48C209.86 192.404 209.421 194.535 209.208 196.59C209.083 197.819 208.864 200.15 210.305 200.752V200.758Z" fill="black"/>
<path d="M186.837 244.924C182.652 245.15 175.83 242.499 173.7 238.782C170.261 232.778 179.702 216.025 178.843 208.529C179.207 208.542 179.526 210.184 179.564 211.068C179.658 213.33 179.764 216.169 179.589 218.382C179.038 225.42 174.283 233.561 180.811 240.092C182.37 241.653 183.93 242.674 186.831 244.924H186.837Z" fill="#083729"/>
</g>
<defs>
<clipPath id="clip0_14029_297">
<rect width="382" height="362" fill="white"/>
</clipPath>
</defs>
</svg>
