<svg width="736" height="573" viewBox="0 0 736 573" fill="none" xmlns="http://www.w3.org/2000/svg">
<g clip-path="url(#clip0_14029_72)">
<path d="M153.995 558.95C153.691 534.764 167.343 517.67 180.547 501.136C193.119 485.393 204.996 470.52 205.955 449.808C207.315 420.47 178.427 397.794 153.955 383.935C151.459 382.522 148.756 381.212 145.893 379.83C135.296 374.702 123.276 368.895 119.373 355.596C114.118 337.68 122.02 319.069 142.862 300.274L144.086 299.172L145.725 299.38C154.019 300.418 162.424 300.945 170.702 300.945C183.418 300.945 195.99 299.707 208.083 297.263C227.373 293.365 245.944 285.521 263.914 277.933C270.288 275.241 276.879 272.454 283.421 269.882L289.875 267.342L288.235 274.075C283.365 294.06 288.491 313.078 302.303 326.266L303.639 327.544L303.383 329.373C301.887 339.884 302.815 350.963 306.214 363.24C306.526 364.35 307.278 366.211 308.005 368C309.621 371.986 310.613 374.542 310.693 376.483C310.861 380.389 302.663 400.286 302.583 400.478C293.458 421.445 278.526 435.838 264.082 449.761C254.765 458.747 245.128 468.036 237.09 479.051C232.851 484.866 229.093 490.713 225.446 496.376C216.92 509.635 208.859 522.159 195.494 533.677C191.008 537.543 185.633 540.962 180.435 544.261C174.229 548.199 168.374 551.921 164.104 556.226C163.656 556.673 163.256 557.344 162.832 558.047C162.12 559.229 161.233 560.691 159.721 561.801L154.075 565.955L153.987 558.95H153.995Z" fill="#B1D686"/>
<path d="M284.748 273.236C279.798 293.557 284.58 314.316 299.824 328.877C298.12 340.891 299.544 352.616 302.751 364.206C303.647 367.441 307.006 374.191 307.11 376.643C307.214 379.031 300.728 395.757 299.296 399.056C284.636 432.723 254.917 448.53 234.203 476.942C220.223 496.12 211.898 514.811 193.167 530.961C183.714 539.109 169.902 545.291 161.568 553.694C159.913 555.363 159.313 557.648 157.61 558.902C157.042 514.004 207.507 494.626 209.57 449.976C211.042 418.218 180.435 394.79 155.746 380.812C143.782 374.039 127.259 369.63 122.844 354.589C116.862 334.205 131.033 315.802 145.293 302.942C153.715 303.996 162.216 304.54 170.718 304.54C183.506 304.54 196.294 303.317 208.811 300.785C235.355 295.426 259.756 283.061 284.748 273.229M295.017 261.463L282.101 266.543C275.519 269.131 268.905 271.927 262.515 274.626C244.712 282.143 226.31 289.922 207.371 293.74C195.519 296.137 183.178 297.351 170.702 297.351C162.576 297.351 154.323 296.832 146.173 295.809L142.902 295.402L140.455 297.606C131.297 305.865 124.443 314.276 120.085 322.615C114.078 334.109 112.679 345.547 115.926 356.61C120.277 371.443 133.617 377.889 144.334 383.073C147.141 384.431 149.796 385.709 152.187 387.066C175.78 400.43 203.644 422.132 202.365 449.649C201.461 469.194 189.936 483.627 177.732 498.9C164.136 515.929 150.068 533.534 150.396 558.998L150.572 573L161.864 564.693C163.952 563.159 165.087 561.274 165.919 559.9C166.175 559.485 166.519 558.91 166.671 558.75C170.654 554.732 176.348 551.122 182.378 547.296C187.689 543.925 193.175 540.443 197.862 536.401C211.626 524.54 220.199 511.208 228.485 498.325C232.1 492.709 235.835 486.902 240.009 481.175C247.855 470.408 257.38 461.231 266.586 452.356C281.277 438.195 296.473 423.545 305.886 401.923C306.726 399.99 308.789 394.735 310.533 389.974C314.132 380.117 314.364 378.033 314.292 376.339C314.188 373.815 313.108 370.996 311.341 366.658C310.685 365.037 309.933 363.2 309.685 362.289C306.422 350.5 305.526 339.9 306.95 329.884L307.47 326.234L304.798 323.686C291.946 311.409 287.188 293.645 291.746 274.938L295.025 261.471L295.017 261.463Z" fill="#0A3536"/>
<path d="M284.98 273.38C283.005 276.767 281.125 280.202 279.022 283.549C263.651 307.751 233.803 315.642 207.579 322.008C192.439 325.611 177.612 330.228 163.2 336.05C156.074 338.87 149.14 342.121 142.918 346.57C136.648 351.035 130.905 356.235 127.826 363.472L127.291 363.304C128.85 355.356 134.488 348.687 140.463 343.511C146.509 338.143 153.723 334.245 161.009 330.922C168.271 327.664 175.78 324.98 183.458 322.895C213.153 314.939 246.759 313.358 270.449 291.672C276.207 286.488 280.19 279.651 284.5 273.109L284.98 273.404V273.38Z" fill="#7CB770"/>
<path d="M284.636 275.912C281.501 290.17 272.92 302.455 264.546 314.125C258.084 322.879 250.718 331.49 241.369 337.424C232.092 343.359 221.079 346.33 210.954 349.861C197.646 354.51 184.378 359.709 172.621 367.601C169.774 369.51 166.711 371.755 164.072 373.927C161.273 376.148 158.649 378.576 155.954 380.996L155.53 380.629C161.744 371.563 169.894 363.839 179.163 357.912C186.921 352.968 195.343 349.142 204.036 346.219C211.978 343.567 222.023 341.394 229.804 338.407C243.313 333.654 253.597 323.51 262.331 312.423C271.216 301.281 280.134 289.675 284.101 275.785L284.644 275.92L284.636 275.912Z" fill="#7CB770"/>
<path d="M285.996 279.523C279.91 292.319 278.518 306.433 276.303 320.283C273.648 337.975 267.194 355.572 254.965 368.991C252.454 371.699 249.791 374.302 246.752 376.459C242.369 379.598 237.322 381.963 232.588 384.311C224.79 388.241 216.904 392.099 209.227 396.228C203.172 399.519 196.942 402.786 192.839 408.561L192.352 408.289C194.407 403.273 198.51 399.208 202.828 396.013C207.075 392.786 211.57 389.846 216.113 387.075C220.647 384.359 225.31 381.659 229.973 379.167C237.626 375.301 245.416 371.818 251.374 365.564C263.619 353.319 270.313 336.585 273.544 319.772C276.463 306.081 278.582 291.696 285.492 279.267L285.988 279.523H285.996Z" fill="#7CB770"/>
<path d="M285.78 284.116C279.518 303.885 284.045 324.66 282.909 344.981C282.045 361.618 276.767 377.801 269.137 392.53C264.266 401.772 258.884 411.109 251.166 418.306C243.496 425.359 233.228 429.393 225.302 435.207C218.808 439.768 213.561 445.911 209.203 452.844L208.699 452.596C210.234 448.786 212.01 444.984 214.441 441.558C216.744 438.123 219.719 434.864 222.839 432.14C228.973 426.645 236.451 422.763 242.817 417.827C249.223 413.074 253.885 406.828 258.372 400.358C269.705 383.872 277.95 364.806 279.702 344.741C281.109 328.502 279.23 311.992 282.021 295.809C282.781 291.76 283.845 287.774 285.26 283.916L285.788 284.1L285.78 284.116Z" fill="#7CB770"/>
<path d="M207.515 331.721C228.813 306.385 267.441 345.148 239.498 366.395C218.128 382.649 189.584 353.04 207.515 331.721Z" fill="#0A3536"/>
<path d="M237.09 335.563C236.403 334.477 233.955 333.886 232.82 333.526C228.605 332.208 224.302 332.2 220.495 334.708C216.664 337.224 214.353 341.865 214.337 346.418C214.313 352.88 219.304 358.679 225.83 359.174C234.067 359.805 241.345 352.353 242.201 344.509C246.792 363.983 221.959 372.817 210.97 356.466C208.099 352.193 207.099 345.555 208.963 340.683C214.769 325.531 230.852 325.659 237.09 335.563Z" fill="#F5DF8F"/>
<g style="mix-blend-mode:multiply" opacity="0.5">
<path d="M302.751 364.198C299.544 352.608 298.12 340.883 299.824 328.869C295.049 324.309 291.298 319.141 288.555 313.565C288.219 312.878 287.899 312.192 287.595 311.497C287.515 311.313 287.435 311.121 287.355 310.938C287.116 310.378 286.884 309.811 286.668 309.236C286.604 309.076 286.54 308.917 286.484 308.757C286.212 308.038 285.956 307.319 285.724 306.6C285.684 306.48 285.644 306.353 285.604 306.233C285.404 305.626 285.22 305.011 285.044 304.396C284.988 304.196 284.932 303.988 284.876 303.789C284.708 303.158 284.54 302.519 284.396 301.88C284.372 301.768 284.34 301.656 284.316 301.552C284.148 300.809 283.996 300.059 283.853 299.308C283.821 299.124 283.789 298.94 283.757 298.765C283.653 298.173 283.557 297.574 283.477 296.983C283.445 296.776 283.421 296.576 283.389 296.368C283.285 295.609 283.197 294.843 283.125 294.076C283.053 293.309 283.005 292.542 282.965 291.775C282.957 291.56 282.949 291.344 282.933 291.128C282.909 290.521 282.893 289.922 282.885 289.315C282.885 289.124 282.885 288.94 282.885 288.748C282.885 287.973 282.893 287.207 282.925 286.432C282.925 286.288 282.941 286.144 282.949 286.001C282.973 285.361 283.013 284.715 283.061 284.068C283.077 283.836 283.093 283.612 283.117 283.381C283.173 282.734 283.237 282.087 283.309 281.432C283.325 281.288 283.341 281.152 283.357 281.008C283.453 280.234 283.565 279.451 283.685 278.676C283.717 278.476 283.749 278.277 283.789 278.077C283.893 277.47 283.996 276.871 284.116 276.264C284.156 276.04 284.204 275.816 284.252 275.593C284.412 274.81 284.588 274.027 284.772 273.252C282.925 273.979 281.085 274.722 279.246 275.473C278.494 275.776 277.742 276.088 276.983 276.4C276.015 276.799 275.039 277.198 274.071 277.606C271.472 278.684 268.873 279.778 266.274 280.873L266.218 280.896C264.226 281.735 262.227 282.582 260.235 283.421C243.512 290.458 226.653 297.215 208.827 300.817C187.985 305.027 166.391 305.618 145.309 302.974C142.582 305.434 139.855 308.102 137.28 310.946C142.678 312.168 148.1 313.294 153.555 314.268C172.333 315.97 191.352 315.754 210.138 315.107C224.854 314.604 239.57 313.853 254.229 312.543C261.243 310.738 268.185 308.701 275.031 306.377C276.487 311.273 277.854 316.185 279.206 321.09C284.788 341.37 290.019 361.802 297.337 381.531C298.632 384.095 300.008 386.603 301.503 389.047C301.919 389.487 302.335 389.918 302.759 390.349C304.918 384.614 307.198 378.089 307.142 376.667C307.038 374.215 303.679 367.465 302.783 364.23L302.751 364.198Z" fill="#B1D686"/>
</g>
<path d="M167.255 302.223C136.992 302.223 95.524 294.579 69.8515 258.156C58.015 241.366 54.2881 223.203 50.6971 205.646C48.4418 194.631 46.1065 183.241 41.7797 172.258C38.1008 162.937 32.1506 153.328 25.8404 143.152C14.3398 124.589 2.43929 105.403 3.69492 85.9932C4.72662 70.0182 31.0309 63.8199 39.0685 62.3023C46.5703 60.8805 54.568 60.1616 62.8376 60.1616C126.835 60.1616 194.631 101.944 220.807 119.908C238.65 132.153 261.515 150.229 288.779 173.64C292.866 176.564 353.624 220.183 375.282 242.045L380.8 247.612L372.979 248.156C372.659 248.18 341.788 250.432 307.35 261.087L303.959 262.501C299.2 264.482 293.226 267.07 286.908 269.81C267.945 278.021 244.352 288.245 229.533 292.686C208.667 298.924 187.137 302.223 167.263 302.223H167.255Z" fill="#B1D686"/>
<path d="M62.8296 63.7561C116.758 63.7561 177.548 94.5879 218.768 122.872C240.793 137.984 266.338 159.103 286.548 176.468C286.548 176.468 350.745 222.388 372.715 244.569C372.715 244.569 339.156 246.902 302.287 258.923C302.383 259.011 302.471 259.099 302.559 259.187C283.805 267.006 248.103 283.373 228.485 289.244C209.363 294.963 188.153 298.629 167.247 298.629C130.578 298.629 94.8282 287.35 72.7867 256.087C54.0641 229.529 56.4874 199.783 45.1148 170.941C34.5259 144.071 5.43841 114.677 7.27787 86.225C8.06964 73.9802 29.5433 67.7579 39.7243 65.8329C47.2181 64.4111 54.9519 63.7561 62.8216 63.7561M62.8376 56.5674C54.3361 56.5674 46.1145 57.3102 38.3887 58.7719C34.7258 59.4669 25.2726 61.5276 16.7951 65.7131C3.64694 72.2069 0.455875 80.2024 0.0959809 85.7617C-1.23163 106.314 10.9728 126.003 22.7693 145.045C28.9835 155.077 34.8618 164.551 38.4207 173.576C42.6355 184.272 44.9388 195.502 47.1622 206.365C50.8331 224.289 54.632 242.82 66.9004 260.225C87.9262 290.05 122.628 305.818 167.247 305.818C187.465 305.818 209.355 302.471 230.548 296.129C245.584 291.632 269.289 281.36 288.339 273.101C294.642 270.369 300.6 267.789 305.334 265.816L308.573 264.466C342.579 253.963 372.907 251.758 373.218 251.734L388.87 250.648L377.833 239.505C356.167 217.644 296.105 174.463 290.995 170.805C263.307 147.034 241.009 129.413 222.839 116.945C196.382 98.7894 127.834 56.5674 62.8296 56.5674H62.8376Z" fill="#0A3536"/>
<path d="M367.908 243.89C324.713 234.681 283.357 216.525 246.936 191.468C207.067 164.59 171.086 131.546 127.882 109.964C101.954 97.144 73.5224 88.2219 44.403 87.9184C35.0537 87.8066 25.6485 88.6772 16.4912 90.6261C13.4201 91.2971 10.3889 92.0959 7.36583 92.9505L7.18188 92.4233C16.963 88.4855 27.4399 86.0813 37.9728 85.0509C74.1702 81.8319 110.472 93.0064 141.702 110.771C179.907 133.152 212.65 163.456 248.815 188.729C255.405 193.369 262.891 198.338 269.769 202.531C300.072 221.166 333.294 235.08 368.02 243.331L367.9 243.875L367.908 243.89Z" fill="#7CB770"/>
<path d="M365.133 244.618C299.088 246.495 240.865 210.367 183.026 183.561C144.422 166.02 103.258 150.732 60.2544 151.595C53.1365 151.787 46.0266 152.45 38.9247 153.464L38.8047 152.921C52.7686 149.183 67.3643 147.905 81.8161 148.488C155.458 151.587 215.417 200.143 281.773 226.079C301.68 233.994 322.385 240.168 343.699 242.764C350.801 243.587 357.951 244.026 365.117 244.05V244.61H365.125L365.133 244.618Z" fill="#7CB770"/>
<path d="M353.936 237.165C329.591 244.234 303.759 241.742 278.998 238.563C254.109 235.36 229.053 231.757 204.892 224.704C192.855 221.421 180.819 218.203 168.519 216.134C145.597 212.076 122.212 210.239 98.931 210.359C84.8711 210.367 70.8672 211.182 56.7833 212.244L56.7034 211.693C72.0829 208.498 87.7982 206.621 103.522 205.862C120.853 205.143 138.359 205.686 155.53 208.25C172.717 210.638 189.56 215.367 206.108 220.391C230.005 227.947 254.637 232.029 279.382 235.783C303.951 239.665 329.327 242.788 353.776 236.614L353.928 237.149L353.936 237.165Z" fill="#7CB770"/>
<path d="M357.887 241.933C346.186 245.016 333.902 243.786 321.993 244.21C310.021 244.753 298.584 248.427 287.164 251.806C269.865 256.814 252.374 262.996 234.051 263.34C227.965 263.34 221.919 263.004 215.889 262.485C180.291 259.594 145.005 249.17 109.144 250.28C97.3154 250.712 85.5028 252.493 74.0822 256.191L73.8743 255.672C95.8758 245.152 121.356 244.346 145.253 246.734C175.029 249.753 204.068 258.651 234.083 259.29C261.075 259.202 286.332 246.997 312.86 243.155C321.841 241.917 330.999 242.756 339.956 242.94C345.922 243.068 351.897 242.58 357.759 241.39L357.879 241.933H357.887Z" fill="#7CB770"/>
<path d="M173.389 142.697C176.524 132.776 186.473 129.238 195.815 127.696C207.275 125.803 219.12 126.37 230.548 126.77C231.212 126.794 231.924 126.794 232.484 126.442C236.195 124.142 222.927 117.44 221.031 116.881C216.057 115.411 210.77 115.38 205.596 115.731C186.881 116.993 172.286 116.785 156.618 127.089L173.381 142.697H173.389Z" fill="#0A3536"/>
<path d="M191.312 174.327C158.857 195.63 125.683 145.54 160.065 124.733C189.288 107.049 222.415 153.919 191.312 174.327Z" fill="#0A3536"/>
<path d="M191.288 137.345C190.56 135.931 187.617 134.949 186.257 134.39C181.219 132.329 175.932 131.858 170.99 134.534C166.015 137.217 162.688 142.673 162.176 148.264C161.457 156.204 166.975 163.856 174.933 165.158C184.986 166.803 194.719 158.424 196.614 148.879C200.173 173.289 168.727 181.508 156.97 160.253C153.899 154.694 153.371 146.435 156.186 140.644C164.928 122.648 184.674 124.509 191.288 137.337V137.345Z" fill="#F5DF8F"/>
<g style="mix-blend-mode:multiply" opacity="0.5">
<path d="M286.548 176.468C285.972 175.973 285.388 175.478 284.812 174.982C283.957 176.252 283.021 177.475 281.981 178.633C281.421 179.551 280.877 180.478 280.366 181.42C279.758 183.361 279.238 185.326 278.798 187.307C278.542 192.06 278.662 196.812 279.062 201.557C282.117 218.666 287.763 235.416 294.322 251.495C295.681 254.642 297.057 257.781 298.424 260.928C299.88 260.305 301.271 259.722 302.575 259.179C302.487 259.091 302.399 259.003 302.303 258.915C339.172 246.894 372.73 244.562 372.73 244.562C350.753 222.38 286.564 176.46 286.564 176.46L286.548 176.468Z" fill="#B1D686"/>
</g>
<path d="M576.271 561.801C574.759 560.691 573.872 559.221 573.16 558.047C572.736 557.344 572.328 556.681 571.888 556.226C567.617 551.921 561.755 548.199 555.557 544.261C550.358 540.962 544.984 537.551 540.497 533.677C527.133 522.159 519.08 509.635 510.546 496.376C506.907 490.72 503.14 484.866 498.902 479.051C490.872 468.036 481.235 458.747 471.909 449.761C457.474 435.846 442.542 421.453 433.409 400.478C433.329 400.286 425.131 380.389 425.299 376.483C425.379 374.542 426.371 371.986 427.986 368C428.714 366.203 429.474 364.35 429.778 363.24C433.177 350.963 434.105 339.884 432.609 329.373L432.353 327.544L433.689 326.266C447.493 313.078 452.619 294.052 447.757 274.075L446.117 267.342L452.571 269.882C459.113 272.454 465.703 275.241 472.077 277.933C490.04 285.521 508.619 293.365 527.909 297.263C539.994 299.707 552.574 300.945 565.29 300.945C573.568 300.945 581.973 300.418 590.267 299.38L591.906 299.172L593.13 300.274C613.972 319.069 621.873 337.68 616.619 355.596C612.716 368.903 600.704 374.71 590.099 379.83C587.236 381.212 584.532 382.522 582.037 383.935C557.564 397.794 528.677 420.47 530.036 449.808C530.996 470.52 542.873 485.393 555.445 501.136C568.649 517.67 582.301 534.764 581.997 558.95L581.909 565.955L576.263 561.801H576.271Z" fill="#B1D686"/>
<path d="M451.252 273.236C476.244 283.069 500.645 295.434 527.189 300.793C539.706 303.317 552.494 304.548 565.282 304.548C573.784 304.548 582.285 304.004 590.707 302.95C604.958 315.802 619.138 334.205 613.156 354.597C608.741 369.638 592.218 374.047 580.254 380.82C555.565 394.798 524.958 418.226 526.429 449.984C528.501 494.634 578.958 514.012 578.39 558.91C576.687 557.656 576.079 555.363 574.431 553.702C566.098 545.299 552.286 539.117 542.833 530.969C524.102 514.819 515.785 496.128 501.797 476.95C481.083 448.538 451.355 432.731 436.704 399.064C435.272 395.773 428.786 379.039 428.89 376.651C428.994 374.199 432.353 367.441 433.249 364.214C436.456 352.624 437.879 340.899 436.176 328.885C451.419 314.324 456.202 293.565 451.252 273.244M440.983 261.463L444.262 274.93C448.82 293.629 444.062 311.401 431.209 323.678L428.538 326.226L429.058 329.876C430.482 339.892 429.586 350.492 426.323 362.281C426.067 363.192 425.323 365.029 424.667 366.65C422.9 370.996 421.82 373.807 421.716 376.331C421.644 378.025 421.876 380.101 425.475 389.966C427.211 394.727 429.282 399.982 430.122 401.915C439.535 423.537 454.731 438.187 469.422 452.348C478.628 461.223 488.153 470.408 495.998 481.167C500.173 486.894 503.908 492.701 507.523 498.317C515.817 511.208 524.39 524.532 538.146 536.393C542.833 540.435 548.319 543.917 553.629 547.288C559.66 551.114 565.354 554.732 569.337 558.75C569.489 558.91 569.833 559.485 570.089 559.9C570.92 561.274 572.056 563.159 574.143 564.693L585.436 573L585.612 558.998C585.932 533.534 571.872 515.929 558.276 498.9C546.072 483.627 534.555 469.194 533.643 449.649C532.372 422.132 560.228 400.43 583.821 387.066C586.212 385.709 588.867 384.431 591.674 383.073C602.391 377.897 615.731 371.443 620.082 356.61C623.329 345.547 621.929 334.109 615.923 322.615C611.564 314.284 604.71 305.873 595.553 297.606L593.106 295.402L589.835 295.809C581.685 296.832 573.432 297.351 565.306 297.351C552.83 297.351 540.497 296.137 528.637 293.74C509.706 289.914 491.296 282.143 473.493 274.626C467.095 271.927 460.489 269.131 453.907 266.543L440.991 261.463H440.983Z" fill="#0A3536"/>
<path d="M451.492 273.085C455.802 279.626 459.785 286.464 465.543 291.647C476.964 302.263 491.72 308.285 506.595 312.367C521.743 316.497 537.282 318.797 552.534 322.871C564.075 326.058 575.303 330.379 585.692 336.394C595.601 342.472 606.19 351.418 608.709 363.279L608.174 363.447C605.095 356.211 599.352 351.019 593.082 346.546C586.852 342.097 579.926 338.846 572.8 336.026C561.995 331.729 551.03 327.927 539.786 324.892C510.146 317.104 474.805 311.361 456.97 283.524C454.867 280.177 452.987 276.743 451.012 273.356L451.492 273.061V273.085Z" fill="#7CB770"/>
<path d="M451.907 275.776C455.874 289.675 464.792 301.28 473.677 312.415C480.331 320.714 487.569 328.598 496.75 333.957C505.548 339.173 516.888 341.777 526.725 344.581C533.763 346.626 540.633 349.237 547.223 352.472C560.388 358.942 572.208 368.463 580.478 380.62L580.054 380.988C577.359 378.568 574.735 376.139 571.936 373.919C569.297 371.746 566.234 369.51 563.387 367.593C551.63 359.701 538.362 354.501 525.054 349.853C514.929 346.314 503.916 343.351 494.639 337.416C485.282 331.481 477.916 322.871 471.462 314.116C467.231 308.254 463.08 302.319 459.473 296.017C455.882 289.723 452.923 282.989 451.372 275.912L451.915 275.776H451.907Z" fill="#7CB770"/>
<path d="M450.5 279.267C459.137 294.843 460.249 313.086 464.856 329.948C469.022 344.685 476.484 359.054 488.377 368.951C493.591 373.368 499.949 375.964 506.027 379.167C510.682 381.659 515.345 384.359 519.887 387.075C524.43 389.854 528.925 392.786 533.171 396.013C537.49 399.208 541.601 403.273 543.648 408.289L543.161 408.561C539.058 402.778 532.828 399.519 526.773 396.228C519.096 392.099 511.21 388.241 503.412 384.311C497.038 381.172 490.144 377.937 484.93 372.897C470.23 359.278 462.624 339.725 459.705 320.291C457.49 306.441 456.098 292.327 450.004 279.531L450.5 279.275V279.267Z" fill="#7CB770"/>
<path d="M450.748 283.932C458.025 303.381 454.507 324.556 456.306 344.757C458.057 364.821 466.303 383.887 477.636 400.374C482.13 406.843 486.785 413.09 493.191 417.842C499.557 422.779 507.035 426.66 513.169 432.156C516.28 434.88 519.264 438.139 521.567 441.573C523.998 445 525.774 448.802 527.309 452.612L526.805 452.86C522.447 445.934 517.2 439.784 510.706 435.223C502.788 429.408 492.511 425.374 484.842 418.321C477.124 411.125 471.741 401.779 466.871 392.546C459.241 377.809 453.963 361.634 453.099 344.996C452.187 328.63 454.906 312.279 452.819 296.017C452.275 291.999 451.435 288.021 450.228 284.131L450.756 283.948L450.748 283.932Z" fill="#7CB770"/>
<path d="M496.502 366.403C468.558 345.156 507.187 306.393 528.485 331.729C546.416 353.056 517.872 382.658 496.502 366.403Z" fill="#0A3536"/>
<path d="M498.909 335.563C499.597 334.477 502.045 333.886 503.18 333.526C507.395 332.208 511.698 332.2 515.505 334.708C519.335 337.224 521.647 341.865 521.663 346.418C521.687 352.88 516.696 358.679 510.17 359.174C501.933 359.805 494.655 352.353 493.799 344.509C489.208 363.983 514.041 372.817 525.03 356.466C527.901 352.193 528.901 345.555 527.037 340.683C521.231 325.531 505.148 325.659 498.909 335.563Z" fill="#F5DF8F"/>
<g style="mix-blend-mode:multiply" opacity="0.5">
<path d="M433.249 364.198C436.456 352.608 437.88 340.883 436.176 328.869C440.951 324.309 444.702 319.141 447.445 313.565C447.781 312.878 448.101 312.192 448.404 311.497C448.484 311.313 448.564 311.121 448.644 310.938C448.884 310.378 449.116 309.811 449.332 309.236C449.396 309.076 449.46 308.917 449.516 308.757C449.788 308.038 450.044 307.319 450.276 306.6C450.316 306.48 450.356 306.353 450.396 306.233C450.596 305.626 450.78 305.011 450.956 304.396C451.012 304.196 451.068 303.988 451.124 303.789C451.292 303.158 451.46 302.519 451.604 301.88C451.628 301.768 451.66 301.656 451.684 301.552C451.851 300.809 452.003 300.059 452.147 299.308C452.179 299.124 452.211 298.94 452.243 298.765C452.347 298.173 452.443 297.574 452.523 296.983C452.555 296.776 452.579 296.576 452.611 296.368C452.715 295.609 452.803 294.843 452.875 294.076C452.947 293.309 452.995 292.542 453.035 291.775C453.043 291.56 453.051 291.344 453.067 291.128C453.091 290.521 453.107 289.922 453.115 289.315C453.115 289.124 453.115 288.94 453.115 288.748C453.115 287.973 453.107 287.207 453.075 286.432C453.075 286.288 453.059 286.144 453.051 286.001C453.027 285.361 452.987 284.715 452.939 284.068C452.923 283.836 452.907 283.612 452.883 283.381C452.827 282.734 452.763 282.087 452.691 281.432C452.675 281.288 452.659 281.152 452.643 281.008C452.547 280.234 452.435 279.451 452.315 278.676C452.283 278.476 452.251 278.277 452.211 278.077C452.107 277.47 452.003 276.871 451.883 276.264C451.843 276.04 451.795 275.816 451.747 275.593C451.588 274.81 451.412 274.027 451.228 273.252C453.075 273.979 454.915 274.722 456.754 275.473C457.506 275.776 458.258 276.088 459.017 276.4C459.985 276.799 460.961 277.198 461.929 277.606C464.528 278.684 467.127 279.778 469.726 280.873L469.782 280.896C471.774 281.735 473.773 282.582 475.764 283.421C492.488 290.458 509.347 297.215 527.173 300.817C548.015 305.027 569.609 305.618 590.691 302.974C593.418 305.434 596.145 308.102 598.72 310.946C593.322 312.168 587.9 313.294 582.445 314.268C563.667 315.97 544.648 315.754 525.862 315.107C511.146 314.604 496.43 313.853 481.771 312.543C474.757 310.738 467.815 308.701 460.969 306.377C459.513 311.273 458.146 316.185 456.794 321.09C451.212 341.37 445.981 361.802 438.663 381.531C437.368 384.095 435.992 386.603 434.497 389.047C434.081 389.487 433.665 389.918 433.241 390.349C431.082 384.614 428.802 378.089 428.858 376.667C428.962 374.215 432.321 367.465 433.217 364.23L433.249 364.198Z" fill="#B1D686"/>
</g>
<path d="M568.745 302.223C548.871 302.223 527.341 298.924 506.475 292.686C491.648 288.253 468.055 278.029 449.1 269.81C442.774 267.07 436.808 264.482 432.049 262.501L428.658 261.087C394.22 250.432 363.349 248.172 363.029 248.156L355.208 247.612L360.726 242.045C382.384 220.183 443.142 176.572 447.229 173.64C474.485 150.229 497.358 132.153 515.201 119.908C541.377 101.944 609.181 60.1616 673.17 60.1616C681.44 60.1616 689.438 60.8805 696.939 62.3023C704.977 63.8199 731.273 70.0182 732.305 85.9932C733.561 105.403 721.668 124.597 710.16 143.152C703.857 153.328 697.899 162.937 694.22 172.258C689.886 183.241 687.558 194.631 685.295 205.646C681.696 223.203 677.977 241.366 666.14 258.156C640.468 294.579 599.008 302.223 568.745 302.223Z" fill="#B1D686"/>
<path d="M673.17 63.7561C681.04 63.7561 688.774 64.4111 696.268 65.8329C706.449 67.7579 727.922 73.9802 728.714 86.225C730.554 114.677 701.466 144.071 690.877 170.941C679.505 199.783 681.928 229.529 663.205 256.087C641.164 287.35 605.414 298.629 568.745 298.629C547.847 298.629 526.637 294.963 507.507 289.244C487.889 283.373 452.187 267.006 433.433 259.187C433.521 259.099 433.609 259.011 433.705 258.923C396.836 246.902 363.277 244.569 363.277 244.569C385.255 222.388 449.444 176.468 449.444 176.468C469.662 159.103 495.207 137.984 517.224 122.872C558.444 94.5879 619.234 63.7561 673.162 63.7561M673.17 56.5674C608.166 56.5674 539.618 98.7894 513.161 116.945C494.983 129.413 472.693 147.034 445.005 170.805C439.895 174.463 379.833 217.644 358.167 239.505L347.13 250.648L362.782 251.734C363.093 251.758 393.501 253.987 427.427 264.466L430.658 265.816C435.392 267.789 441.342 270.369 447.653 273.101C466.703 281.352 490.416 291.624 505.444 296.129C526.637 302.463 548.527 305.818 568.745 305.818C613.364 305.818 648.066 290.05 669.092 260.225C681.36 242.82 685.159 224.289 688.83 206.365C691.053 195.502 693.356 184.264 697.571 173.576C701.13 164.551 707 155.077 713.223 145.045C725.027 126.003 737.224 106.322 735.896 85.7617C735.536 80.2024 732.345 72.2069 719.197 65.7131C710.711 61.5276 701.266 59.4589 697.603 58.7719C689.886 57.3102 681.656 56.5674 673.162 56.5674H673.17Z" fill="#0A3536"/>
<path d="M367.964 243.347C412.983 232.78 455.099 212.276 492.304 185.119C526.438 160.621 557.9 132.105 594.29 110.787C625.529 93.0146 661.83 81.84 698.019 85.067C708.552 86.0974 719.037 88.4936 728.81 92.4395L728.626 92.9666C725.603 92.104 722.572 91.3052 719.501 90.6423C710.344 88.6933 700.946 87.8227 691.589 87.9345C662.478 88.238 634.046 97.1601 608.11 109.98C564.906 131.562 528.925 164.607 489.057 191.485C481.427 196.684 472.965 202.012 464.984 206.653C434.817 223.962 402.002 236.63 368.084 243.907L367.964 243.363V243.347Z" fill="#7CB770"/>
<path d="M370.875 244.058C429.106 243.986 481.131 214.72 531.58 188.785C569.777 168.864 610.405 150.213 654.184 148.496C668.644 147.913 683.231 149.183 697.195 152.929L697.075 153.472C689.973 152.449 682.864 151.794 675.746 151.603C625.424 150.724 578.054 171.292 533.587 192.786C495.087 211.637 456.258 232.173 413.775 240.759C399.659 243.603 385.255 245.049 370.867 244.625L370.875 244.066V244.058Z" fill="#7CB770"/>
<path d="M382.216 236.622C406.665 242.796 432.041 239.673 456.61 235.791C481.363 232.037 505.988 227.947 529.885 220.399C546.432 215.367 563.283 210.646 580.462 208.258C597.633 205.686 615.148 205.151 632.47 205.87C648.194 206.621 663.901 208.506 679.289 211.701L679.209 212.252C665.125 211.182 651.113 210.375 637.061 210.367C613.78 210.247 590.403 212.084 567.473 216.142C555.173 218.211 543.145 221.422 531.1 224.712C506.939 231.765 481.883 235.368 456.994 238.571C438.351 240.975 419.349 242.932 400.554 240.831C394.3 240.112 388.094 238.93 382.056 237.173L382.208 236.638L382.216 236.622Z" fill="#7CB770"/>
<path d="M378.233 241.383C390.085 244.034 402.026 242.389 414.062 242.477C426.179 242.661 437.983 246.031 449.604 249.106C466.823 253.651 484.066 259.322 501.909 259.275C507.819 259.139 513.761 258.667 519.663 258.02C543.512 255.393 566.834 249.106 590.739 246.718C614.636 244.33 640.116 245.137 662.118 255.656L661.91 256.175C650.489 252.477 638.677 250.696 626.848 250.265C590.986 249.162 555.701 259.578 520.103 262.47C514.073 262.989 508.027 263.324 501.941 263.324C483.61 262.981 466.127 256.798 448.828 251.79C437.408 248.404 425.971 244.737 413.998 244.194C402.098 243.771 389.806 245.001 378.105 241.918L378.225 241.375L378.233 241.383Z" fill="#7CB770"/>
<path d="M562.611 142.697C559.476 132.776 549.527 129.238 540.185 127.696C528.725 125.803 516.88 126.37 505.452 126.77C504.788 126.794 504.076 126.794 503.516 126.442C499.805 124.142 513.073 117.44 514.969 116.881C519.943 115.411 525.23 115.38 530.404 115.731C549.119 116.993 563.715 116.785 579.382 127.089L562.619 142.697H562.611Z" fill="#0A3536"/>
<path d="M575.935 124.733C610.317 145.541 577.143 195.63 544.688 174.328C513.593 153.919 546.712 107.041 575.935 124.733Z" fill="#0A3536"/>
<path d="M544.712 137.345C545.44 135.931 548.383 134.949 549.743 134.39C554.781 132.329 560.068 131.858 565.01 134.534C569.985 137.217 573.312 142.673 573.824 148.264C574.543 156.204 569.025 163.856 561.067 165.158C551.014 166.803 541.281 158.424 539.386 148.879C535.827 173.289 567.274 181.508 579.03 160.253C582.101 154.694 582.629 146.435 579.814 140.644C571.072 122.648 551.326 124.509 544.712 137.337V137.345Z" fill="#F5DF8F"/>
<g style="mix-blend-mode:multiply" opacity="0.5">
<path d="M449.452 176.468C450.028 175.973 450.612 175.478 451.188 174.982C452.043 176.252 452.979 177.475 454.019 178.633C454.578 179.551 455.122 180.478 455.634 181.42C456.242 183.361 456.762 185.326 457.202 187.307C457.458 192.06 457.338 196.812 456.938 201.557C453.883 218.666 448.236 235.416 441.678 251.495C440.319 254.642 438.943 257.781 437.575 260.928C436.12 260.305 434.728 259.722 433.425 259.179C433.513 259.091 433.601 259.003 433.697 258.915C396.827 246.894 363.269 244.562 363.269 244.562C385.247 222.38 449.436 176.46 449.436 176.46L449.452 176.468Z" fill="#B1D686"/>
</g>
<path d="M365.557 493.621L364.461 491.871C361.102 486.48 358.151 480.777 355.296 475.257C351.857 468.604 348.298 461.726 344.091 455.576C341.388 451.622 338.309 448.044 335.046 444.242C332.366 441.127 329.591 437.9 327.072 434.473C326.408 433.578 325.752 432.652 325.088 431.733L325.033 431.661C320.722 425.519 316.939 419.169 313.772 412.763C312.036 409.24 310.565 405.926 309.285 402.643C307.99 399.304 307.222 396.141 306.422 392.794L306.35 392.507C305.982 390.981 305.494 389.463 304.974 387.85L304.902 387.618C304.095 385.11 303.215 382.538 302.367 380.054C298.528 368.768 294.553 357.098 294.066 344.685C293.994 342.856 294.218 340.324 294.465 337.648C294.649 335.604 294.945 332.289 294.841 331.003C294.314 330.244 293.026 328.638 292.05 327.408C289.611 324.349 287.819 322.065 286.964 320.547C276.727 302.272 277.063 282.559 287.859 267.822C301.527 249.163 327.568 239.706 365.253 239.706C376.449 239.706 387.654 240.536 398.563 242.166C408.256 243.611 419.245 245.257 428.986 249.091C438.095 252.677 445.829 260.202 450.772 270.282C455.666 280.266 457.474 291.888 455.73 302.16C454.73 308.063 452.851 313.67 450.156 318.83C448.82 321.378 447.277 323.838 445.557 326.146C445.213 326.602 444.701 327.137 443.654 328.215C443.078 328.806 442.046 329.869 441.382 330.611C442.606 341.011 441.646 351.874 438.471 363.784C438.087 365.213 437.36 367.058 436.6 369.015C435.936 370.709 434.848 373.488 434.672 374.511C434.688 374.591 434.712 374.71 434.752 374.878L434.976 375.845L434.696 376.787C433.937 379.319 433.137 381.867 432.353 384.327C431.193 388.002 429.994 391.812 428.938 395.558C428.61 396.716 428.314 397.954 427.986 399.464L427.89 399.927L416.27 423.099L416.006 423.418C400.506 442.301 389.654 460.097 376.153 484.451L375.834 485.05C372.699 490.865 370.667 493.629 367.628 493.629H365.565L365.557 493.621Z" fill="#0A3536"/>
<path d="M365.253 243.428C376.21 243.428 387.174 244.226 398.011 245.84C407.832 247.31 418.317 248.883 427.627 252.549C436.52 256.048 443.214 263.308 447.437 271.919C452.003 281.232 453.667 292.127 452.067 301.537C451.148 306.952 449.412 312.232 446.869 317.104C445.621 319.485 444.19 321.769 442.582 323.926C441.95 324.78 437.432 329.006 437.528 329.733C439.071 340.987 437.784 351.97 434.88 362.817C434.073 365.844 431.034 372.17 430.938 374.471C430.938 374.726 430.994 375.142 431.129 375.709C429.242 382.003 427.131 388.217 425.355 394.551C424.971 395.909 424.643 397.299 424.347 398.681L413.119 421.062C396.692 441.071 385.391 460.089 372.891 482.646C372.043 484.171 369.14 489.906 367.62 489.906C360.278 478.133 355.008 464.945 347.154 453.483C342.012 445.959 335.446 439.593 330.063 432.276C329.383 431.366 328.728 430.439 328.064 429.505C323.969 423.666 320.282 417.531 317.107 411.109C315.523 407.898 314.052 404.632 312.756 401.285C311.509 398.09 310.773 394.959 309.973 391.628C309.557 389.887 308.997 388.177 308.445 386.476C304.023 372.817 298.36 359.119 297.785 344.533C297.633 340.771 299.088 332.097 298.384 329.701C298.081 328.654 291.69 321.362 290.203 318.726C281.485 303.158 280.014 284.811 290.859 270.018C307.158 247.765 339.652 243.428 365.245 243.428M365.253 235.991C326.312 235.991 299.264 245.96 284.852 265.633C273.176 281.576 272.744 302.783 283.709 322.36C284.708 324.133 286.508 326.426 289.139 329.725C289.771 330.523 290.555 331.498 291.131 332.249C291.091 333.639 290.891 335.851 290.755 337.313C290.499 340.116 290.267 342.76 290.347 344.837C290.859 357.785 294.921 369.71 298.848 381.244C299.688 383.72 300.56 386.276 301.368 388.76L301.44 388.992C301.935 390.526 302.399 391.979 302.735 393.369L302.807 393.657C303.607 396.979 304.431 400.414 305.822 403.985C307.142 407.379 308.653 410.782 310.437 414.4C313.692 420.974 317.571 427.492 321.978 433.77C322.665 434.744 323.361 435.719 324.081 436.693C326.68 440.224 329.495 443.499 332.215 446.67C335.406 450.384 338.429 453.89 341.004 457.677C345.091 463.643 348.434 470.113 351.985 476.966C354.872 482.55 357.863 488.325 361.302 493.836L363.485 497.343H367.62C373.418 497.343 376.442 491.743 379.105 486.807C379.225 486.583 379.329 486.392 379.409 486.248C392.805 462.078 403.562 444.433 418.885 425.774L419.413 425.135L419.789 424.393L431.018 402.012L431.441 401.165L431.641 400.238C431.953 398.801 432.233 397.634 432.537 396.564C433.577 392.858 434.768 389.08 435.92 385.43C436.704 382.953 437.512 380.397 438.271 377.849L438.839 375.956L438.519 374.575C438.863 373.472 439.607 371.587 440.079 370.373C440.887 368.32 441.646 366.379 442.086 364.742C445.221 353.024 446.269 342.249 445.285 331.905C445.677 331.498 446.069 331.091 446.341 330.811C447.501 329.621 448.084 329.014 448.564 328.367C450.404 325.907 452.051 323.271 453.475 320.547C456.354 315.044 458.345 309.061 459.417 302.783C461.289 291.76 459.361 279.323 454.131 268.652C448.78 257.733 440.343 249.562 430.362 245.64C420.221 241.654 409.008 239.977 399.123 238.499C388.03 236.846 376.641 235.999 365.261 235.999L365.253 235.991Z" fill="#0A3536"/>
<path d="M406.657 431.75C394.564 450.384 376.569 465.233 368.62 486.544C366.644 486.967 367.268 486.272 366.74 485.458C364.701 482.31 362.933 477.837 360.862 474.483C351.585 459.442 339.828 446.814 328.919 433.004L342.635 437.868C359.111 442.429 376.753 442.165 393.133 437.221L406.657 431.75Z" fill="#F3FFE3"/>
<g style="mix-blend-mode:multiply" opacity="0.5">
<path d="M336.837 442.077C337.181 442.253 337.437 442.381 337.621 442.477C338.821 442.756 340.244 442.98 340.572 443.044C341.532 443.236 346.186 443.899 343.307 443.531C345.651 443.835 347.994 444.138 350.329 444.498C351.641 444.697 352.952 444.945 354.272 445.145C354.992 445.208 356.543 445.376 356.871 445.408C360.79 445.784 364.733 445.983 368.668 445.983C372.299 445.983 376.969 446.391 380.472 445.344C376.418 446.55 380.496 445.344 381.56 445.153C383.471 444.817 385.383 444.426 387.27 443.954C392.109 442.74 396.764 440.943 401.426 439.178C403.25 436.758 405.009 434.29 406.657 431.75L393.133 437.221C376.753 442.165 359.111 442.429 342.635 437.868L328.919 433.004C331.159 435.839 333.438 438.627 335.717 441.39C336.077 441.63 336.445 441.862 336.829 442.077H336.837Z" fill="#D8E2C9"/>
</g>
<path d="M308.646 387.067L327.776 397.898C356.863 410.662 387.798 408.825 415.678 393.945L426.947 386.644C423.716 395.726 420.277 411.94 413.439 418.69C392.509 439.338 345.299 440.336 323.465 420.759C315.06 413.219 312.812 397.323 308.653 387.067H308.646Z" fill="#F3FFE3"/>
<g style="mix-blend-mode:multiply" opacity="0.5">
<path d="M415.678 393.953C387.806 408.833 356.863 410.662 327.776 397.906L308.646 387.075C310.309 391.189 311.677 396.205 313.252 401.229C313.404 401.309 313.532 401.373 313.652 401.437C313.78 401.485 313.916 401.533 314.076 401.589C315.14 401.972 316.195 402.371 317.259 402.755C324.953 405.503 332.742 408.043 340.724 409.808C348.482 411.517 356.399 412.667 364.357 412.859C372.491 413.059 380.017 411.837 387.822 409.656C388.462 409.48 389.11 409.297 389.75 409.113C395.58 407.467 401.378 405.846 407.121 403.881C411.319 402.443 415.478 400.902 419.589 399.248C420.333 398.953 421.092 398.665 421.828 398.346C422.116 398.21 422.46 398.058 422.82 397.89C423.044 397.795 423.26 397.691 423.484 397.595C424.739 393.561 425.851 389.703 426.939 386.644L415.67 393.945L415.678 393.953Z" fill="#D8E2C9"/>
</g>
<path d="M366.956 391.277C370.164 388.05 371.355 382.666 374.554 379.056C384.023 368.392 404.018 361.339 416.518 354.326C423.02 350.676 429.042 346.275 435.376 342.377C435.024 351.171 433.945 370.98 427.811 377.394C399.339 407.172 340.284 406.085 309.925 379.447C304.935 375.07 303.927 370.541 302.447 364.143C300.856 357.234 299.424 349.302 301.04 342.369C321.418 360.661 356.192 363.712 366.948 391.261L366.956 391.277Z" fill="#F3FFE3"/>
<g style="mix-blend-mode:multiply" opacity="0.5">
<path d="M367.236 396.357C369.524 392.834 372.427 389.567 375.434 386.676C381.456 380.869 388.374 374.894 395.98 371.412C397.06 370.916 398.155 370.461 399.251 370.022C399.979 369.622 400.715 369.239 401.45 368.872C409.2 365.006 417.39 362.13 424.939 357.841C426.699 356.842 428.426 355.788 430.098 354.654C430.306 354.51 430.618 354.342 430.946 354.159C431.034 354.087 431.154 353.983 431.338 353.839C431.809 353.456 432.273 353.064 432.729 352.665C433.481 352.01 434.209 351.339 434.92 350.652C435.168 347.457 435.296 344.574 435.384 342.377C429.05 346.275 423.028 350.676 416.526 354.326C404.026 361.339 384.023 368.384 374.562 379.056C371.363 382.666 370.171 388.05 366.964 391.276C356.208 363.728 321.434 360.676 301.056 342.385C300.36 345.364 300.232 348.527 300.44 351.714C305.031 354.885 309.685 357.961 314.468 360.836C323.025 365.988 332.127 369.99 340.932 374.686C350.169 379.615 359.087 385.877 365.597 394.152C366.165 394.879 366.709 395.614 367.252 396.357H367.236Z" fill="#D8E2C9"/>
</g>
<path d="M448.053 312.863L444.478 300.003L441.311 294.324C440.583 304.133 438.983 315.012 433.857 323.574C424.004 340.021 395.724 350.349 380.185 361.915C376.09 364.958 370.763 368.999 368.62 373.568H367.396C348.114 349.47 306.126 344.054 297.425 311.849C295.745 305.627 294.89 299.069 295.121 292.639C289.883 298.142 290.275 305.571 288.963 312.08C288.675 313.526 288.547 313.918 287.532 312.871C282.685 299.644 280.774 284.915 287.492 271.927L291.019 266.783C291.315 266.783 292.962 264.93 296.097 262.182C305.334 254.107 327.512 238.348 366.277 239.65C418.093 241.383 437.496 259.602 439.863 261.551C439.871 261.559 439.871 261.567 439.879 261.567C458.082 275.154 453.443 300.682 448.061 312.871L448.053 312.863Z" fill="#282727"/>
<path d="M427.675 331.186C415.086 343.439 393.189 352.241 380.193 361.914C376.122 364.933 370.867 368.927 368.684 373.448H368.676C368.652 373.496 368.636 373.528 368.62 373.568H367.396C352.369 354.781 323.561 347.353 307.454 329.748C308.046 323.191 309.413 316.114 311.141 309.995C311.405 309.061 311.365 307.256 312.668 307.471C311.821 322.735 321.594 334.11 332.191 343.679L330.815 327.847C331.191 324.828 335.782 333.159 336.429 334.022C341.54 340.867 346.89 345.652 352.145 351.834C356.871 357.409 360.958 364.055 365.429 369.367C366.037 370.093 366.277 371.172 367.54 370.884C375.698 355.548 389.118 344.086 399.635 330.419C400.091 329.836 401.874 324.117 402.466 328.734C403.042 333.239 402.346 339.006 400.674 343.255C412.247 336.091 420.901 322.999 421.516 309.277C423.876 309.013 422.964 309.284 423.348 310.602C425.107 316.569 425.179 322.648 426.435 328.359C426.651 329.349 426.979 330.435 427.675 331.186Z" fill="#1E1D1D"/>
<path d="M452.579 295.434C452.539 295.291 452.483 295.155 452.427 295.019C451.395 292.471 449.876 291.025 448.772 289.14C448.356 288.421 448.196 288.086 447.86 287.319C447.245 285.873 449.156 284.611 445.141 286.416C444.318 267.031 423.028 280.841 414.694 287.343C413.343 288.389 411.143 291.409 410.112 291.856C407.184 293.11 409.672 284.02 405.681 285.61C404.849 285.937 395.836 296.513 393.221 298.597C390.133 301.066 370.003 313.806 367.46 313.678C352.273 306.777 339.444 296.848 328.272 284.603C326.232 285.546 327.992 292.91 325.56 291.856C322.761 290.634 317.139 284.228 313.564 282.031C308.925 279.172 297.944 274.954 292.962 278.165C291.138 279.339 291.834 283.142 291.346 283.589C290.867 284.028 288.691 283.166 287.372 284.603C285.58 286.544 285.972 291.185 283.317 292.535L283.213 293.126C282.837 285.889 284.005 278.677 287.492 271.927L290.339 267.758C310.357 246.103 318.45 244.362 327.368 261.895C335.605 275.082 344.923 288.996 358.727 296.864C356.631 293.31 355.072 287.998 354.424 283.908C354.272 282.942 353.456 280.753 355.096 280.969C357.079 287.894 361.878 293.829 368.308 297.096C373.89 292.631 377.881 286.76 381.936 280.969C383.008 286.209 380.904 291.632 376.953 295.051C390.917 288.03 402.754 273.9 407.864 259.171C409.44 258.955 409.208 233.371 445.869 267.422C452.251 275.641 453.539 286.057 452.579 295.434Z" fill="#1E1D1D"/>
<path d="M367.988 269.802C358.375 269.802 346.498 263.229 338.637 258.875L338.557 258.827C334.006 256.303 329.447 253.476 325.009 250.409C319.666 246.734 314.716 242.86 310.309 238.907C305.07 234.194 300.872 229.641 297.473 224.992C293.514 219.601 290.915 214.449 289.523 209.241C287.979 203.482 288.091 197.627 289.851 192.307C290.851 189.288 292.162 186.724 293.77 184.687C293.818 184.623 298.272 179.719 301.528 177.203C300.448 175.222 299.712 172.658 299.32 169.535C298.856 165.717 299.568 162.019 300.256 158.448L300.28 158.321C301.168 153.704 302.503 149.414 304.255 145.557C304.287 145.485 304.335 145.381 304.383 145.269C309.077 135.117 317.523 126.219 328.16 120.212C328.903 119.797 329.639 119.365 330.375 118.942C331.687 118.183 333.038 117.409 334.406 116.674C335.638 116.027 336.717 115.5 337.725 115.06C338.173 114.869 338.653 114.717 339.116 114.565C339.564 114.421 340.316 114.19 340.532 114.022L340.836 113.782L341.212 113.678C343.859 112.92 347.642 112.041 350.409 111.554C355.16 110.707 360.286 110.284 365.653 110.284C367.22 110.284 368.844 110.316 370.475 110.388L371.475 110.427C375.458 110.595 379.585 110.779 383.647 111.434C388.118 112.161 392.189 113.934 396.132 115.651C402.866 118.583 410.56 122.329 417.086 128.064C423.316 133.535 428.242 140.972 431.337 149.55C432.161 151.843 432.849 154.199 433.377 156.571C433.633 157.706 433.761 158.856 433.889 159.974C434.033 161.228 434.161 162.41 434.456 163.465C435.328 166.444 436.232 169.966 435.904 173.617C435.784 174.927 435.52 176.205 435.096 177.515C435.104 179.392 435.928 180.063 437.624 181.468C438.519 182.211 439.543 183.05 440.567 184.224C453.987 199.512 444.142 220.184 431.625 233.243C419.477 245.92 387.766 267.254 370.515 269.619C369.708 269.73 368.86 269.786 367.98 269.786L367.988 269.802Z" fill="#FFFAC3"/>
<path d="M365.661 112.296C367.244 112.296 368.82 112.336 370.395 112.4C374.714 112.592 379.057 112.736 383.335 113.431C387.582 114.118 391.477 115.819 395.412 117.536C402.658 120.691 409.808 124.342 415.774 129.589C422.084 135.141 426.627 142.385 429.458 150.253C430.258 152.466 430.913 154.726 431.425 157.027C431.929 159.295 431.913 161.811 432.529 164.024C433.425 167.099 434.2 170.262 433.913 173.465C433.793 174.799 433.505 176.029 433.105 177.203C432.961 181.652 436.104 182.179 439.071 185.566C451.843 200.119 441.502 220.088 430.194 231.885C418.493 244.098 386.894 265.377 370.259 267.662C369.523 267.757 368.772 267.805 367.996 267.805C358.871 267.805 347.074 261.256 339.532 257.086C334.934 254.538 330.471 251.758 326.152 248.771C321.09 245.289 316.219 241.518 311.652 237.421C307.062 233.291 302.743 228.802 299.088 223.818C295.745 219.265 292.922 214.217 291.45 208.73C290.059 203.538 290.051 198.058 291.746 192.93C292.562 190.454 293.714 187.978 295.337 185.917C295.921 185.175 303.351 177.746 304.239 177.746C304.271 177.746 304.295 177.754 304.303 177.77C302.431 175.55 301.647 172.115 301.296 169.287C300.864 165.741 301.567 162.17 302.231 158.696C303.039 154.471 304.279 150.309 306.062 146.387C306.094 146.307 306.126 146.227 306.166 146.156C310.909 135.868 319.322 127.489 329.135 121.953C331.207 120.787 333.238 119.557 335.342 118.439C336.381 117.896 337.445 117.369 338.525 116.889C339.476 116.474 340.972 116.21 341.756 115.603C344.419 114.837 348.162 113.982 350.753 113.527C355.664 112.656 360.654 112.289 365.645 112.289M365.661 108.303C360.182 108.303 354.936 108.742 350.065 109.605C347.242 110.108 343.379 110.995 340.66 111.777L339.916 111.993L339.428 112.376C339.228 112.464 338.812 112.592 338.525 112.68C338.029 112.832 337.477 113.007 336.933 113.247C335.885 113.71 334.758 114.253 333.494 114.916C332.07 115.675 330.703 116.466 329.383 117.225C328.655 117.648 327.92 118.071 327.184 118.487C316.187 124.693 307.454 133.895 302.583 144.414C302.503 144.566 302.447 144.702 302.407 144.806C300.6 148.783 299.224 153.209 298.312 157.961L298.288 158.089C297.609 161.635 296.841 165.661 297.337 169.783C297.665 172.434 298.24 174.743 299.056 176.676C298.432 177.235 297.729 177.898 296.913 178.673C295.353 180.158 292.77 182.714 292.186 183.473C290.451 185.678 289.027 188.441 287.955 191.684C286.076 197.371 285.948 203.626 287.596 209.76C289.051 215.208 291.762 220.575 295.865 226.174C299.344 230.927 303.631 235.576 308.973 240.384C313.452 244.402 318.466 248.332 323.881 252.054C328.36 255.153 332.974 258.021 337.589 260.577L337.677 260.625C345.714 265.074 357.871 271.799 367.996 271.799C368.964 271.799 369.907 271.735 370.803 271.615C388.454 269.195 420.756 247.517 433.089 234.641C437.12 230.432 444.357 221.749 447.509 210.862C450.612 200.167 448.732 190.502 442.086 182.93C440.951 181.636 439.815 180.702 438.911 179.951C437.464 178.753 437.152 178.449 437.112 177.834C437.527 176.492 437.791 175.166 437.911 173.816C438.271 169.831 437.32 166.108 436.392 162.937C436.144 162.043 436.024 160.94 435.888 159.782C435.76 158.616 435.624 157.41 435.344 156.164C434.8 153.712 434.089 151.268 433.233 148.903C430.026 140.005 424.907 132.289 418.429 126.594C411.687 120.667 403.825 116.841 397.019 113.878L396.955 113.854C392.901 112.089 388.71 110.26 383.983 109.493C379.8 108.814 375.618 108.638 371.571 108.462L370.579 108.423C368.916 108.351 367.268 108.311 365.669 108.311L365.661 108.303Z" fill="#0A3536"/>
<path d="M340.996 229.809C340.996 229.809 347.882 243.946 362.797 245.185C377.705 246.415 389.918 229.809 389.918 229.809H340.996Z" fill="#67A465"/>
<path d="M475.932 16.7337C473.973 6.78922 470.902 7.50011 461.64 9.20943C427.978 15.4317 396.284 41.2154 388.566 74.3795C387.07 80.8255 386.231 87.4231 386.358 94.0368C386.398 94.2365 386.422 94.4362 386.446 94.6359C386.886 98.4539 387.422 102.256 387.75 106.074C389.158 108.662 388.542 116.769 392.429 118.343C394.612 118.734 402.242 110.779 404.513 109.533C404.577 109.549 404.633 109.565 404.697 109.588C407.968 106.865 411.351 105.02 415.406 103.35C416.238 103.007 417.053 102.663 417.869 102.336C434.696 92.9505 450.596 83.5492 462.168 67.8457C472.285 54.1152 479.267 33.6672 475.924 16.7257L475.932 16.7337Z" fill="#EBC142"/>
<path d="M481.323 9.80869C479.123 -1.61345 475.684 -0.798724 465.295 1.1662C427.538 8.31502 391.989 37.9327 383.335 76.0251C381.656 83.4296 380.72 91.0097 380.856 98.5979C380.896 98.8215 380.936 99.0531 380.96 99.2848C381.456 103.67 382.056 108.039 382.424 112.424C383.999 115.396 383.311 124.709 387.67 126.514C390.117 126.961 398.683 117.832 401.226 116.394C401.298 116.41 401.362 116.434 401.434 116.458C405.097 113.335 408.904 111.21 413.446 109.293C414.382 108.902 415.294 108.502 416.214 108.127C435.088 97.3518 452.915 86.5527 465.895 68.5089C477.244 52.7416 485.073 29.2503 481.323 9.78473V9.80869ZM469.542 10.6953L414.302 66.9034C414.302 66.9034 413.079 68.6447 413.071 68.6527C412.967 68.7964 412.863 68.9402 412.743 69.076C412.671 69.1719 412.599 69.2597 412.527 69.3476H412.535C407.04 76.0811 402.658 83.5174 398.347 91.0257L390.733 108.359C385.239 60.122 422.892 17.8441 469.534 10.6793L469.542 10.6953ZM429.378 88.286C416.062 95.3949 403.825 102.767 393.556 113.998L406.209 86.9361L435.76 83.781L429.37 88.286H429.378ZM453.011 67.6143C445.085 77.9262 433.92 80.7538 421.372 81.6963C417.549 81.9838 413.327 80.9055 409.736 82.3672L417.949 70.5457C430.154 69.8907 442.174 68.2054 454.059 65.5056C454.378 66.7197 453.555 66.9114 453.011 67.6143ZM460.401 57.4222C453.795 63.8841 430.849 65.1382 421.7 66.2005C421.38 64.9704 422.22 64.7947 422.748 64.0918C423.947 62.5103 430.961 54.2512 432.041 53.7001C435.96 51.6952 448.924 50.6968 454.362 49.2909C458.817 48.1407 463.328 46.5193 467.423 44.4266C468.03 45.1614 461.664 56.1922 460.393 57.4302L460.401 57.4222ZM467.791 38.0925C461.568 44.4106 445.709 46.9346 437.184 48.628L472.357 16.3105C473.365 21.742 471.749 34.0827 467.791 38.1004V38.0925Z" fill="#0A3536"/>
<path d="M273.824 67.854C285.396 83.5575 301.295 92.9588 318.123 102.344C318.938 102.672 319.754 103.015 320.586 103.359C324.641 105.028 328.024 106.873 331.295 109.597C331.359 109.581 331.415 109.557 331.479 109.541C333.75 110.787 341.38 118.742 343.563 118.351C347.45 116.778 346.834 108.67 348.242 106.082C348.578 102.264 349.105 98.4542 349.545 94.6442C349.569 94.4445 349.601 94.2448 349.633 94.0451C349.761 87.4314 348.921 80.8337 347.426 74.3878C339.708 41.2237 308.021 15.44 274.351 9.21773C265.09 7.50841 262.027 6.79752 260.06 16.742C256.717 33.6835 263.698 54.1315 273.816 67.862L273.824 67.854Z" fill="#EBC142"/>
<path d="M270.105 68.5328C283.085 86.5686 300.92 97.3677 319.786 108.151C320.698 108.526 321.618 108.926 322.553 109.317C327.096 111.234 330.895 113.351 334.566 116.482C334.638 116.458 334.702 116.442 334.774 116.418C337.317 117.848 345.882 126.985 348.33 126.538C352.688 124.733 352.001 115.412 353.576 112.448C353.952 108.055 354.552 103.686 355.04 99.3087C355.064 99.0771 355.104 98.8454 355.144 98.6218C355.28 91.0257 354.344 83.4535 352.664 76.0491C344.011 37.9487 308.461 8.33895 270.705 1.19013C260.316 -0.774798 256.877 -1.58952 254.677 9.83262C250.926 29.2982 258.756 52.7815 270.105 68.5568V68.5328ZM345.259 108.367L337.645 91.0336C333.334 83.5254 328.951 76.089 323.457 69.3555H323.465C323.393 69.2597 323.321 69.1718 323.249 69.076C323.137 68.9402 323.025 68.7964 322.921 68.6526C322.913 68.6367 321.69 66.9034 321.69 66.9034L266.458 10.6953C313.108 17.8521 350.753 60.13 345.259 108.375V108.367ZM300.232 83.781L329.783 86.936L342.435 113.998C332.166 102.767 319.938 95.4028 306.614 88.2859L300.224 83.781H300.232ZM281.941 65.5056C293.826 68.2133 305.838 69.8987 318.051 70.5457L326.264 82.3672C322.673 80.9055 318.45 81.9838 314.628 81.6962C302.071 80.7537 290.915 77.9261 282.989 67.6143C282.445 66.9114 281.621 66.7197 281.941 65.5056ZM268.569 44.4185C272.664 46.5113 277.175 48.1327 281.629 49.2829C287.068 50.6887 300.032 51.6952 303.951 53.692C305.03 54.2432 312.044 62.5023 313.244 64.0838C313.772 64.7867 314.62 64.9624 314.292 66.1925C305.142 65.1302 282.197 63.8761 275.591 57.4142C274.319 56.1761 267.953 45.1454 268.561 44.4105L268.569 44.4185ZM263.643 16.3105L298.816 48.628C290.283 46.9426 274.431 44.4105 268.209 38.0924C264.25 34.0747 262.635 21.742 263.643 16.3025V16.3105Z" fill="#0A3536"/>
<path d="M335.054 225.559C334.342 224.657 338.157 225.32 340.588 225.112C349.066 224.361 351.049 223.906 354.024 224.665C355.6 225.064 358.007 225.943 360.686 228.163C362.702 226.773 365.493 225.216 369.044 224.217C376.602 222.085 381.128 226.174 389.142 225.799C392.405 225.647 397.148 224.769 402.834 221.27C402.834 221.27 398.443 229.697 382.448 231.191C366.453 232.684 362.23 237.78 362.23 237.78C362.23 237.78 358.527 234.681 354.472 233.571C350.417 232.461 339.693 231.438 335.062 225.575L335.054 225.559Z" fill="#50803E"/>
<path d="M330.159 222.22C335.582 226.614 341.876 229.673 348.546 231.039C353.512 232.109 359.127 232.884 362.934 236.662C362.95 236.686 363.014 236.734 363.03 236.758C362.59 236.223 361.438 236.35 361.142 237.045L361.334 236.694C362.478 234.801 364.493 234.01 366.389 233.403C369.772 232.397 373.195 231.558 376.658 230.911C386.335 229.138 398.811 229.457 403.746 219.289C400.267 230.496 386.799 231.374 377.145 233.355C373.786 234.058 370.443 234.905 367.172 235.919C365.597 236.374 364.133 237.029 363.557 238.004C363.365 238.403 363.078 238.787 362.59 238.914C362.062 239.074 361.486 238.866 361.134 238.459C357.631 235.024 352.817 234.385 348.074 233.02C341.188 231.214 334.838 227.404 330.175 222.212L330.159 222.22Z" fill="#083729"/>
<path d="M387.774 232.325C385.423 241.479 371.739 247.629 362.965 247.15C354.376 246.678 345.163 238.443 341.604 230.911L352.265 240.185C364.581 247.685 378.825 242.213 387.774 232.325Z" fill="#083729"/>
<path d="M311.708 172.794C311.812 172.458 318.458 157.098 328.855 156.939C339.252 156.779 352.76 168.608 350.529 181.412C350.529 181.412 349.513 183.609 348.85 183.553C348.186 183.497 337.117 174.096 329.439 174.455C321.761 174.815 310.469 175.27 310.805 175.158C311.141 175.046 311.716 172.786 311.716 172.786L311.708 172.794Z" fill="#67A465"/>
<path d="M311.764 175.949C312.196 176.308 341.284 166.915 347.802 185.645C348.186 186.74 348.85 189.304 347.97 190.877C347.97 190.877 335.381 195.726 324.089 192.115C312.796 188.505 311.772 175.941 311.772 175.941L311.764 175.949Z" fill="white"/>
<path d="M330.815 194.184C337.034 194.184 342.076 189.768 342.076 184.32C342.076 178.872 337.034 174.455 330.815 174.455C324.596 174.455 319.554 178.872 319.554 184.32C319.554 189.768 324.596 194.184 330.815 194.184Z" fill="#6927AF"/>
<path d="M330.815 188.425C333.085 188.425 334.926 186.587 334.926 184.319C334.926 182.052 333.085 180.214 330.815 180.214C328.545 180.214 326.704 182.052 326.704 184.319C326.704 186.587 328.545 188.425 330.815 188.425Z" fill="black"/>
<path d="M327 183.561C328.343 183.561 329.431 182.474 329.431 181.133C329.431 179.792 328.343 178.705 327 178.705C325.657 178.705 324.569 179.792 324.569 181.133C324.569 182.474 325.657 183.561 327 183.561Z" fill="white"/>
<path d="M349.617 182.027C342.499 169.742 328.016 168.632 315.179 170.022C315.363 170.006 315.995 168.632 316.123 168.424C316.499 167.825 316.883 167.242 317.291 166.667C318.083 165.557 318.994 164.535 319.874 163.496C324.369 158.16 328.847 156.938 328.847 156.938C328.847 156.938 325.176 156.475 321.426 159.239C317.387 162.218 314.532 165.828 311.708 169.822C310.829 171.068 309.957 172.322 308.661 173.121C306.326 174.567 303.255 175.03 300.768 174.471C298.888 174.048 296.593 173.401 295.089 172.522C293.586 171.643 290.627 169.527 290.651 169.463C290.427 170.022 290.739 170.781 290.875 171.34C291.53 174.096 292.946 175.829 295.401 177.171C298.376 178.792 301.607 179.958 304.902 180.717C306.054 180.981 307.246 181.133 308.285 181.748C309.517 182.474 311.173 185.254 312.588 186.564C315.003 188.801 318.73 192.395 321.697 193.409C330.191 196.317 339.364 194.416 340.996 194.096C346.554 192.994 346.818 191.117 346.818 191.117C346.082 191.572 342.515 192.139 341.66 192.187C337.565 192.411 336.181 192.371 332.078 192.219C331.415 192.195 330.751 192.179 330.087 192.131C326.824 191.884 323.489 191.237 320.65 189.543C318.85 188.473 317.331 187.003 316.203 185.238C315.507 184.144 312.788 178.433 314.004 177.714C320.434 176.364 327.12 175.701 333.67 176.995C337.469 177.746 340.788 179.423 343.787 181.859C344.723 182.69 347.554 184.855 350.161 188.657C350.297 188.856 350.561 189 350.801 188.96C350.921 188.936 351.017 188.872 351.105 188.793C351.537 188.409 351.657 187.786 351.649 187.211C351.617 185.334 350.521 183.609 349.609 182.043L349.617 182.027Z" fill="black"/>
<path d="M355.072 163.193C345.746 155.573 336.237 145.189 322.937 146.746L311.764 150.389C322.153 138.743 334.614 138.032 346.538 148.104C350.449 151.411 356.463 157.705 355.072 163.193Z" fill="#083729"/>
<path d="M350.521 181.412C350.673 181.348 350.697 180.198 350.713 180.022C350.745 179.527 350.745 179.032 350.713 178.537C350.553 176.036 349.745 173.664 349.073 171.268C349.034 171.124 348.866 170.086 348.842 170.07C349.521 170.381 349.961 171.484 350.225 172.131C350.929 173.864 351.329 175.797 351.513 177.658C351.625 178.768 351.825 180.877 350.521 181.412Z" fill="black"/>
<path d="M424.292 172.794C424.188 172.458 417.542 157.098 407.145 156.939C396.748 156.779 383.24 168.608 385.471 181.412C385.471 181.412 386.487 183.609 387.15 183.553C387.814 183.497 398.883 174.096 406.561 174.455C414.239 174.815 425.531 175.27 425.195 175.158C424.859 175.046 424.284 172.786 424.284 172.786L424.292 172.794Z" fill="#67A465"/>
<path d="M424.235 175.949C423.804 176.308 394.716 166.915 388.198 185.645C387.814 186.74 387.15 189.304 388.03 190.877C388.03 190.877 400.618 195.726 411.911 192.115C423.204 188.505 424.227 175.941 424.227 175.941L424.235 175.949Z" fill="white"/>
<path d="M405.185 194.184C411.404 194.184 416.446 189.768 416.446 184.32C416.446 178.872 411.404 174.455 405.185 174.455C398.966 174.455 393.924 178.872 393.924 184.32C393.924 189.768 398.966 194.184 405.185 194.184Z" fill="#6927AF"/>
<path d="M405.185 188.425C407.455 188.425 409.296 186.587 409.296 184.319C409.296 182.052 407.455 180.214 405.185 180.214C402.915 180.214 401.074 182.052 401.074 184.319C401.074 186.587 402.915 188.425 405.185 188.425Z" fill="black"/>
<path d="M402.482 183.561C403.825 183.561 404.913 182.474 404.913 181.133C404.913 179.792 403.825 178.705 402.482 178.705C401.139 178.705 400.051 179.792 400.051 181.133C400.051 182.474 401.139 183.561 402.482 183.561Z" fill="white"/>
<path d="M386.383 182.027C393.501 169.742 407.984 168.632 420.821 170.022C420.637 170.006 420.005 168.632 419.877 168.424C419.501 167.825 419.117 167.242 418.709 166.667C417.917 165.557 417.006 164.535 416.126 163.496C411.631 158.16 407.153 156.938 407.153 156.938C407.153 156.938 410.823 156.475 414.574 159.239C418.613 162.218 421.468 165.828 424.292 169.822C425.171 171.068 426.043 172.322 427.339 173.121C429.674 174.567 432.745 175.03 435.232 174.471C437.112 174.048 439.407 173.401 440.911 172.522C442.414 171.643 445.373 169.527 445.349 169.463C445.573 170.022 445.261 170.781 445.125 171.34C444.47 174.096 443.054 175.829 440.599 177.171C437.624 178.792 434.393 179.958 431.098 180.717C429.946 180.981 428.754 181.133 427.714 181.748C426.483 182.474 424.827 185.254 423.412 186.564C420.996 188.801 417.27 192.395 414.302 193.409C405.809 196.317 396.636 194.416 395.004 194.096C389.446 192.994 389.182 191.117 389.182 191.117C389.918 191.572 393.485 192.139 394.34 192.187C398.435 192.411 399.819 192.371 403.921 192.219C404.585 192.195 405.249 192.179 405.913 192.131C409.176 191.884 412.511 191.237 415.35 189.543C417.15 188.473 418.669 187.003 419.797 185.238C420.493 184.144 423.212 178.433 421.996 177.714C415.566 176.364 408.88 175.701 402.33 176.995C398.531 177.746 395.212 179.423 392.213 181.859C391.277 182.69 388.446 184.855 385.839 188.657C385.703 188.856 385.439 189 385.199 188.96C385.079 188.936 384.983 188.872 384.895 188.793C384.463 188.409 384.343 187.786 384.351 187.211C384.383 185.334 385.479 183.609 386.391 182.043L386.383 182.027Z" fill="black"/>
<path d="M380.928 163.193C390.253 155.573 399.763 145.189 413.063 146.746L424.236 150.389C413.847 138.743 401.386 138.032 389.462 148.104C385.551 151.411 379.537 157.705 380.928 163.193Z" fill="#083729"/>
<path d="M385.479 181.412C385.327 181.348 385.303 180.198 385.287 180.022C385.255 179.527 385.255 179.032 385.287 178.537C385.447 176.036 386.255 173.664 386.926 171.268C386.966 171.124 387.134 170.086 387.158 170.07C386.479 170.381 386.039 171.484 385.775 172.131C385.071 173.864 384.671 175.797 384.487 177.658C384.375 178.768 384.175 180.877 385.479 181.412Z" fill="black"/>
<path d="M364.229 221.318C360.438 221.526 354.264 219.13 352.336 215.767C349.225 210.335 357.767 195.199 356.991 188.434C357.319 188.45 357.607 189.927 357.647 190.726C357.727 192.771 357.831 195.335 357.671 197.34C357.175 203.698 352.864 211.054 358.775 216.957C360.182 218.363 361.598 219.289 364.229 221.318Z" fill="#083729"/>
</g>
<defs>
<clipPath id="clip0_14029_72">
<rect width="736" height="573" fill="white"/>
</clipPath>
</defs>
</svg>
